<svg width="170" height="66" viewBox="0 0 170 66" fill="none" xmlns="http://www.w3.org/2000/svg">
<path d="M47.0605 39.9129C46.6849 39.9247 38.8331 40.2291 32.4158 44.7849C32.6476 43.5607 32.7839 42.2862 32.7815 40.9723C32.7677 31.5582 25.8485 24.1109 25.5508 23.7975L24.3665 22.5392L23.1822 23.8023C22.8911 24.1157 15.9961 31.5862 16.0094 40.9993C16.0113 42.3076 16.1514 43.5755 16.3836 44.7935C9.9654 40.2291 2.1065 39.9257 1.7308 39.9143L0 39.8592L0.0559998 41.5901C0.0683998 42.0193 0.459199 52.1757 7.1148 58.8337C12.2576 63.9755 19.4906 65.3768 22.7107 65.7543C23.6566 65.8645 25.1343 65.8645 26.0793 65.7538C29.2974 65.3758 36.5329 63.9745 41.6775 58.8337C48.3351 52.1757 48.7244 42.0193 48.7373 41.5896L48.7909 39.8592L47.0605 39.9129ZM24.3765 27.4739C26.2113 29.8895 29.5216 35.0641 29.5306 40.977C29.5406 46.8648 26.2455 52.0636 24.4192 54.4916C22.5834 52.0698 19.2717 46.8805 19.2613 40.9951C19.2537 35.104 22.5511 29.9028 24.3765 27.4739ZM9.416 56.5335C5.2505 52.3685 3.9105 46.3534 3.4907 43.348C6.4965 43.763 12.4926 45.0926 16.6757 49.2738C20.8373 53.4359 22.1745 59.4439 22.5957 62.4545C19.5851 62.0333 13.5748 60.697 9.416 56.5335ZM39.3787 56.5335C35.2161 60.6961 29.2072 62.0323 26.1985 62.4535C26.6188 59.4439 27.956 53.4359 32.1176 49.2719C36.2826 45.1074 42.2977 43.7716 45.3036 43.3499C44.8876 46.3534 43.5594 52.3514 39.3787 56.5335Z" fill="#48A742"/>
<path d="M32.2086 17.4378V10.0808C34.2647 9.39511 35.7477 7.45294 35.7477 5.17693C35.7477 2.33157 33.4347 0.009023 30.5836 0H18.2016C15.3596 0.012347 13.0456 2.33632 13.0456 5.17693C13.0456 7.45199 14.5329 9.39179 16.5838 10.0808V17.4387C8.06806 20.2898 1.68976 27.6611 0.147461 36.549C1.27136 36.5552 2.36976 36.6032 3.43156 36.6834C4.96206 28.8074 10.8821 22.3716 18.6475 20.2053L19.8366 19.8743V7.10201L18.2183 7.09537C17.1598 7.09157 16.2979 6.23112 16.2979 5.17646C16.2979 4.11989 17.1598 3.25564 18.2111 3.25042H30.5803C31.6369 3.2528 32.4973 4.11704 32.4973 5.17646C32.4973 6.23207 31.6364 7.09157 30.5803 7.09537L28.9601 7.10106V19.8729L30.1472 20.2048C37.9368 22.3749 43.8754 28.8482 45.3817 36.7599C46.4212 36.6511 47.5138 36.5671 48.6445 36.5196C47.0926 27.643 40.7162 20.2851 32.2086 17.4378Z" fill="#58595B"/>
<path d="M47.1123 39.9129C46.7367 39.9247 38.8849 40.2291 32.4676 44.7849C32.6993 43.5607 32.8356 42.2862 32.8333 40.9723C32.819 31.5577 25.9003 24.1109 25.6026 23.7975L24.4183 22.5392L23.234 23.8023C22.9429 24.1152 16.0479 31.5862 16.0612 40.9993C16.0631 42.3076 16.2032 43.5755 16.4354 44.7935C10.0172 40.2291 2.15776 39.9257 1.78256 39.9143L0.0517578 39.8592L0.107758 41.5901C0.120058 42.0193 0.510857 52.1757 7.16656 58.8337C12.3093 63.9755 19.5424 65.3768 22.7624 65.7543C23.7083 65.8645 25.1866 65.8645 26.1311 65.7538C29.3492 65.3758 36.5847 63.9745 41.7293 58.8337C48.3868 52.1757 48.7762 42.0193 48.789 41.5896L48.8427 39.8592L47.1123 39.9129ZM24.4282 27.4739C26.2626 29.8895 29.5729 35.0641 29.5828 40.977C29.5923 46.8648 26.2968 52.0636 24.4705 54.4916C22.6347 52.0698 19.323 46.8805 19.3126 40.9951C19.305 35.104 22.6029 29.9028 24.4282 27.4739ZM9.46726 56.5335C5.30176 52.3685 3.96216 46.3534 3.54196 43.348C6.54776 43.763 12.5439 45.0926 16.7269 49.2738C20.8891 53.4359 22.2258 59.4439 22.647 62.4545C19.6364 62.0333 13.6261 60.697 9.46726 56.5335ZM39.43 56.5335C35.2674 60.6961 29.2595 62.0323 26.2498 62.4535C26.6701 59.4439 28.0073 53.4359 32.1699 49.2719C36.3344 45.1074 42.349 43.7716 45.3549 43.3499C44.9394 46.3534 43.6112 52.3514 39.43 56.5335Z" fill="#48A742"/>
<path d="M32.2594 17.4378V10.0808C34.3155 9.39511 35.7985 7.45294 35.7985 5.17693C35.7985 2.33157 33.4855 0.009023 30.6344 0H18.2529C15.4104 0.012347 13.0964 2.33632 13.0964 5.17693C13.0964 7.45199 14.5836 9.39179 16.6346 10.0808V17.4387C8.11944 20.2898 1.74064 27.6611 0.198242 36.549C1.32224 36.5552 2.42064 36.6032 3.48244 36.6834C5.01284 28.8074 10.9329 22.3716 18.6983 20.2053L19.8874 19.8743V7.10201L18.269 7.09537C17.2106 7.09157 16.3492 6.23112 16.3492 5.17646C16.3492 4.11989 17.2106 3.25564 18.2624 3.25042H30.6311C31.6886 3.2528 32.549 4.11704 32.549 5.17646C32.549 6.23207 31.6881 7.09157 30.6311 7.09537L29.0109 7.10106V19.8729L30.198 20.2048C37.9876 22.3749 43.9262 28.8482 45.4325 36.7599C46.4719 36.6511 47.5646 36.5671 48.6952 36.5196C47.1434 27.643 40.767 20.2851 32.2594 17.4378Z" fill="#58595B"/>
<path d="M76.6863 12.3313H81.3053L93.9608 42.3467H88.3598L85.2388 34.6934H72.4539L69.3326 42.3467H64.0303L76.6863 12.3313ZM74.463 29.7767H83.2275L78.8664 19.1294L74.463 29.7767Z" fill="#48A742"/>
<path d="M98.4492 12.4167H103.709V37.4305H117.178V42.3472H98.4492V12.4167Z" fill="#48A742"/>
<path d="M121.838 12.4167H138.943V17.3339H127.098V25.7997H137.659V30.7164H127.098V42.3467H121.839V12.4167H121.838Z" fill="#48A742"/>
<path d="M152.025 12.3313H156.643L169.3 42.3467H163.698L160.577 34.6934H147.792L144.671 42.3467H139.368L152.025 12.3313ZM149.801 29.7767H158.567L154.205 19.1294L149.801 29.7767Z" fill="#48A742"/>
<path d="M63.7922 52.3336C63.7922 50.5714 65.167 49.0955 67.4496 49.0955C68.8913 49.0955 70.0989 49.5818 70.804 50.3539L69.6971 51.8967C69.1264 51.3435 68.5561 51.0249 67.6163 51.0249C66.5935 51.0249 65.9723 51.5444 65.9723 52.317C65.9723 54.7483 71.2898 53.9771 71.2898 57.8866C71.2898 59.8649 69.5618 61.2078 67.3646 61.2078C65.8546 61.2078 64.0928 60.5539 63.5225 59.362L64.6973 57.9531C65.3845 58.8416 66.4923 59.2784 67.3979 59.2784C68.3713 59.2784 69.1093 58.7917 69.1093 57.9032C69.1097 55.5883 63.7922 56.1581 63.7922 52.3336Z" fill="#58595B"/>
<path d="M73.6753 49.2796H75.7561L79.7649 54.7652L83.5908 49.2796H85.5362V61.0234H83.4897V52.5343L79.7815 57.7516H79.479L75.7376 52.5842V61.0229H73.6748V49.2796H73.6753Z" fill="#58595B"/>
<path d="M92.2522 49.2459H94.0642L99.0282 61.0234H96.8312L95.6072 58.0199H90.5912L89.3662 61.0234H87.2852L92.2522 49.2459ZM91.3802 56.0901H94.8192L93.1072 51.9132L91.3802 56.0901Z" fill="#58595B"/>
<path d="M100.794 61.0235V49.2798C101.448 49.2798 104.032 49.2465 104.368 49.2465C107.571 49.2465 108.628 50.8397 108.628 52.8702C108.628 54.8831 107.336 55.8894 106.363 56.226L110.037 61.024H107.537L104.301 56.6282H102.857V61.024H100.794V61.0235ZM102.858 51.2091V54.6989H104.2C105.391 54.6989 106.448 54.0944 106.448 52.8868C106.448 51.9642 105.944 51.1764 104.266 51.1764C103.881 51.1764 103.413 51.193 102.858 51.2091Z" fill="#58595B"/>
<path d="M109.773 49.2796H119.453V51.209H115.644V61.0234H113.581V51.209H109.773V49.2796Z" fill="#58595B"/>
<path d="M127.592 49.2459H129.404L134.37 61.0234H132.173L130.948 58.0199H125.932L124.707 61.0234H122.625L127.592 49.2459ZM126.72 56.0901H130.158L128.448 51.9132L126.72 56.0901Z" fill="#58595B"/>
<path d="M140.615 54.6989H145.379V59.5643C144.339 60.6038 142.444 61.2078 140.984 61.2078C137.141 61.2078 134.861 58.8083 134.861 55.1514C134.861 51.779 137.125 49.0955 140.715 49.0955C142.392 49.0955 143.533 49.5319 144.489 50.286L143.618 51.9304C143.03 51.3772 141.99 51.0254 140.967 51.0254C138.702 51.0254 137.041 52.5349 137.041 55.1514C137.041 57.6511 138.634 59.2784 141.017 59.2784C141.923 59.2784 143.013 58.8924 143.449 58.4731V56.6278H140.614V54.6989H140.615Z" fill="#58595B"/>
<path d="M147.933 61.0235V49.2798C148.587 49.2798 151.171 49.2465 151.506 49.2465C154.71 49.2465 155.767 50.8397 155.767 52.8702C155.767 54.8831 154.475 55.8894 153.502 56.226L157.176 61.024H154.676L151.439 56.6282H149.996V61.024H147.933V61.0235ZM149.996 51.2091V54.6989H151.338C152.529 54.6989 153.586 54.0944 153.586 52.8868C153.586 51.9642 153.082 51.1764 151.405 51.1764C151.02 51.1764 150.549 51.193 149.996 51.2091Z" fill="#58595B"/>
<path d="M163.722 49.0955C167.211 49.0955 169.846 51.4936 169.846 55.1514C169.846 58.6739 167.211 61.2078 163.722 61.2078C160.232 61.2078 157.616 58.8083 157.616 55.1514C157.616 51.7457 160.115 49.0955 163.722 49.0955ZM163.722 59.2784C166.188 59.2784 167.665 57.4668 167.665 55.1514C167.665 52.7187 165.937 51.0254 163.722 51.0254C161.474 51.0254 159.796 52.7187 159.796 55.1514C159.796 57.4996 161.524 59.2784 163.722 59.2784Z" fill="#58595B"/>
</svg>
