<svg width="91" height="91" viewBox="0 0 91 91" fill="none" xmlns="http://www.w3.org/2000/svg">
<path d="M42.7461 13.5303H48.0145C48.6131 13.5303 49.092 13.0514 49.092 12.4526C49.092 11.854 48.6131 11.375 48.0145 11.375H42.7461V13.5303ZM42.7461 18.5593H48.1342C48.8526 18.5593 49.3316 18.0803 49.3316 17.3619C49.3316 16.6435 48.8526 16.1646 48.1342 16.1646H42.7461V18.5593ZM51.2473 14.7276C51.9658 15.4461 52.4447 16.404 52.4447 17.4816C52.4447 19.6369 50.7684 21.3132 48.6131 21.3132H39.8723V8.74084H48.4934C50.529 8.74084 52.2052 10.4172 52.2052 12.4526C52.0855 13.2908 51.7263 14.129 51.2473 14.7276ZM53.2829 36.2803H50.05L49.092 34.125H42.0276L41.0697 36.2803H37.8369L44.0631 23.7079H46.9369L53.2829 36.2803ZM45.5 26.9408L43.3447 31.4908H47.6552L45.5 26.9408ZM49.8105 39.0343H53.4026L47.0566 47.1763V51.6066H44.0631V47.1763L37.7171 39.0343H41.3092L45.6197 44.7816L49.8105 39.0343ZM66.4539 39.0343V41.7882H58.0723V43.9434H66.2145V46.6974H58.0723V49.0922H66.4539V51.8461H55.079V39.0343H66.4539ZM75.6737 46.8172H73.3987V51.6066H70.4052V39.0343H78.0684C80.2237 39.0343 81.8999 40.8302 81.8999 42.9855C81.8999 44.7816 80.7026 46.2184 79.146 46.6974L82.8578 51.6066H79.2657L75.6737 46.8172ZM77.8289 41.6684H73.5184V44.0632H77.8289C78.5473 44.0632 79.0263 43.4645 79.0263 42.8658C79.0263 42.2672 78.4276 41.6684 77.8289 41.6684ZM39.0343 51.6066H35.8013L34.8434 49.4513H27.779L26.8211 51.6066H23.5882L29.9343 39.0343H32.8079L39.0343 51.6066ZM31.2513 42.2672L29.0961 46.8172H33.5263L31.2513 42.2672ZM12.2132 43.8237H17.4816C18.0803 43.8237 18.5593 43.3448 18.5593 42.7461C18.5593 42.1474 18.0803 41.6684 17.4816 41.6684H12.2132V43.8237ZM12.2132 48.8526H17.6014C18.3197 48.8526 18.7987 48.3737 18.7987 47.6552C18.7987 46.9369 18.3197 46.4579 17.6014 46.4579H12.2132V48.8526ZM20.7145 45.0211C21.4329 45.7395 21.9119 46.6974 21.9119 47.775C21.9119 49.9302 20.2355 51.6066 18.0803 51.6066H9.21973V39.0343H17.8408C19.8764 39.0343 21.5526 40.7105 21.5526 42.7461C21.5526 43.5843 21.1934 44.4223 20.7145 45.0211ZM51.2473 54.2408V56.9948H42.8658V59.15H51.0079V61.904H42.8658V64.2987H51.2473V67.0526H39.8723V54.2408H51.2473ZM49.092 73.7578C49.092 73.0395 48.6131 72.5605 47.8947 72.5605H42.7461V74.9552H47.8947C48.6131 74.9552 49.092 74.4763 49.092 73.7578ZM39.7526 82.4987V69.9263H48.1342C50.2895 69.9263 51.9658 71.7224 51.9658 73.8776C51.9658 75.5539 51.0079 76.871 49.5711 77.4698L53.4026 82.4987H49.8105L46.2184 77.7092H42.7461V82.4987H39.7526Z" fill="#10384F"/>
<path d="M90.8806 42.6262C89.4437 18.9184 69.6872 0 45.5003 0C21.3136 0 1.55704 18.9184 0.120117 42.6262C0.120117 43.5841 0.239842 44.542 0.359677 45.4999C1.31748 53.4026 4.31094 60.7065 8.86093 66.8131C17.1227 78.0684 30.4135 85.3723 45.5003 85.3723C24.4267 85.3723 7.18467 68.9684 5.74775 48.3736C5.62802 47.4158 5.62802 46.4579 5.62802 45.4999C5.62802 44.542 5.62802 43.5841 5.74775 42.6262C7.18467 22.0315 24.4267 5.62762 45.5003 5.62762C60.5872 5.62762 73.8779 12.9315 82.1397 24.1868C86.6897 30.2934 89.6832 37.5973 90.6411 45.4999C90.7608 46.4579 90.8806 47.4158 90.8806 48.2538C90.8806 47.296 91.0003 46.3381 91.0003 45.3802C91.0003 44.542 91.0003 43.5841 90.8806 42.6262Z" fill="#89D329"/>
<path d="M0.119726 48.3737C1.55654 72.0816 21.3131 90.9999 45.4999 90.9999C69.6867 90.9999 89.4433 72.0816 90.8801 48.3737C90.8801 47.4158 90.7603 46.4579 90.6406 45.5C89.6827 37.5973 86.6894 30.2934 82.1394 24.1869C73.8776 12.9317 60.5867 5.62769 45.4999 5.62769C66.5735 5.62769 83.8156 22.0316 85.2525 42.6263C85.3723 43.5843 85.3723 44.5422 85.3723 45.5C85.3723 46.4579 85.3723 47.4158 85.2525 48.3737C83.8156 69.0881 66.5735 85.3723 45.4999 85.3723C30.413 85.3723 17.1223 78.0684 8.86043 66.8131C4.31044 60.7066 1.31709 53.4026 0.359176 45.5C0.239451 44.5422 0.119726 43.5843 0.119726 42.7461C0.119726 43.704 0 44.6619 0 45.6197C0 46.4579 5.22797e-07 47.4158 0.119726 48.3737Z" fill="#00BCFF"/>
</svg>
