<svg width="204" height="35" viewBox="0 0 204 35" fill="none" xmlns="http://www.w3.org/2000/svg">
<path d="M68.2499 28.9471C68.2499 26.0332 65.8387 24.9506 63.5434 24.5891C65.8645 24.0217 67.5536 22.681 67.5278 20.4635C67.502 17.7299 65.3873 15.9632 60.3715 15.9632H49.5919V33.8213H60.8614C65.8773 33.8089 68.2499 31.7585 68.2499 28.9471ZM55.304 19.2386H58.5534C60.6552 19.2386 61.5835 19.805 61.5835 21.1856C61.5835 22.5519 60.7454 23.1838 58.5534 23.1838H55.304V19.2386ZM55.304 30.5202V26.3691H59.2755C60.926 26.3691 62.3314 26.7685 62.3314 28.4186C62.3314 29.9794 61.171 30.5202 59.2755 30.5202H55.304ZM81.157 34.2729C88.2101 34.2729 92.1042 30.7138 92.1042 24.8728C92.1042 19.3022 88.9193 15.4727 81.157 15.4727C74.0781 15.4727 70.2098 19.0061 70.2098 24.8728C70.2098 30.4434 73.2142 34.2729 81.157 34.2729ZM81.157 19.1352C84.8318 19.1352 86.1342 21.5329 86.1342 24.8728C86.1342 28.1871 84.8061 30.6104 81.157 30.6104C77.4306 30.6104 76.1798 28.1605 76.1798 24.8728C76.1798 21.5594 77.6627 19.1352 81.157 19.1352ZM100.602 27.0779H103.76C106.081 27.0779 106.688 27.4773 106.971 28.6634C107.075 29.1539 107.267 30.933 107.513 32.3771C107.616 32.9445 107.707 33.4607 107.835 33.8089H113.896C113.779 33.4863 113.625 32.8933 113.495 32.2225C113.302 31.23 112.928 28.9604 112.761 28.0703C112.361 26.0977 111.278 25.4791 108.764 25.1565C111.136 24.8083 113.199 23.4286 113.199 20.8241C113.199 17.562 110.607 15.9499 106.171 15.9499H94.812V33.8089H100.602V27.0779ZM100.602 19.4056C101.608 19.4056 104.406 19.4056 104.406 19.4056C106.353 19.4056 107.435 19.9474 107.435 21.4816C107.435 22.8612 106.623 23.6867 104.406 23.6867H100.602V19.4056ZM132.695 30.1208H122.534V26.6139H131.948V22.977H122.534V19.638H132.515V15.9499H116.758V33.8089H132.708V30.1208H132.695ZM141.025 30.4178H150.644L152.153 33.8089H158.368L149.574 15.9499H142.792L133.843 33.8089H139.477L141.025 30.4178ZM145.899 19.7026L149.097 26.9488H142.598L145.899 19.7026ZM174.911 29.9917H165.344V15.9376H159.528V33.7956H174.911V29.9917ZM182.66 15.9499H176.845V33.8089H182.66V15.9499ZM198.172 23.2228L195.038 22.5007C193.118 22.049 191.829 21.752 191.829 20.5916C191.829 19.6893 192.692 18.8904 194.639 18.8904C196.29 18.8904 197.799 19.5602 197.889 20.8108H203.511C203.433 18.155 200.66 15.4727 194.781 15.4727C189.855 15.4727 185.923 17.1749 185.923 21.3137C185.923 24.6024 188.759 25.5948 191.647 26.2657L194.897 27.0133C196.818 27.465 198.146 27.8255 198.146 29.0638C198.146 29.9917 197.527 30.8685 194.794 30.8685C192.95 30.8685 191.338 29.9272 191.287 28.5476H185.446C185.458 29.9016 187.367 34.2852 194.639 34.2852C199.243 34.2852 204 32.8288 204 28.4964C204.026 24.8604 201.331 23.9315 198.172 23.2228ZM7.99512 33.8089H33.6675V16.3627C32.5973 16.2469 31.8365 16.2213 30.9984 16.2213C20.8377 16.2213 10.9994 24.8728 7.99512 33.8089Z" fill="#002D5A"/>
<path d="M33.6668 13.3331V0C32.8287 0 31.6554 0.180276 30.9075 0.361504C20.5405 2.83702 12.6234 11.5919 6.96288 23.4419H6.80816C7.01446 22.1781 8.02021 9.2967 19.5864 0H0V33.8089H4.25509C8.84544 24.9506 18.774 14.3644 33.6668 13.3331Z" fill="#005D9A"/>
</svg>
