<svg width="204" height="49" viewBox="0 0 204 49" fill="none" xmlns="http://www.w3.org/2000/svg">
<g style="mix-blend-mode:luminosity">
<path d="M41.3412 6.6016H51.6765C53.1375 6.6016 54.382 6.76393 55.4102 7.03449C56.3842 7.35916 57.1958 7.73794 57.7911 8.27905C58.3863 8.82016 58.8192 9.41539 59.0356 10.1188C59.3062 10.8223 59.4144 11.5257 59.4144 12.2833C59.4144 13.3114 59.198 14.1772 58.7651 14.9889C58.3322 15.8005 57.6287 16.4499 56.6547 16.991C58.9274 18.0191 60.0096 19.7507 60.0096 22.2398C60.0096 23.1056 59.8473 23.9172 59.5767 24.7289C59.3062 25.5406 58.8192 26.1899 58.1157 26.7852C57.4123 27.3804 56.5465 27.8674 55.4643 28.192C54.382 28.5708 53.0293 28.7332 51.4059 28.7332H41.3412V6.6016ZM47.7805 14.9889H50.5401C51.4059 14.9889 52.0011 14.8265 52.3258 14.556C52.6505 14.2854 52.8128 13.8525 52.8128 13.3114C52.8128 12.7703 52.6505 12.3374 52.3258 12.0668C52.0011 11.7963 51.4059 11.634 50.5401 11.634H47.7805V14.9889ZM47.7805 23.7008H50.7025C51.7847 23.7008 52.4881 23.5385 52.8669 23.1597C53.2457 22.7809 53.408 22.2939 53.408 21.6446C53.408 20.9952 53.2457 20.4541 52.8669 20.1294C52.4881 19.7507 51.7847 19.5883 50.7025 19.5883H47.7805V23.7008ZM82.52 13.8525C82.52 15.3676 82.2494 16.6122 81.6542 17.6944C81.059 18.7767 80.3014 19.5883 79.2733 20.2918L83.8728 28.7873H76.6759L73.1046 21.6446H70.6155V28.7332H63.9598V6.54749H73.4834C75.1608 6.54749 76.6218 6.76393 77.7582 7.14271C78.8945 7.52149 79.8144 8.0626 80.5179 8.71194C81.2213 9.36127 81.7083 10.1188 82.033 11.0387C82.3576 11.9045 82.52 12.8785 82.52 13.8525ZM70.6155 16.504H72.9423C73.9704 16.504 74.7279 16.2875 75.1608 15.9088C75.5937 15.53 75.8102 14.9348 75.8102 14.1231C75.8102 13.3114 75.5937 12.7703 75.1608 12.3374C74.7279 11.9586 73.9704 11.7422 72.9423 11.7422H70.6155V16.504ZM87.39 6.6016H103.894V12.0127H94.3163V14.8265H103.245V20.2377H94.3163V23.2679H104.597L103.678 28.6791H87.4441V6.6016H87.39ZM114.879 6.6016L118.504 21.2658L122.13 6.6016H129.597L122.833 28.7873H113.959L107.303 6.6016H114.879ZM143.612 25.1618H136.577L135.603 28.7332H128.623L135.82 6.54749H144.532L151.674 28.7332H144.586L143.612 25.1618ZM138.092 19.6966H142.151L140.149 12.3374L138.092 19.6966ZM155.137 6.6016H161.198L168.287 17.8027V6.6016H174.888V28.7873H168.882L161.739 17.5321V28.7873H155.137V6.6016ZM184.899 12.6621H178.73V6.6016H198.156V12.6621H191.987V28.7873H184.953V12.6621H184.899ZM48.1051 45.5077C48.1051 47.4557 46.4277 48.4838 44.3173 48.4838C42.3693 48.4838 40.9624 47.618 40.3672 46.2112L42.1529 45.183C42.4775 46.0488 43.2351 46.5899 44.3173 46.5899C45.2372 46.5899 45.9948 46.2653 45.9948 45.5077C45.9948 43.7761 40.746 44.7501 40.746 41.287C40.746 39.4472 42.3152 38.3109 44.3173 38.3109C45.9407 38.3109 47.2393 39.0684 47.9428 40.313L46.1571 41.287C45.8324 40.5295 45.129 40.1507 44.3173 40.1507C43.5598 40.1507 42.9104 40.4753 42.9104 41.1788C42.8563 42.9645 48.1051 41.8822 48.1051 45.5077ZM54.869 46.5358C56.0595 46.5358 56.9253 45.9947 57.3582 45.3454L59.0897 46.3735C58.1698 47.6722 56.7088 48.4838 54.8149 48.4838C51.6224 48.4838 49.512 46.2653 49.512 43.3432C49.512 40.4753 51.6224 38.2027 54.6526 38.2027C57.5746 38.2027 59.5226 40.5294 59.5226 43.3432C59.5226 43.6138 59.4685 43.9385 59.4685 44.209H51.7306C52.0553 45.7783 53.2998 46.5358 54.869 46.5358ZM57.4664 42.5316C57.1958 40.8541 55.9513 40.1507 54.7067 40.1507C53.1375 40.1507 52.0553 41.0706 51.7847 42.5316H57.4664ZM66.503 46.5358C67.6935 46.5358 68.5592 45.9947 68.9921 45.3454L70.7237 46.3735C69.8038 47.6722 68.3428 48.4838 66.4489 48.4838C63.2563 48.4838 61.146 46.2653 61.146 43.3432C61.146 40.4753 63.2563 38.2027 66.2866 38.2027C69.2086 38.2027 71.1566 40.5294 71.1566 43.3432C71.1566 43.6138 71.1025 43.9385 71.1025 44.209H63.3645C63.7433 45.7783 64.9879 46.5358 66.503 46.5358ZM69.1003 42.5316C68.8298 40.8541 67.5852 40.1507 66.3407 40.1507C64.7714 40.1507 63.6892 41.0706 63.4186 42.5316H69.1003ZM83.2234 34.5772V48.2133H81.1131V46.8064C80.3555 47.8345 79.2192 48.4838 77.7041 48.4838C75.0526 48.4838 72.834 46.2653 72.834 43.3432C72.834 40.4212 75.0526 38.2027 77.7041 38.2027C79.2192 38.2027 80.3555 38.852 81.1131 39.826V34.5231H83.2234V34.5772ZM81.1131 43.3432C81.1131 41.5576 79.8144 40.2048 78.0287 40.2048C76.2972 40.2048 74.9444 41.5035 74.9444 43.3432C74.9444 45.183 76.243 46.4817 78.0287 46.4817C79.8144 46.4817 81.1131 45.183 81.1131 43.3432ZM93.1258 45.5077C93.1258 47.4557 91.4484 48.4838 89.338 48.4838C87.39 48.4838 85.9831 47.618 85.3879 46.2112L87.1736 45.183C87.4982 46.0488 88.2558 46.5899 89.338 46.5899C90.2579 46.5899 91.0155 46.2653 91.0155 45.5077C91.0155 43.7761 85.7667 44.7501 85.7667 41.287C85.7667 39.4472 87.3359 38.3109 89.338 38.3109C90.9614 38.3109 92.26 39.0684 92.9635 40.313L91.1778 41.287C90.8531 40.5295 90.1497 40.1507 89.338 40.1507C88.5805 40.1507 87.9311 40.4753 87.9311 41.1788C87.9311 42.9645 93.1258 41.8822 93.1258 45.5077ZM197.561 25.9735H196.533V25.1618H199.563V25.9735H198.535V28.7873H197.561V25.9735ZM203.08 28.7873V26.7852L202.431 28.7873H201.727L201.078 26.7852V28.7873H200.212V25.1618H201.349L202.106 27.5968L202.864 25.1618H204V28.7873H203.08Z" fill="black"/>
<path d="M5.14058 10.2812C7.97965 10.2812 10.2812 7.97965 10.2812 5.14058C10.2812 2.30152 7.97965 0 5.14058 0C2.30152 0 0 2.30152 0 5.14058C0 7.97965 2.30152 10.2812 5.14058 10.2812Z" fill="#F58220"/>
<path d="M16.3959 0.270508H23.9715L15.2055 28.7331H7.62988L16.3959 0.270508ZM24.9996 11.6339H32.5752L27.3805 28.7331H19.8049L24.9996 11.6339Z" fill="#83003F"/>
</g>
</svg>
