<svg width="204" height="41" viewBox="0 0 204 41" fill="none" xmlns="http://www.w3.org/2000/svg">
<path d="M0 18.9978L18.9978 0C8.75903 0.560427 0.560427 8.75903 0 18.9978Z" fill="#2B73C2"/>
<path d="M40.2694 20.119C40.2694 20.0309 40.2631 19.949 40.2631 19.8609H24.0359L20.3585 16.1834H39.879C39.5201 14.3699 38.9155 12.6445 38.1095 11.0451H20.7615L24.4326 7.36772H35.7167C34.0165 5.28343 31.9008 3.55177 29.5079 2.29239C29.4639 2.2672 29.4198 2.24832 29.3757 2.22312C27.7511 1.37934 26.0006 0.749642 24.1556 0.371826L0.37207 24.1553C0.567275 25.1124 0.825449 26.0381 1.15289 26.9385C1.46774 27.8264 1.85185 28.6828 2.28633 29.514C5.45999 35.5275 11.5869 39.7339 18.7402 40.2188L5.15773 26.6426L7.94098 23.8594L23.973 39.8977C25.8809 39.5262 27.6944 38.8902 29.3694 38.0212L11.5743 20.226L14.3512 17.4491L32.732 35.8298C34.0732 34.7531 35.2759 33.5063 36.3024 32.1272L29.1743 24.9991H39.6712C40.0616 23.4375 40.2694 21.8066 40.2694 20.119Z" fill="#2B73C2"/>
<path d="M50.8398 13.4376C50.8398 11.9264 51.1043 10.5537 51.6395 9.32579C52.1748 8.0979 52.9052 7.04633 53.8246 6.17735C54.7502 5.30206 55.8395 4.6346 57.0989 4.1623C58.3521 3.69004 59.6933 3.45703 61.1164 3.45703C62.571 3.45703 63.95 3.69009 65.2535 4.1623C66.5506 4.6346 67.6337 5.27062 68.509 6.07032L64.6112 10.7679C64.2522 10.3081 63.8115 9.95553 63.2762 9.71624C62.741 9.47089 62.1428 9.35106 61.4879 9.35106C60.9527 9.35106 60.4552 9.44571 59.9956 9.63446C59.5296 9.82321 59.1265 10.0941 58.7802 10.4467C58.4339 10.8054 58.1631 11.2339 57.9616 11.7439C57.7664 12.2476 57.672 12.8143 57.672 13.4377C57.672 14.0611 57.7728 14.6153 57.9743 15.1065C58.1821 15.5976 58.4591 16.0194 58.8055 16.3721C59.1518 16.7312 59.5548 17.0018 60.0207 17.1907C60.4804 17.3735 60.9716 17.4677 61.4879 17.4677C62.2184 17.4677 62.8481 17.3164 63.3707 17.0144C63.8934 16.7123 64.3089 16.3594 64.6112 15.9438L68.5091 20.6163C67.6526 21.4726 66.6073 22.1527 65.3605 22.6627C64.1137 23.1665 62.6969 23.4184 61.1164 23.4184C59.6933 23.4184 58.3521 23.1789 57.0989 22.7005C55.8395 22.222 54.7502 21.5418 53.8246 20.6602C52.9052 19.7787 52.1748 18.7271 51.6396 17.5055C51.1043 16.2902 50.8398 14.93 50.8398 13.4376Z" fill="#211E1E"/>
<path d="M78.698 13.3308C78.698 13.9542 78.7925 14.5209 78.9751 15.0373C79.1639 15.5536 79.4221 16.0007 79.7495 16.3722C80.0833 16.75 80.4737 17.0397 80.9396 17.2412C81.3994 17.4491 81.9031 17.5496 82.4383 17.5496C82.9672 17.5496 83.4647 17.4491 83.9181 17.2412C84.3715 17.0397 84.7619 16.75 85.1019 16.3722C85.4419 16.0007 85.7065 15.5536 85.8891 15.0373C86.078 14.5209 86.1724 13.9542 86.1724 13.3308C86.1724 12.7263 86.078 12.1721 85.8891 11.662C85.7065 11.1583 85.442 10.7302 85.1019 10.3838C84.7619 10.031 84.3715 9.76042 83.9181 9.56514C83.4647 9.37006 82.9672 9.2755 82.4383 9.2755C81.9031 9.2755 81.3994 9.37006 80.9396 9.56514C80.4737 9.76032 80.0833 10.0312 79.7495 10.3838C79.4221 10.7302 79.1639 11.1583 78.9751 11.662C78.7925 12.1721 78.698 12.7263 78.698 13.3308ZM71.9414 13.3308C71.9414 11.8195 72.2121 10.4531 72.7474 9.23148C73.2763 8.01616 74.013 6.97717 74.945 6.12076C75.8832 5.2707 76.9915 4.60949 78.2698 4.14984C79.5543 3.68385 80.9397 3.45093 82.4383 3.45093C83.9307 3.45093 85.316 3.68394 86.6006 4.14984C87.8789 4.60949 88.9935 5.2707 89.9379 6.12076C90.8763 6.97717 91.6193 8.01616 92.1485 9.23148C92.6833 10.4531 92.9544 11.8195 92.9544 13.3308C92.9544 14.8421 92.6833 16.2211 92.1485 17.4678C91.6193 18.7146 90.8763 19.7788 89.9379 20.6604C88.9935 21.542 87.8789 22.2221 86.6006 22.7006C85.316 23.1792 83.9307 23.4248 82.4383 23.4248C80.9397 23.4248 79.5543 23.1794 78.2698 22.7006C76.9915 22.2221 75.8832 21.542 74.945 20.6604C74.013 19.7788 73.2763 18.7146 72.7474 17.4678C72.2121 16.2211 71.9414 14.8421 71.9414 13.3308Z" fill="#211E1E"/>
<path d="M103.893 11.9706H105.14C105.354 11.9706 105.587 11.9523 105.845 11.9139C106.097 11.8819 106.337 11.807 106.557 11.6873C106.777 11.5739 106.966 11.4163 107.111 11.2087C107.268 11.0008 107.337 10.7301 107.337 10.3964C107.337 10.0564 107.281 9.79191 107.155 9.59039C107.03 9.40164 106.871 9.25038 106.677 9.15583C106.481 9.05485 106.273 8.99221 106.041 8.96708C105.814 8.93967 105.6 8.92142 105.405 8.92142H103.893V11.9706ZM97.7852 3.98608H105.927C106.847 3.98608 107.772 4.08065 108.692 4.26937C109.604 4.45809 110.423 4.78574 111.141 5.258C111.865 5.73031 112.451 6.35993 112.891 7.15333C113.339 7.94673 113.559 8.93544 113.559 10.1256C113.559 11.2842 113.275 12.3043 112.709 13.1858C112.142 14.0674 111.324 14.7475 110.26 15.2261L115.057 22.8894H107.759L104.139 16.1328H103.95V22.8894H97.7852V3.98608Z" fill="#211E1E"/>
<path d="M129.705 22.8895H123.351V9.3511H118.704V3.98608H134.352V9.3511H129.705V22.8895Z" fill="#211E1E"/>
<path d="M140.056 3.98608H153.053V9.27547H146.031V10.9H152.625V15.837H146.031V17.6H153.506V22.8895H140.056V3.98608Z" fill="#211E1E"/>
<path d="M157.719 3.98608H164.903L168.026 15.6795H168.134L171.125 3.98608H178.304L171.471 22.8895H164.419L157.719 3.98608Z" fill="#211E1E"/>
<path d="M189.235 10.5789L187.686 15.2513H190.759L189.235 10.5789ZM185.948 3.98608H192.704L200.072 22.8895H193.158L192.169 20.1125H186.168L185.23 22.8895H178.505L185.948 3.98608Z" fill="#211E1E"/>
<path d="M199.335 4.5717V6.8197H198.648V4.5717H197.849V3.98608H200.134V4.5717H199.335Z" fill="#211E1E"/>
<path d="M203.327 6.8197L203.345 4.81727H203.332L202.595 6.8197H202.117L201.4 4.81727H201.392L201.406 6.8197H200.764V3.98608H201.733L202.382 5.79959H202.395L203.011 3.98608H204V6.8197H203.327Z" fill="#211E1E"/>
<path d="M57.201 32.87C57.201 31.6421 56.3068 30.7605 55.1167 30.7605C53.9266 30.7605 53.0325 31.6421 53.0325 32.87C53.0325 34.0978 53.9266 34.9857 55.1167 34.9857C56.3068 34.9857 57.201 34.0978 57.201 32.87ZM58.6304 29.5704V36.1695H57.201V35.2187C56.7035 35.924 55.9227 36.3395 54.89 36.3395C53.0955 36.3395 51.6094 34.822 51.6094 32.87C51.6094 30.9053 53.0955 29.4003 54.89 29.4003C55.9227 29.4003 56.7035 29.8221 57.201 30.5086V29.5704H58.6304Z" fill="#211E1E"/>
<path d="M66.0743 32.8069C66.0743 31.6168 65.1738 30.7353 63.9775 30.7353C62.7747 30.7353 61.8742 31.6168 61.8742 32.8069C61.8742 33.9908 62.7747 34.8786 63.9775 34.8786C65.1738 34.8786 66.0743 33.9908 66.0743 32.8069ZM67.4722 29.5704V35.8672C67.4722 37.9893 65.8098 38.9842 64.0782 38.9842C62.6299 38.9842 61.509 38.4427 60.9549 37.3848L62.1828 36.6733C62.4724 37.24 62.9574 37.6871 64.1097 37.6871C65.3376 37.6871 66.0743 37.0133 66.0743 35.8672V35.0612C65.5705 35.7728 64.796 36.2136 63.7759 36.2136C61.9183 36.2136 60.4512 34.6897 60.4512 32.8069C60.4512 30.9179 61.9183 29.4003 63.7759 29.4003C64.796 29.4003 65.5705 29.8348 66.0743 30.5464V29.5704H67.4722Z" fill="#211E1E"/>
<path d="M73.1211 29.4509V30.9999C72.1828 30.9305 71.0871 31.3651 71.0871 32.845V36.1698H69.6641V29.5706H71.0871V30.6788C71.4839 29.7846 72.2899 29.4509 73.1211 29.4509Z" fill="#211E1E"/>
<path d="M74.7064 29.5706H76.1295V36.1698H74.7064V29.5706ZM74.5049 27.6689C74.5049 27.1715 74.9142 26.7622 75.4179 26.7622C75.9217 26.7622 76.3247 27.1716 76.3247 27.6689C76.3247 28.1602 75.9218 28.582 75.4179 28.582C74.9142 28.582 74.5049 28.1603 74.5049 27.6689Z" fill="#211E1E"/>
<path d="M83.1002 34.3119C83.1002 35.628 81.9479 36.3395 80.5247 36.3395C79.2024 36.3395 78.2578 35.7477 77.8359 34.7968L79.0576 34.0852C79.2717 34.6772 79.8006 35.0361 80.5247 35.0361C81.1545 35.0361 81.6456 34.8218 81.6456 34.2993C81.6456 33.1218 78.1004 33.783 78.1004 31.4216C78.1004 30.1812 79.1646 29.4003 80.5122 29.4003C81.5953 29.4003 82.4894 29.904 82.9554 30.7731L81.7527 31.4468C81.5134 30.9305 81.0537 30.6975 80.5122 30.6975C79.9958 30.6975 79.5487 30.9178 79.5487 31.3965C79.5487 32.5929 83.1002 31.8687 83.1002 34.3119Z" fill="#211E1E"/>
<path d="M84.3408 32.87C84.3408 30.9053 85.8332 29.4003 87.823 29.4003C89.1139 29.4003 90.2411 30.0741 90.77 31.1005L89.5421 31.8183C89.2461 31.1949 88.6039 30.7983 87.8105 30.7983C86.6518 30.7983 85.764 31.6861 85.764 32.87C85.764 34.0601 86.6518 34.9416 87.8105 34.9416C88.6039 34.9416 89.2461 34.5322 89.5673 33.9278L90.7952 34.6268C90.2411 35.6658 89.1139 36.3395 87.823 36.3395C85.8332 36.3395 84.3408 34.822 84.3408 32.87Z" fill="#211E1E"/>
<path d="M92.3526 29.5706H93.7815V36.1698H92.3526V29.5706ZM92.1504 27.6689C92.1504 27.1715 92.5667 26.7622 93.0638 26.7622C93.5674 26.7622 93.9763 27.1716 93.9763 27.6689C93.9763 28.1602 93.5674 28.582 93.0638 28.582C92.5667 28.582 92.1504 28.1603 92.1504 27.6689Z" fill="#211E1E"/>
<path d="M100.946 32.3157C100.745 31.1823 99.9133 30.6912 99.0568 30.6912C97.9863 30.6912 97.2622 31.3272 97.0609 32.3157H100.946ZM99.1892 35.0361C99.9831 35.0361 100.575 34.6833 100.889 34.2175L102.067 34.9039C101.463 35.798 100.467 36.3395 99.1763 36.3395C96.9975 36.3395 95.5879 34.8535 95.5879 32.87C95.5879 30.9179 96.9975 29.4003 99.0697 29.4003C101.034 29.4003 102.382 30.9809 102.382 32.8825C102.382 33.0841 102.357 33.292 102.332 33.4808H97.0738C97.2998 34.5071 98.1315 35.0361 99.1892 35.0361Z" fill="#211E1E"/>
<path d="M110.171 32.1207V36.1695H108.741V32.2655C108.741 31.2642 108.162 30.7353 107.268 30.7353C106.33 30.7353 105.587 31.2894 105.587 32.6369V36.1695H104.164V29.5704H105.587V30.4142C106.021 29.7278 106.739 29.4003 107.633 29.4003C109.113 29.4003 110.171 30.4016 110.171 32.1207Z" fill="#211E1E"/>
<path d="M111.858 32.87C111.858 30.9053 113.351 29.4003 115.34 29.4003C116.638 29.4003 117.758 30.0741 118.287 31.1005L117.06 31.8183C116.769 31.1949 116.121 30.7983 115.327 30.7983C114.169 30.7983 113.281 31.6861 113.281 32.87C113.281 34.0601 114.169 34.9416 115.327 34.9416C116.121 34.9416 116.769 34.5322 117.084 33.9278L118.312 34.6268C117.758 35.6658 116.638 36.3395 115.34 36.3395C113.351 36.3395 111.858 34.822 111.858 32.87Z" fill="#211E1E"/>
<path d="M124.754 32.3157C124.553 31.1823 123.721 30.6912 122.864 30.6912C121.794 30.6912 121.07 31.3272 120.869 32.3157H124.754ZM122.997 35.0361C123.791 35.0361 124.383 34.6833 124.697 34.2175L125.875 34.9039C125.264 35.798 124.275 36.3395 122.985 36.3395C120.806 36.3395 119.396 34.8535 119.396 32.87C119.396 30.9179 120.806 29.4003 122.877 29.4003C124.842 29.4003 126.19 30.9809 126.19 32.8825C126.19 33.0841 126.164 33.292 126.14 33.4808H120.881C121.108 34.5071 121.939 35.0361 122.997 35.0361Z" fill="#211E1E"/>
</svg>
