<svg width="104" height="61" viewBox="0 0 104 61" fill="none" xmlns="http://www.w3.org/2000/svg">
<path fill-rule="evenodd" clip-rule="evenodd" d="M83.2035 12.3585C81.4051 18.9759 79.6149 25.5957 77.8621 32.2248C76.9846 35.5388 76.1233 38.8551 75.1137 42.1352C74.1333 45.3206 72.9286 48.7211 71.1734 51.6156C69.3423 54.6351 66.9713 56.9932 63.6912 58.5029C62.379 59.1059 61.0352 59.5195 59.6247 59.8163C57.623 60.2359 55.6131 60.4088 53.5799 60.5221C48.5435 60.8038 37.8619 60.7617 32.8274 60.7617L35.9137 49.4339C38.2498 49.4339 40.5857 49.4409 42.9216 49.3778C45.1757 49.3147 47.6554 49.1955 49.8756 48.6755C52.3062 48.1064 54.1408 47.1295 55.7475 45.1699C57.2105 43.3855 58.1944 41.1595 59.0007 39.0596C60.4731 35.2256 61.9805 29.7358 63.0439 25.7873C64.2463 21.3177 65.4008 16.8375 66.5658 12.3585H83.2035ZM104 12.3585L95.0221 45.3136H78.3856L87.3623 12.3585H104ZM49.1348 0H65.7724C64.029 6.43281 62.289 12.8668 60.5257 19.2938C59.2964 23.7716 58.0764 28.2518 56.7431 32.7016C56.1612 34.6402 55.5804 36.5741 54.8174 38.4578C54.205 39.9699 53.5203 41.316 52.2536 42.446C51.3082 43.2909 50.2764 43.8155 49.0752 44.1895C47.5303 44.6709 45.968 44.8474 44.3718 44.9771C42.0756 45.164 39.7783 45.2108 37.4786 45.2482C32.1887 45.3323 22.5824 45.3206 17.2925 45.2973C15.3917 45.2891 13.4908 45.2786 11.5901 45.2435C10.2121 45.219 8.83558 45.1851 7.4595 45.0998C6.54068 45.0425 5.62899 44.9666 4.72115 44.8006C4.1051 44.6884 3.51194 44.5377 2.93387 44.2876C1.0302 43.4638 0.0600805 41.8174 0.0035232 39.8121C-0.0293128 38.6646 0.172264 37.5709 0.404219 36.4608C0.73363 34.8891 1.14378 33.3384 1.5502 31.7854C2.326 28.8197 3.74577 23.3462 4.85237 20.4646C5.71931 18.207 6.86437 15.9599 9.03995 14.5308C10.2563 13.7327 11.5344 13.3073 12.9438 13.0269C13.9885 12.8189 15.0385 12.7079 16.098 12.6296C17.8724 12.4999 19.6482 12.459 21.4259 12.4274C23.9523 12.3842 26.4787 12.3748 29.0049 12.3666L35.307 12.3585H41.6082L39.3646 20.5978C35.6186 20.5978 31.874 20.5873 28.1285 20.6084C27.0352 20.6154 25.9433 20.6072 24.8511 20.6773C24.4633 20.703 24.0844 20.7275 23.7093 20.8573C23.216 21.0267 22.9721 21.334 22.7554 21.7746C22.4383 22.4196 22.2553 23.0997 22.0534 23.7809C21.7449 24.8198 21.4592 25.8656 21.173 26.9115C20.7324 28.5229 20.2918 30.1343 19.8735 31.7515C19.719 32.351 19.5674 32.9493 19.4371 33.5546C19.3454 33.9776 19.2627 34.4006 19.2218 34.8318C19.1772 35.3051 19.1634 35.873 19.4523 36.3112C19.7461 36.7564 20.2429 36.8604 20.7063 36.927C21.23 37.003 21.7548 37.0193 22.2815 37.0345C23.1438 37.0602 24.006 37.0637 24.8682 37.0684C27.2272 37.0801 29.5863 37.0801 31.9453 37.0661C33.0324 37.0591 34.1184 37.0509 35.2046 37.0076C35.9528 36.9784 36.6914 36.9527 37.4283 36.7763C37.9881 36.6419 38.4263 36.4315 38.8049 35.9782C39.0608 35.6708 39.2279 35.3308 39.381 34.9697C39.7619 34.0734 40.0272 33.1444 40.3041 32.2178C41.3675 28.6596 42.3257 25.0757 43.3037 21.4941L46.2274 10.7494L49.1348 0H65.7724H49.1348Z" fill="#0971CE"/>
</svg>
