<svg width="170" height="71" viewBox="0 0 170 71" fill="none" xmlns="http://www.w3.org/2000/svg">
<path d="M0 55.1332C0 55.1332 78.872 38.7454 170 55.1332H0Z" fill="#E39348"/>
<path d="M21.7555 41.6915C20.3041 41.8477 16.1139 42.1314 10.7151 42.1314C4.81266 42.1314 0.226562 41.0285 0.226562 35.672V24.6791C0.226562 19.3236 4.81296 18.2225 10.7151 18.2225C16.1139 18.2225 20.3044 18.5064 21.7555 18.6651C22.4365 18.7289 22.6632 18.8849 22.6632 19.3236V21.3401C22.6632 21.6889 22.2571 21.971 21.7555 21.971H10.0761C7.44686 21.971 6.49306 22.6016 6.49306 24.6794V28.081H21.2109C21.7093 28.081 22.1216 28.365 22.1216 28.7128V30.9801C22.1216 31.3264 21.7093 31.6113 21.2109 31.6113H6.49276V35.6723C6.49276 37.7516 7.44686 38.3822 10.0758 38.3822H21.7552C22.2571 38.3822 22.6629 38.6674 22.6629 39.0104V41.0288C22.6632 41.4687 22.4365 41.6273 21.7555 41.6915Z" fill="#406859"/>
<path d="M40.2806 42.1314C32.9739 42.1314 27.7988 39.925 27.7988 33.2162V19.0738C27.7988 18.7287 28.2048 18.4738 28.7065 18.4738H33.1996C33.7004 18.4738 34.1055 18.7287 34.1055 19.0738V33.2159C34.1055 36.8062 35.3757 38.5079 40.2803 38.5079C45.1845 38.5079 46.4557 36.8062 46.4557 33.2159V19.0738C46.4557 18.7287 46.8626 18.4738 47.3615 18.4738H51.8547C52.3543 18.4738 52.7666 18.7287 52.7666 19.0738V33.2159C52.7672 39.925 47.5885 42.1314 40.2806 42.1314Z" fill="#406859"/>
<path d="M75.5982 25.3409C75.5982 22.9774 73.3301 21.9708 68.7875 21.9708C67.8327 21.9708 65.5657 22.0331 64.7486 22.0967V29.1831C65.4743 29.2139 68.0183 29.2799 68.7875 29.2799C73.4623 29.2799 75.5982 28.3956 75.5982 25.6246V25.3409ZM82.407 41.8771H76.8703C76.3683 41.8771 76.1881 41.5647 75.9608 41.248L69.4241 32.8384H68.7875C67.6084 32.8384 65.7936 32.7445 64.7486 32.7118V41.248C64.7486 41.5947 64.3849 41.8771 63.8829 41.8771H59.3454C58.8464 41.8771 58.4365 41.595 58.4365 41.248V19.577C58.4365 18.9476 58.9823 18.7284 59.8891 18.6303C62.2523 18.3775 65.4746 18.2222 68.7878 18.2222C75.7794 18.2222 81.864 19.9551 81.864 25.3406V25.624C81.864 28.9642 79.459 31.0422 75.7344 32.0497L82.861 41.248C82.952 41.3419 82.952 41.4375 82.952 41.5005C82.952 41.7224 82.773 41.8771 82.407 41.8771Z" fill="#406859"/>
<path d="M99.1588 22.41C99.0218 22.0328 98.8868 21.9066 98.4318 21.9066C97.9778 21.9066 97.8408 22.0328 97.7038 22.41L94.4358 31.7663H102.428L99.1588 22.41ZM111.417 41.8771H106.603C106.194 41.8771 105.832 41.6273 105.738 41.3418L103.652 35.3572H93.2118L91.1218 41.3418C91.0308 41.6273 90.6678 41.8771 90.2618 41.8771H85.4508C84.9948 41.8771 84.6328 41.6582 84.6328 41.3418C84.6328 41.313 84.6748 41.248 84.6748 41.1853L92.1198 21.4355C93.2118 18.5064 96.4798 18.2225 98.4318 18.2225C100.385 18.2225 103.652 18.5064 104.743 21.4355L112.186 41.1853C112.186 41.2483 112.232 41.3133 112.232 41.3418C112.232 41.6585 111.87 41.8771 111.417 41.8771Z" fill="#406859"/>
<path d="M132.889 41.6915C131.526 41.9119 127.576 42.1314 125.169 42.1314C119.268 42.1314 114.684 41.0285 114.684 35.6721V19.1047C114.684 18.7574 115.091 18.4738 115.591 18.4738H120.084C120.583 18.4738 120.993 18.7571 120.993 19.1047V35.6721C120.993 37.7513 121.902 38.3819 124.534 38.3819H132.888C133.387 38.3819 133.793 38.6671 133.793 39.0101V41.0285C133.793 41.4687 133.566 41.595 132.889 41.6915Z" fill="#406859"/>
<path d="M157.9 42.1314C154.493 42.1314 152.043 41.9122 149.861 41.5646C149.409 41.5005 148.997 41.2795 148.997 40.9358V38.6671C148.997 38.3204 149.409 38.0664 149.861 38.0664H149.955C151.768 38.2242 156.308 38.3801 157.989 38.3801C162.031 38.3801 163.256 37.3732 163.256 35.5461C163.256 34.3194 162.392 33.6908 159.398 32.4626L153.404 29.9747C149.181 28.2388 148.046 26.4126 148.046 24.2071C148.046 20.7434 150.954 18.2225 159.398 18.2225C162.392 18.2225 166.569 18.537 168.114 18.7907C168.568 18.8546 168.928 19.0741 168.928 19.3865V21.7177C168.928 22.0331 168.614 22.2853 168.158 22.2853H168.068C165.071 22.0967 162.077 21.9707 159.124 21.9707C155.765 21.9707 154.359 22.79 154.359 24.2071C154.359 25.2473 155.127 25.8779 158.08 27.0105L163.527 29.1206C168.521 31.0428 169.839 33.0605 169.839 35.5464C169.838 38.7294 166.976 42.1314 157.9 42.1314Z" fill="#406859"/>
<path d="M142.601 41.6378H138.107C137.609 41.6378 137.199 41.3554 137.199 41.0081L137.187 21.5495C137.187 21.2022 137.317 20.8496 138.023 20.6178C138.023 20.6178 139.13 20.2334 140.266 19.7368C141.792 19.066 142.414 18.5853 142.803 18.3925C143.112 18.2363 143.509 18.269 143.509 18.7248V41.0084C143.509 41.3554 143.1 41.6378 142.601 41.6378Z" fill="#406859"/>
<path d="M138.52 8.53633C138.533 8.84309 138.452 8.98073 138.168 9.35556C137.782 9.87792 137.214 10.3268 137.214 10.3268C137.214 10.3268 136.862 10.6813 136.289 10.7538C135.719 10.8276 135.086 10.6138 134.802 10.4294C134.508 10.2459 134.014 10.0225 133.773 9.42213C133.539 8.8245 133.611 8.50425 133.724 8.169C133.838 7.83406 134.195 7.36297 134.864 7.04722C135.535 6.73116 136.278 6.69548 136.68 6.80313C137.078 6.91348 137.453 7.15937 137.612 7.3045C137.875 7.53539 138.061 7.77918 138.189 7.87514C138.515 8.11473 138.52 8.53633 138.52 8.53633Z" fill="#AA6247"/>
<path d="M152.619 14.5924C151.033 17.0666 149.898 17.0603 148.11 16.0662C146.323 15.0776 144.336 13.6913 143.771 11.4094C143.197 9.12859 142.091 9.00295 142.896 8.64492C143.709 8.28268 144.193 8.96157 145.196 8.61973C146.196 8.26529 149.491 8.4563 150.681 9.43355C151.87 10.418 154.351 11.8996 152.619 14.5924Z" fill="#DA7146"/>
<path d="M149.07 1.32859C149.07 1.32859 149.457 1.81017 149.621 2.43628C149.785 3.0615 149.761 3.84984 149.553 4.50024C149.343 5.14254 148.493 6.1102 148.063 6.43015C147.637 6.7546 147.118 7.05056 145.917 7.15222C144.519 7.27156 141.969 6.28172 142.913 2.49566C143.114 1.69233 143.977 0.736963 144.915 0.324353C146.045 -0.17012 147.833 -0.281369 149.07 1.32859Z" fill="#E39348"/>
<path d="M138.42 1.95136C138.42 1.95136 138.811 1.83351 139.23 1.88539C139.651 1.93936 140.128 2.14957 140.475 2.43204C140.815 2.7196 141.199 3.47586 141.289 3.8165C141.381 4.15654 141.535 4.67351 141.31 5.43366C141.135 6.02469 140.492 7.12338 140.415 7.28861C140.341 7.45683 140.182 7.65504 140.059 7.60106C139.933 7.54739 139.808 7.31439 139.33 7.07031C138.885 6.84151 137.972 6.36773 137.625 5.9995C137.281 5.63367 136.866 5.04743 136.786 4.2453C136.71 3.43508 136.877 2.34478 138.42 1.95136Z" fill="#E39348"/>
<path d="M143.07 12.9351C143.036 12.5513 142.861 12.3603 142.601 12.025C141.467 10.5605 140.474 10.5443 139.972 10.5536C137.872 10.5866 134.904 12.8326 134.635 13.1021C134.359 13.3726 133.738 14.0683 133.463 14.5808C133.19 15.0893 132.928 15.6699 132.928 15.6699C132.928 15.6699 132.755 16.0345 132.56 16.2243C132.37 16.4105 132.195 16.8309 132.244 17.0984C132.299 17.3686 132.404 17.508 132.455 17.5854C132.526 17.6846 132.614 17.7428 132.71 17.8328C132.819 17.9488 133.108 18.028 133.253 18.0391C133.617 18.0577 134.535 18.1683 135.02 18.1956C135.511 18.2265 136.943 18.3782 138.448 17.8882C139.943 17.3992 141.189 16.9074 141.873 16.4243C142.545 15.9427 142.879 15.3262 143 14.877C143.098 14.5331 143.028 14.2746 143.047 14.0839C143.057 13.8851 142.983 13.7169 143.05 13.4347C143.095 13.2596 143.081 13.0823 143.07 12.9351Z" fill="#AA6247"/>
<path d="M33.6951 63.7249C33.4492 63.2559 33.0585 62.9812 32.4417 62.9812C31.4144 62.9812 30.8269 63.882 30.8269 65.1546C30.8269 66.3874 31.4237 67.3274 32.451 67.3274C33.0678 67.3274 33.4298 67.0632 33.7929 66.4566L34.948 67.1424C34.4778 68.1101 33.6552 68.6873 32.412 68.6873C30.6215 68.6873 29.417 67.3169 29.417 65.1546C29.417 63.0697 30.6698 61.6201 32.4612 61.6201C33.7539 61.6201 34.5368 62.2469 34.9665 63.1383L33.6951 63.7249Z" fill="#406859"/>
<path d="M39.1182 65.0176C38.9014 64.8215 38.6378 64.6851 38.3347 64.6851C37.8051 64.6851 37.4639 64.91 37.4639 65.7996V68.5803H36.1133V63.4409H37.4639V63.7843C37.698 63.5396 38.0408 63.3339 38.52 63.3339C38.9611 63.3339 39.2942 63.5108 39.4705 63.6958L39.1182 65.0176Z" fill="#406859"/>
<path d="M42.2594 64.5075C41.7691 64.5075 41.4663 64.9099 41.4171 65.4287H43.18C43.1407 64.969 42.8654 64.5075 42.2594 64.5075ZM44.4721 66.4458H41.3985C41.4477 67.1511 41.9661 67.4149 42.4549 67.4149C42.8273 67.4149 43.1407 67.2779 43.3359 67.053L44.2951 67.856C43.8846 68.3844 43.1407 68.687 42.4549 68.687C40.976 68.687 40.0371 67.6398 40.0371 66.0164C40.0371 64.4391 41.0252 63.3335 42.3272 63.3335C43.6993 63.3335 44.4919 64.5471 44.4919 66.0164C44.4919 66.211 44.4808 66.3492 44.4721 66.4458Z" fill="#406859"/>
<path d="M48.3968 66.4264C48.1626 66.2801 47.9371 66.2108 47.4574 66.2108C46.9491 66.2108 46.675 66.4456 46.675 66.8567C46.675 67.2193 46.8807 67.5425 47.4574 67.5425C47.8979 67.5425 48.2502 67.3164 48.3968 67.0723V66.4264ZM48.3968 68.58V68.2373C48.153 68.4916 47.7227 68.6871 47.2418 68.6871C46.2825 68.6871 45.3232 68.1003 45.3232 66.8567C45.3232 65.7212 46.2438 65.1541 47.4082 65.1541C47.8784 65.1541 48.1818 65.2513 48.3968 65.3592V65.1049C48.3968 64.7424 48.153 64.4494 47.6637 64.4494C47.0462 64.4494 46.7242 64.5373 46.254 64.7916L45.7347 63.8515C46.332 63.51 46.8315 63.3331 47.664 63.3331C48.9063 63.3331 49.7489 63.9784 49.7489 65.1334V68.5794H48.3968V68.58Z" fill="#406859"/>
<path d="M53.8782 68.3744C53.6533 68.5513 53.2521 68.6871 52.8305 68.6871C51.9996 68.6871 51.4601 68.0418 51.4601 67.1422V64.7134H50.5986V63.4407H51.4601V62.1183L52.8125 61.4443V63.4407H54.0453V64.7134H52.8125V66.7791C52.8125 67.2688 52.9882 67.3959 53.3097 67.3959C53.5562 67.3959 53.7412 67.2889 54.074 67.004L53.8782 68.3744Z" fill="#406859"/>
<path d="M55.3855 63.4409H56.736V68.5802H55.3855V63.4409ZM56.0614 63.0205C55.6397 63.0205 55.2871 62.6684 55.2871 62.2468C55.2871 61.8264 55.6397 61.4738 56.0614 61.4738C56.4812 61.4738 56.8344 61.8264 56.8344 62.2468C56.8344 62.6684 56.4812 63.0205 56.0614 63.0205Z" fill="#406859"/>
<path d="M61.2 68.5802V65.7996C61.2 64.8796 60.886 64.6061 60.3298 64.6061C59.7711 64.6061 59.4479 64.8796 59.4479 65.7711V68.5805H58.0967V63.4412H59.4479V63.7845C59.6827 63.5398 60.1139 63.3341 60.6521 63.3341C61.9628 63.3341 62.5514 64.2343 62.5514 65.6832V68.5805H61.2V68.5802Z" fill="#406859"/>
<path d="M66.6325 65.0467C66.4262 64.7627 66.1126 64.6056 65.7219 64.6056C65.2034 64.6056 64.9188 65.0554 64.9188 65.9175C64.9188 66.9739 65.2715 67.415 65.7989 67.415C66.2193 67.415 66.4355 67.2393 66.6322 66.9838V65.0467H66.6325ZM65.7704 70.47L65.2907 69.4517C66.3477 69.3041 66.6325 69.0499 66.6325 68.2564C66.3783 68.4825 66.0346 68.6876 65.5449 68.6876C64.448 68.6876 63.5479 67.866 63.5479 65.9472C63.5479 64.4104 64.2723 63.3339 65.5449 63.3339C65.9959 63.3339 66.3867 63.5108 66.6325 63.7345V63.4409H67.9825V67.7092C67.9825 69.4025 67.572 70.2733 65.7704 70.47Z" fill="#406859"/>
<path d="M74.1188 68.6873C73.3065 68.6873 72.5131 68.4531 71.9658 68.0911L72.4162 67.0632C72.9638 67.3661 73.5413 67.5328 74.1971 67.5328C74.7261 67.5328 74.8829 67.4056 74.8829 67.1421C74.8829 66.9061 74.6967 66.7888 74.1284 66.6221C72.8951 66.2509 72.102 65.9468 72.102 64.8598C72.102 63.7938 72.9536 63.3335 74.1575 63.3335C74.804 63.3335 75.5087 63.529 76.0568 63.8319L75.6262 64.8991C75.1174 64.6244 74.5578 64.4886 74.1281 64.4886C73.58 64.4886 73.4324 64.5956 73.4324 64.8211C73.4324 65.0367 73.5899 65.1252 74.4997 65.4173C75.4208 65.7213 76.2134 66.0539 76.2134 67.0824C76.2137 68.268 75.2736 68.6873 74.1188 68.6873Z" fill="#406859"/>
<path d="M79.3646 64.5075C78.8746 64.5075 78.5716 64.9099 78.5226 65.4287H80.2846C80.2456 64.969 79.9716 64.5075 79.3646 64.5075ZM81.5766 66.4458H78.5026C78.5526 67.1511 79.0706 67.4149 79.5596 67.4149C79.9316 67.4149 80.2456 67.2779 80.4406 67.053L81.4006 67.856C80.9906 68.3844 80.2456 68.687 79.5596 68.687C78.0826 68.687 77.1426 67.6398 77.1426 66.0164C77.1426 64.4391 78.1316 63.3335 79.4336 63.3335C80.8036 63.3335 81.5956 64.5471 81.5956 66.0164C81.5956 66.211 81.5866 66.3492 81.5766 66.4458Z" fill="#406859"/>
<path d="M84.6331 64.5075C84.1431 64.5075 83.8401 64.9099 83.7901 65.4287H85.5531C85.5131 64.969 85.2391 64.5075 84.6331 64.5075ZM86.8441 66.4458H83.7721C83.8201 67.1511 84.3391 67.4149 84.8281 67.4149C85.2011 67.4149 85.5141 67.2779 85.7101 67.053L86.6691 67.856C86.2581 68.3844 85.5131 68.687 84.8281 68.687C83.3511 68.687 82.4111 67.6398 82.4111 66.0164C82.4111 64.4391 83.4001 63.3335 84.7021 63.3335C86.0721 63.3335 86.8651 64.5471 86.8651 66.0164C86.8651 66.211 86.8551 66.3492 86.8441 66.4458Z" fill="#406859"/>
<path d="M90.7588 65.0465C90.5528 64.7625 90.2398 64.6054 89.8488 64.6054C89.3298 64.6054 89.0458 65.0552 89.0458 65.9173C89.0458 66.9737 89.3978 67.4148 89.9268 67.4148C90.3478 67.4148 90.5628 67.2391 90.7588 66.9836V65.0465ZM90.7588 68.5801V68.2562C90.5038 68.4823 90.1618 68.6874 89.6728 68.6874C88.5758 68.6874 87.6748 67.8658 87.6748 65.947C87.6748 64.4102 88.3998 63.3337 89.6728 63.3337C90.1218 63.3337 90.5138 63.5106 90.7588 63.7343V62.1183L92.1098 61.4443V68.5801H90.7588Z" fill="#406859"/>
<path d="M95.4089 68.6873C94.5969 68.6873 93.8039 68.4531 93.2559 68.0911L93.7059 67.0632C94.2539 67.3661 94.8309 67.5328 95.4879 67.5328C96.0149 67.5328 96.1729 67.4056 96.1729 67.1421C96.1729 66.9061 95.9869 66.7888 95.4179 66.6221C94.1859 66.2509 93.3929 65.9468 93.3929 64.8598C93.3929 63.7938 94.2439 63.3335 95.4479 63.3335C96.0949 63.3335 96.7989 63.529 97.3479 63.8319L96.9169 64.8991C96.4089 64.6244 95.8499 64.4886 95.4189 64.4886C94.8719 64.4886 94.7239 64.5956 94.7239 64.8211C94.7239 65.0367 94.8799 65.1252 95.7909 65.4173C96.7109 65.7213 97.5049 66.0539 97.5049 67.0824C97.5049 68.268 96.5649 68.6873 95.4089 68.6873Z" fill="#406859"/>
<path d="M104.364 66.4264C104.129 66.2801 103.904 66.2108 103.424 66.2108C102.915 66.2108 102.641 66.4456 102.641 66.8567C102.641 67.2193 102.846 67.5425 103.424 67.5425C103.865 67.5425 104.218 67.3164 104.364 67.0723V66.4264ZM104.364 68.58V68.2373C104.119 68.4916 103.688 68.6871 103.208 68.6871C102.25 68.6871 101.289 68.1003 101.289 66.8567C101.289 65.7212 102.21 65.1541 103.376 65.1541C103.844 65.1541 104.148 65.2513 104.364 65.3592V65.1049C104.364 64.7424 104.119 64.4494 103.629 64.4494C103.013 64.4494 102.691 64.5373 102.221 64.7916L101.702 63.8515C102.299 63.51 102.797 63.3331 103.63 63.3331C104.873 63.3331 105.715 63.9784 105.715 65.1334V68.5794H104.364V68.58Z" fill="#406859"/>
<path d="M110.08 68.5802V65.7996C110.08 64.8796 109.767 64.6061 109.209 64.6061C108.65 64.6061 108.328 64.8796 108.328 65.7711V68.5805H106.978V63.4412H108.328V63.7845C108.563 63.5398 108.993 63.3341 109.531 63.3341C110.844 63.3341 111.431 64.2343 111.431 65.6832V68.5805H110.08V68.5802Z" fill="#406859"/>
<path d="M115.512 65.0465C115.307 64.7625 114.993 64.6054 114.601 64.6054C114.082 64.6054 113.799 65.0552 113.799 65.9173C113.799 66.9737 114.151 67.4148 114.68 67.4148C115.101 67.4148 115.316 67.2391 115.512 66.9836V65.0465ZM115.512 68.5801V68.2562C115.258 68.4823 114.916 68.6874 114.426 68.6874C113.329 68.6874 112.429 67.8658 112.429 65.947C112.429 64.4102 113.154 63.3337 114.426 63.3337C114.876 63.3337 115.268 63.5106 115.512 63.7343V62.1183L116.863 61.4443V68.5801H115.512Z" fill="#406859"/>
<path d="M123.902 68.3744C123.677 68.5513 123.275 68.6871 122.855 68.6871C122.021 68.6871 121.484 68.0418 121.484 67.1422V64.7134H120.622V63.4407H121.484V62.1183L122.834 61.4443V63.4407H124.067V64.7134H122.834V66.7791C122.834 67.2688 123.011 67.3959 123.333 67.3959C123.578 67.3959 123.764 67.2889 124.098 67.004L123.902 68.3744Z" fill="#406859"/>
<path d="M128.366 65.0176C128.151 64.8215 127.886 64.6851 127.583 64.6851C127.054 64.6851 126.712 64.91 126.712 65.7996V68.5803H125.361V63.4409H126.712V63.7843C126.947 63.5396 127.289 63.3339 127.768 63.3339C128.209 63.3339 128.542 63.5108 128.718 63.6958L128.366 65.0176Z" fill="#406859"/>
<path d="M132.604 68.5802V68.2375C132.369 68.4822 131.938 68.6873 131.399 68.6873C130.087 68.6873 129.5 67.7871 129.5 66.3381V63.4409H130.851V66.2215C130.851 67.1421 131.165 67.4149 131.722 67.4149C132.279 67.4149 132.603 67.1421 132.603 66.2506V63.4406H133.954V68.5799H132.604V68.5802Z" fill="#406859"/>
<path d="M137.232 68.6873C136.421 68.6873 135.627 68.4531 135.078 68.0911L135.53 67.0632C136.077 67.3661 136.655 67.5328 137.311 67.5328C137.839 67.5328 137.996 67.4056 137.996 67.1421C137.996 66.9061 137.809 66.7888 137.243 66.6221C136.009 66.2509 135.216 65.9468 135.216 64.8598C135.216 63.7938 136.067 63.3335 137.271 63.3335C137.918 63.3335 138.623 63.529 139.171 63.8319L138.74 64.8991C138.231 64.6244 137.673 64.4886 137.243 64.4886C136.694 64.4886 136.547 64.5956 136.547 64.8211C136.547 65.0367 136.704 65.1252 137.614 65.4173C138.534 65.7213 139.327 66.0539 139.327 67.0824C139.327 68.268 138.388 68.6873 137.232 68.6873Z" fill="#406859"/>
<path d="M143.388 68.3744C143.164 68.5513 142.762 68.6871 142.342 68.6871C141.51 68.6871 140.971 68.0418 140.971 67.1422V64.7134H140.11V63.4407H140.971V62.1183L142.322 61.4443V63.4407H143.555V64.7134H142.322V66.7791C142.322 67.2688 142.498 67.3959 142.821 67.3959C143.066 67.3959 143.253 67.2889 143.585 67.004L143.388 68.3744Z" fill="#406859"/>
</svg>
