<svg width="118" height="74" viewBox="0 0 118 74" fill="none" xmlns="http://www.w3.org/2000/svg">
<path d="M70.9316 55.2431C71.919 56.0656 73.5648 56.3946 75.8688 56.3946H78.1729V72.6877H84.0975V56.3946H92.1617C94.6303 59.0277 97.7572 62.3199 99.8967 64.6228V72.6877H105.821V64.6228C110.1 60.1803 118 51.9509 118 51.9509H114.873C112.569 51.9509 110.923 52.2799 109.936 53.1035C109.936 53.1035 105.986 57.2171 103.024 60.1803C100.061 57.0526 96.1115 53.1035 96.1115 53.1035C95.124 52.2799 93.6429 51.9509 91.1743 51.9509H69.6149C69.6149 51.9509 69.6149 54.0905 70.9316 55.2431ZM99.2384 47.8373H99.5675C99.5675 47.8373 99.403 47.8373 99.2384 47.8373ZM52.0055 62.3199C52.0055 60.3448 52.6638 58.6987 53.8158 57.5472C55.1324 56.3946 56.7782 55.7366 58.9176 55.7366C61.0571 55.7366 62.7029 56.3946 64.0194 57.5472C65.3361 58.6987 65.8298 60.3448 65.8298 62.3199C65.8298 64.2939 65.1715 65.7755 64.0194 67.0926C62.7029 68.244 61.0571 68.902 58.9176 68.902C56.7782 68.902 55.1324 68.244 53.8158 67.0926C52.6638 65.9399 52.0055 64.2939 52.0055 62.3199ZM46.5746 62.3199C46.5746 65.611 47.7266 68.4086 49.866 70.3837C52.1701 72.3587 55.1324 73.3457 58.9176 73.3457C62.7029 73.3457 65.6652 72.3587 67.9692 70.3837C70.1087 68.4086 71.2607 65.611 71.2607 62.3199C71.2607 59.0277 70.1087 56.2301 67.9692 54.255C65.6652 52.2799 62.7029 51.2929 58.9176 51.2929C55.1324 51.2929 52.1701 52.2799 49.866 54.255C47.7266 56.3946 46.5746 59.0277 46.5746 62.3199ZM55.7907 47.8373H66.9817V26.936H61.0571V43.2291H56.2844C54.8033 43.2291 53.6512 42.899 53.1575 42.4055C52.6638 41.912 52.3347 41.0896 52.3347 39.6079V26.7715H46.5746V39.9369C46.5746 42.57 47.3974 44.5451 48.8786 45.8622C50.1952 47.3427 52.6638 47.8373 55.7907 47.8373ZM7.57043 72.6877C7.40585 72.6877 7.40585 72.6877 7.24128 72.6877H7.57043ZM11.8493 47.8373H23.0404V38.4565L22.8759 38.292C21.0655 36.8104 19.2552 35.9879 16.7866 35.8234V43.3936H13.166C10.6973 43.3936 9.05159 42.899 8.06415 42.0765C7.0767 41.0895 6.4184 39.6079 6.4184 37.3039C6.4184 35.1643 6.91213 33.6838 7.89957 32.8602C8.88702 32.0377 10.5328 31.5442 12.6723 31.5442H19.749H22.8759V27.1005H11.191C7.735 27.1005 4.93724 28.0875 2.96234 29.8981C0.987451 31.7087 0 34.3418 0 37.7973C0 40.596 0.822872 42.899 2.46861 44.7096C3.45606 45.8622 4.77266 46.6847 6.25383 47.1782C7.89957 47.6717 9.7099 47.8373 11.8493 47.8373ZM9.54532 68.244H7.57043C6.25384 68.244 5.26639 67.5861 5.26639 66.4335C5.26639 65.282 6.25384 64.6228 7.57043 64.6228H10.039H16.9511V68.4086H9.54532V68.244ZM7.735 72.6877H23.205V59.6857C23.205 54.4195 20.0781 51.9509 13.9888 51.9509H2.30405V56.3946H11.6847C13.6597 56.3946 14.9763 56.3946 15.7991 56.8881C16.622 57.3816 17.1158 58.6987 17.1158 60.0158H9.38075H7.735C3.78521 60.0158 0.493728 62.6489 0.493728 66.4335C0.329154 70.0547 3.62065 72.6877 7.735 72.6877ZM25.1799 56.3946H38.0166L27.1547 68.244C24.6861 70.8771 24.8507 72.6877 24.8507 72.6877H47.562C47.562 72.6877 47.562 70.3837 46.2455 69.231C45.2579 68.4086 43.6123 68.0796 41.3082 68.0796H34.396L45.0934 56.2301C47.8911 53.4325 47.562 51.7864 47.562 51.7864H33.5732H31.2691C28.9651 51.7864 27.3193 52.1154 26.3319 52.939C25.1799 54.255 25.1799 56.3946 25.1799 56.3946ZM43.283 28.252C42.2956 27.4295 40.6498 27.1005 38.3459 27.1005H25.8382V48.0018H31.7629V31.7087H44.5997C44.5997 31.5442 44.5997 29.4046 43.283 28.252ZM76.5271 4.05957C74.0585 1.26198 70.9316 4.38967 70.767 4.71867C70.767 4.71867 69.2858 3.73056 69.1212 3.73056C65.1715 0.768477 58.4239 -0.383011 48.8786 0.110483L43.7768 0.439487C43.7768 0.439487 44.9288 0.603975 46.2455 0.768473C59.9051 1.92108 63.032 7.18725 65.5006 8.99673C65.5006 13.1114 53.9803 20.1882 41.4728 22.8213C62.7029 20.3527 75.2105 12.4534 76.5271 4.05957ZM85.4142 27.1005C85.5787 27.1005 85.5786 27.1005 85.7433 27.1005H85.4142ZM87.5535 33.3548C87.5535 34.5063 86.5661 35.1643 85.2495 35.1643H82.781H75.8688V31.3797H83.2747H85.4142C86.7307 31.5442 87.5535 32.2022 87.5535 33.3548ZM92.6554 33.3548C92.6554 29.7336 89.3639 26.936 85.4142 26.936H85.2495H69.7796V40.2659C69.7796 44.5451 71.7544 47.0137 75.8688 47.8373C75.8688 47.8373 75.8688 39.7724 75.8688 39.6079H83.6038H85.2495C89.3639 39.7724 92.6554 36.9749 92.6554 33.3548ZM101.707 43.3936H99.7321C98.4155 43.3936 97.428 42.7345 97.428 41.583C97.428 40.4304 98.4155 39.7725 99.7321 39.7725H102.201H109.113V43.5581H101.707V43.3936ZM99.7321 47.8373H115.202V34.8353C115.202 29.5691 112.075 27.1005 105.986 27.1005H94.3011V31.5442H103.682C105.657 31.5442 106.973 31.5442 107.796 32.0377C108.619 32.5312 109.113 33.8483 109.113 35.1643H101.378H99.7321C95.7823 35.1643 92.4908 37.7974 92.4908 41.583C92.3262 45.2031 95.6177 47.8373 99.7321 47.8373Z" fill="#003665"/>
</svg>
