<svg width="206" height="41" viewBox="0 0 206 41" fill="none" xmlns="http://www.w3.org/2000/svg">
<path d="M175.772 14.6199V29.5743H179.162V24.0995H183.139L187.224 29.5743H191.32L187.073 23.8835C189.647 23.2546 190.613 21.2128 190.613 19.4159C190.613 16.4103 188.649 14.6199 185.355 14.6199H175.772ZM179.162 17.6763H185.355C186.542 17.6763 187.224 18.287 187.224 19.3415C187.224 20.8207 186.052 21.044 185.355 21.044H179.162V17.6763Z" fill="#2F7D3F"/>
<path d="M74.7555 14.2642C69.3114 14.2642 66.0576 17.228 66.0576 22.2019C66.0576 25.6522 68.2006 29.666 74.1681 29.9137C74.3606 29.9219 74.5553 29.9237 74.7555 29.9237C81.1736 29.9237 83.4533 25.7638 83.4533 22.2019C83.4533 17.2289 80.198 14.2642 74.7555 14.2642ZM74.7555 17.3206C78.1297 17.3206 80.0582 19.0421 80.0582 22.0468C80.0582 26.2421 76.7394 26.8691 74.7555 26.8691C72.772 26.8691 69.4419 26.2421 69.4419 22.0468C69.4419 21.1075 69.6336 20.2962 69.9971 19.621C70.0335 19.5539 70.0702 19.4867 70.1102 19.4214C70.9457 18.0629 72.5401 17.3206 74.7555 17.3206Z" fill="#2F7D3F"/>
<path d="M192.505 14.6199H206V17.6763H195.895V20.5639H203.714V23.6249H195.895V26.5134H206V29.5743H192.505V14.6199Z" fill="#2F7D3F"/>
<path d="M160.388 14.6199H173.882V17.6763H163.778V20.5639H171.592V23.6249H163.778V26.5134H173.882V29.5743H160.388V14.6199Z" fill="#2F7D3F"/>
<path d="M145.002 14.6199H158.491V17.6763H148.386V20.5639H156.2V23.6249H148.386V26.5134H158.491V29.5743H145.002V14.6199Z" fill="#2F7D3F"/>
<path d="M102.708 14.6199H106.066L114.904 24.7075V14.6199H118.293V29.5743H114.904L106.098 19.3733V29.5743H102.708V14.6199Z" fill="#2F7D3F"/>
<path d="M84.9092 14.6199H88.2989V20.5639H97.1159V14.6199H100.5V29.5743H97.1159V23.6249H88.2993V29.5743H84.9095V14.6199H84.9092Z" fill="#2F7D3F"/>
<path d="M125.074 10.8965V29.5744H133.265C140.922 29.5744 143.633 24.615 143.633 20.3707C143.633 14.4421 139.756 10.8965 133.265 10.8965H125.074ZM128.469 13.9793L133.265 13.9847C137.69 13.9847 140.223 16.2371 140.223 20.171C140.223 25.6695 135.864 26.4926 133.265 26.4926H128.469V13.9793Z" fill="#2F7D3F"/>
<path d="M61.2137 10.9083H64.6034V22.5586C64.5543 27.724 62.1065 29.9255 56.412 29.9255C53.6453 29.9255 51.7129 29.4836 51.7129 29.4836V26.0233C51.7129 26.0233 53.6344 26.7185 55.7925 26.7185C58.0823 26.7185 59.521 26.3999 60.3189 25.5759C60.9787 24.8981 61.2458 23.7601 61.2137 22.0839C61.2137 22.0758 61.2137 10.9083 61.2137 10.9083Z" fill="#2F7D3F"/>
<path d="M41.7223 4.41164C36.1307 1.66922 29.9375 0.192747 23.7172 0.0176019C17.4577 -0.15845 11.1615 0.986802 5.38917 3.4234C4.69498 3.71652 4.00813 4.02869 3.33058 4.35811C3.22604 4.40893 3.1788 4.41255 3.13312 4.52326C3.0975 4.60947 3.06226 4.6966 3.02742 4.78281C2.95773 4.95614 2.88881 5.12946 2.82144 5.3037C2.67509 5.68122 2.53377 6.06146 2.39827 6.44351C1.87364 7.9209 1.43266 9.42823 1.07839 10.9564C0.352051 14.0863 -0.0072456 17.2988 0.000110694 20.5123C0.00785416 23.7211 0.381477 26.9273 1.12059 30.0499C1.48143 31.5745 1.92862 33.0791 2.45905 34.5538C2.58527 34.905 2.71652 35.2553 2.85242 35.6028C2.92017 35.7771 2.98947 35.9504 3.05917 36.1237C3.0944 36.2099 3.12964 36.2962 3.16525 36.3824C3.27289 36.4359 3.3813 36.4876 3.48932 36.5403C4.1692 36.8679 4.85798 37.1773 5.55411 37.4677C11.3412 39.8807 17.6467 40.9996 23.9104 40.7973C27.072 40.6938 30.2233 40.2564 33.2916 39.486C34.7873 39.1103 36.2631 38.6565 37.7104 38.1238C38.4247 37.8606 39.1321 37.5793 39.8317 37.2781C40.1655 37.1356 40.4969 36.9877 40.8264 36.8352C40.9906 36.759 41.1547 36.6818 41.3181 36.6047C41.3994 36.5657 41.4811 36.5257 41.5624 36.4867C41.7091 36.415 41.7339 36.386 41.7959 36.2354C44.2188 30.314 45.2448 23.8591 44.7999 17.4785C44.4867 12.9937 43.4437 8.56611 41.7223 4.41164Z" fill="url(#paint0_radial_25_633)"/>
<path d="M40.7395 6.0087C40.6102 5.87893 40.4809 5.74916 40.3519 5.61938C42.7211 11.5988 43.6139 18.1254 42.9638 24.5223C42.6429 27.6804 41.9455 30.7994 40.889 33.7923C40.7639 34.1462 40.6342 34.4983 40.4995 34.8486C40.4658 34.9366 40.4317 35.0237 40.3976 35.1108C40.3531 35.2243 40.3054 35.2261 40.1986 35.276C40.0058 35.3649 39.8122 35.4539 39.6182 35.541C38.9205 35.8523 38.214 36.1436 37.4997 36.4149C36.0509 36.9648 34.571 37.4331 33.0696 37.8179C26.8826 39.4051 20.342 39.5775 14.0791 38.3243C10.785 37.6654 7.56765 36.6127 4.53027 35.1744C4.6379 35.2851 4.7347 35.4167 4.87485 35.4829C5.23221 35.6508 5.5919 35.8132 5.95391 35.9721C6.6574 36.2788 7.36941 36.5674 8.08879 36.8351C9.55349 37.3823 11.0476 37.8496 12.5625 38.2353C15.6681 39.0248 18.8635 39.4713 22.0681 39.5339C28.3604 39.6573 34.7012 38.3751 40.4221 35.7425C40.6226 35.6508 40.7388 35.6245 40.8204 35.4148C40.8886 35.2397 40.9556 35.0646 41.0214 34.8885C41.1638 34.5074 41.3009 34.1235 41.4317 33.7387C41.6846 32.9937 41.9153 32.2423 42.124 31.4845C42.5453 29.9527 42.8755 28.3964 43.1118 26.8264C43.5961 23.6076 43.6882 20.3315 43.3897 17.0909C43.0385 13.2949 42.1442 9.55333 40.7395 6.0087Z" fill="url(#paint1_linear_25_633)"/>
<path d="M1.72852 19.4305C1.87797 16.0528 2.31586 12.7323 3.23811 9.47356C3.46383 8.67678 3.71433 7.88637 3.98923 7.10412C4.11622 6.74385 4.29819 6.37541 4.37756 6.00334C4.44416 5.69117 4.7357 5.50695 5.01794 5.40894C5.76674 5.15031 6.48649 4.77369 7.22715 4.48693C7.97943 4.19563 8.74062 3.92701 9.50915 3.68108C15.8019 1.66374 22.5635 1.15827 29.0904 2.18101C32.3888 2.69737 35.6302 3.59759 38.7117 4.8835C39.0811 5.03777 39.4477 5.19839 39.8116 5.36446C40.1152 5.50331 40.3936 5.59315 40.5101 5.94525C40.763 6.70936 41.0479 7.4662 41.2918 8.23575C41.791 9.80751 42.1943 11.4101 42.4971 13.0309C43.7469 19.7191 43.2683 26.7158 41.1122 33.1698C40.9848 33.551 40.852 33.9303 40.7134 34.3069C40.6012 34.6127 40.5438 35.0229 40.2716 35.2316C40.0253 35.4204 39.6855 35.5175 39.4036 35.6409C39.0191 35.8106 38.632 35.9721 38.2425 36.13C36.7445 36.7326 35.2109 37.2463 33.6529 37.6691C30.5361 38.5158 27.3223 39.0022 24.0952 39.1266C20.7093 39.2563 17.3037 38.9868 13.9833 38.3107C12.3177 37.9713 10.6792 37.5312 9.06545 36.9985C8.27291 36.7372 7.48889 36.4504 6.71492 36.1382C6.34362 35.9885 5.97426 35.8333 5.60761 35.6727C5.42409 35.591 5.24173 35.5093 5.05937 35.4258C4.88049 35.3442 4.54946 35.2625 4.479 35.0764C3.53778 32.57 2.78666 30.0118 2.32554 27.3728C1.86596 24.7375 1.72852 22.0994 1.72852 19.4305ZM2.15441 19.4432C2.00109 22.7428 2.408 26.1223 3.14557 29.3348C3.5161 30.9492 3.98574 32.5427 4.55798 34.0973C4.62961 34.2915 4.70394 34.4857 4.77673 34.6799C4.82242 34.8006 4.81971 34.8596 4.93973 34.9185C5.02995 34.9621 5.12093 35.0057 5.21192 35.0483C5.60684 35.2334 6.00717 35.405 6.40983 35.5728C7.18379 35.8941 7.96588 36.1927 8.75765 36.4667C15.0945 38.661 21.9537 39.2808 28.5868 38.3125C31.8134 37.8416 35.0142 37.0112 38.0353 35.777C38.4004 35.6282 38.7659 35.4785 39.1279 35.3224C39.3087 35.2434 39.4892 35.1636 39.6681 35.0801C39.7575 35.0383 39.8465 34.9966 39.9351 34.953C40.0668 34.8895 40.08 34.7643 40.1311 34.6327C40.4339 33.8541 40.7088 33.0673 40.9592 32.2705C41.4657 30.6588 41.8699 29.0072 42.1579 27.3429C43.3025 20.7327 42.8022 13.8867 40.6266 7.53517C40.4973 7.15765 40.3615 6.78287 40.2197 6.40989C40.1589 6.24927 40.1167 5.98155 39.9669 5.89443C39.7819 5.78735 39.5844 5.70477 39.3881 5.62037C38.6462 5.30366 37.9072 4.98695 37.1514 4.70563C35.6271 4.13664 34.0692 3.6584 32.4883 3.27272C29.3162 2.49863 26.0698 2.11022 22.8063 2.0712C19.4367 2.03036 16.0536 2.41877 12.7742 3.19195C11.1554 3.5749 9.55906 4.05225 7.9988 4.62669C7.22368 4.91255 6.45746 5.222 5.70092 5.55323C5.43454 5.67029 5.04698 5.75559 4.85998 5.99426C4.76706 6.11314 4.74305 6.2529 4.69117 6.38993C4.60986 6.60591 4.5301 6.82189 4.45229 7.03878C3.75343 8.99168 3.20984 10.999 2.82538 13.0373C2.63644 14.0409 2.48583 15.0501 2.37433 16.0646C2.31702 16.5882 2.26979 17.1128 2.2334 17.6382C2.20009 18.1146 2.21713 18.6083 2.15441 19.082" fill="url(#paint2_linear_25_633)"/>
<path d="M40.1624 33.433C42.3352 27.2557 42.9109 20.5422 41.8628 14.079C41.6026 12.4764 41.2425 10.8901 40.7861 9.33107C40.5569 8.54882 40.3033 7.77383 40.0264 7.00791C39.9598 6.82369 39.8917 6.63947 39.8224 6.45616C39.7876 6.3645 39.7524 6.27194 39.7171 6.18119C39.6311 6.14126 39.5448 6.10224 39.4589 6.06322C39.0845 5.89352 38.7073 5.73017 38.3279 5.57227C35.3753 4.34716 32.2749 3.48142 29.1194 2.97504C22.7426 1.95049 16.1425 2.41512 9.97867 4.34988C8.46019 4.8254 6.96919 5.39077 5.51806 6.04598C5.43134 6.085 5.34499 6.12402 5.25865 6.16395C5.14366 6.21659 5.1456 6.27193 5.10224 6.38718C5.03254 6.56959 4.9644 6.7529 4.89742 6.93712C4.75262 7.33551 4.61401 7.73571 4.48198 8.13772C4.22877 8.90909 3.99956 9.68863 3.79475 10.4745C2.97472 13.6208 2.55154 16.8677 2.52792 20.1184C2.50392 23.3699 2.87793 26.6232 3.65072 29.7822C4.03673 31.3603 4.52147 32.9148 5.09952 34.4339C5.14288 34.5483 5.14095 34.6036 5.25594 34.6563C5.34229 34.6962 5.42862 34.7361 5.51535 34.7752C5.6888 34.8532 5.86265 34.9303 6.03726 35.0057C6.4163 35.1699 6.79767 35.3287 7.18136 35.4812C7.92241 35.7752 8.67198 36.0465 9.42928 36.2961C15.559 38.3143 22.1483 38.8688 28.532 37.9359C31.1273 37.5566 33.688 36.9341 36.1652 36.0719C37.3689 35.6527 38.5165 35.1209 39.6974 34.649C39.7946 34.61 39.8886 34.6 39.9366 34.5065C40.0117 34.3586 40.0872 34.2116 40.1624 34.0637C40.2642 33.864 40.1899 33.6535 40.1624 33.433ZM4.85483 5.92346C10.6051 3.23458 16.9885 1.93596 23.33 2.06664C26.5241 2.13198 29.7118 2.55851 32.8099 3.34076C34.3291 3.72372 35.8271 4.19198 37.2934 4.74645C38.0185 5.02051 38.7353 5.31636 39.443 5.63125C39.6122 5.70658 39.7806 5.78371 39.9487 5.86175C40.1038 5.93344 40.1461 6.19298 40.2053 6.34998C40.3528 6.74019 40.4945 7.13223 40.6296 7.5279C42.7393 13.6852 43.2988 20.347 42.2643 26.7729C42.008 28.3656 41.6541 29.941 41.205 31.49C40.9878 32.2396 40.7531 32.9856 40.4864 33.7188C40.4106 33.9267 40.33 34.1336 40.2506 34.3405C40.1817 34.5192 40.1174 34.8831 39.9381 34.9657C37.0851 36.2861 34.0748 37.2644 30.9964 37.8969C24.7021 39.1919 18.1244 39.0349 11.9022 37.4268C10.3821 37.0339 8.88454 36.5547 7.41947 35.9903C6.69468 35.7108 5.97763 35.4104 5.27027 35.0901C5.11695 35.0202 4.87574 34.9657 4.81379 34.806C4.7441 34.6272 4.67635 34.4475 4.60936 34.267C4.46456 33.8776 4.32596 33.4856 4.19316 33.0909C3.16753 30.039 2.51591 26.8637 2.25651 23.6548C1.77022 17.6418 2.65646 11.5417 4.85483 5.92346Z" fill="url(#paint3_linear_25_633)"/>
<path d="M2.92283 20.6701C2.92283 17.4177 3.32085 14.1671 4.11765 11.0136C4.31666 10.2268 4.53967 9.44636 4.78707 8.67318C4.90593 8.30112 5.03022 7.93085 5.16031 7.56241C5.22536 7.37819 5.29195 7.19398 5.3597 7.01067C5.42475 6.83462 5.48089 6.50066 5.65395 6.4208C7.09927 5.75652 8.58524 5.18026 10.0995 4.69385C16.2575 2.71372 22.8646 2.20553 29.2557 3.19196C32.8692 3.74916 36.4149 4.77644 39.7512 6.2747C39.6861 6.10953 39.4445 6.05689 39.285 5.98611C39.1119 5.90806 38.9381 5.83274 38.7638 5.75742C38.3856 5.59498 38.0046 5.4389 37.6213 5.28825C36.8811 4.99786 36.1327 4.73015 35.3765 4.48422C33.8542 3.98873 32.3027 3.5831 30.7328 3.26729C27.5653 2.63115 24.3242 2.3598 21.0952 2.46597C17.8712 2.57124 14.6588 3.0504 11.5452 3.89255C10.0038 4.30908 8.48652 4.81636 7.00519 5.41167C6.6517 5.55415 6.30015 5.70207 5.95092 5.85453C5.77669 5.93076 5.60324 6.00789 5.42978 6.08593C5.34305 6.12586 5.2571 6.16489 5.17076 6.20572C5.12353 6.32733 5.07707 6.44893 5.03138 6.57144C4.74526 7.33373 4.48275 8.10418 4.24426 8.8828C2.33897 15.1045 2.01259 21.7909 3.29026 28.1705C3.51947 29.3148 3.79978 30.4492 4.13004 31.5681C4.29575 32.129 4.47385 32.6871 4.66434 33.2397C4.75997 33.5174 4.85832 33.7933 4.95976 34.0692C5.01628 34.2216 5.07358 34.3741 5.13204 34.5274C5.19089 34.6799 5.3841 34.718 5.52928 34.7833C3.80714 30.2858 2.92283 25.4862 2.92283 20.6701Z" fill="url(#paint4_linear_25_633)"/>
<path d="M31.4023 21.318C31.493 21.3371 31.7125 21.4314 31.7961 21.397C31.9359 21.3398 32.0756 21.2826 32.2155 21.2255C32.5476 21.0893 32.8798 20.9541 33.212 20.818C33.097 20.7563 33.0021 20.6628 32.8783 20.7136C32.7001 20.7862 32.5221 20.8588 32.344 20.9323C32.03 21.0612 31.716 21.1891 31.4023 21.318Z" fill="url(#paint5_linear_25_633)"/>
<path d="M31.3896 21.3126C31.9364 21.2926 32.2976 21.9678 32.5562 22.3634C32.9647 22.9878 33.2566 23.6793 33.4924 24.3844C33.729 25.0941 33.9117 25.8182 34.1123 26.5379C34.3024 27.1168 34.5459 27.7466 35.0922 28.0788C35.8035 28.5116 36.5124 28.9364 37.2472 29.3293C37.4245 29.4246 37.6023 29.518 37.7796 29.6124C37.8958 29.7685 38.0088 29.9273 38.1199 30.0879C38.3603 30.4346 38.5895 30.7894 38.813 31.1479C39.2183 31.8004 39.5737 32.4955 40.0105 33.1244C40.122 33.285 40.1859 33.501 40.2141 33.6925C40.2746 34.1045 39.9594 33.5228 39.9005 33.4257C39.2102 32.2913 38.5834 31.0816 37.7865 30.0163C37.6119 29.783 37.4129 29.6914 37.1667 29.5571C36.8651 29.391 36.5608 29.2295 36.2591 29.0634C35.9576 28.8973 35.6583 28.7258 35.3675 28.5398C35.0957 28.3665 34.7573 28.1822 34.5486 27.9336C34.1587 27.469 33.9605 26.8854 33.8014 26.3083C33.6384 25.7166 33.4905 25.1195 33.2973 24.535C32.9101 23.3635 32.3247 22.1602 31.3901 21.3253" fill="url(#paint6_linear_25_633)"/>
<path d="M29.5361 16.2806C29.739 16.4621 29.9446 16.6427 30.1019 16.8668C30.2196 17.0347 30.4394 17.149 30.6005 17.277C30.9955 17.5919 31.3671 17.9358 31.7017 18.3152C32.0729 18.7353 32.3997 19.2 32.637 19.71C32.7586 19.9722 32.8562 20.2445 32.9224 20.5249C32.9684 20.72 33.0381 20.7254 33.2116 20.8171C33.0231 19.513 32.1883 18.3986 31.2378 17.5302C30.7225 17.0601 30.1506 16.6154 29.5361 16.2806Z" fill="#F7F8E8"/>
<path d="M30.1494 16.9394C29.9891 16.6817 29.7596 16.4811 29.5361 16.2815C29.736 16.7534 30.0643 17.1563 30.2981 17.6128C30.5149 18.0357 30.6923 18.4803 30.8081 18.9422C30.8916 19.2753 30.9436 19.6183 30.9513 19.9632C30.9563 20.1828 30.9436 20.406 30.9072 20.6238C30.8947 20.6973 30.8797 20.7717 30.8592 20.8443C30.9366 20.9296 30.9842 21.0249 31.009 21.1356C31.4116 19.6691 30.9567 18.1899 30.1494 16.9394Z" fill="url(#paint7_linear_25_633)"/>
<path d="M13.5068 22.3889C13.8494 22.3589 14.1925 22.3262 14.5351 22.2945C14.4882 22.2473 14.3802 22.0858 14.3132 22.0912C14.1436 22.1066 13.9737 22.123 13.8045 22.1384C13.1629 22.1983 12.5211 22.2527 11.8806 22.3253C10.486 22.4841 9.09375 22.7328 7.7793 23.2392C7.86061 23.2864 7.94191 23.3345 8.02322 23.3816C8.10259 23.4288 8.59314 23.1965 8.69845 23.1648C9.23505 23.0023 9.78172 22.8762 10.3331 22.7754C11.3823 22.5849 12.4455 22.4851 13.5068 22.3889Z" fill="url(#paint8_linear_25_633)"/>
<path d="M9.84261 24.0096C10.1826 24.1485 10.3111 24.5614 10.4954 24.8563C10.7133 25.2048 10.9472 25.5433 11.1965 25.87C11.6468 26.4608 12.1521 27.0316 12.7375 27.4917C13.0438 27.7331 13.3628 27.949 13.7112 28.1251C14.0589 28.2993 14.4294 28.3756 14.7907 28.5117C14.9176 28.5589 15.1028 28.6142 15.1755 28.7395C15.282 28.9237 15.3667 29.1224 15.4643 29.3112C15.661 29.6914 15.848 30.0762 16.0408 30.4573C15.9677 30.4709 15.8016 30.2323 15.7535 30.1851C15.6358 30.0707 15.5596 29.9537 15.4721 29.8185C15.3877 29.6606 15.3076 29.4999 15.222 29.3429C15.146 29.2014 15.0647 28.92 14.9258 28.8366C14.6277 28.6569 14.2552 28.6088 13.9335 28.4845C13.5568 28.3383 13.2037 28.1351 12.8757 27.8991C12.2218 27.429 11.6642 26.8301 11.1756 26.1931C10.9197 25.8591 10.6819 25.5106 10.4602 25.1522C10.3409 24.9607 10.2275 24.7647 10.1198 24.5659C10.0679 24.4707 9.93509 24.0723 9.8418 24.036" fill="url(#paint9_linear_25_633)"/>
<path d="M7.7793 23.2355C7.98412 23.3136 8.0387 23.3898 8.07355 23.5913C8.1173 23.8445 8.16569 23.9706 8.33451 24.1693C8.62256 24.5078 8.90907 24.8509 9.22389 25.1648C9.56574 25.5061 9.9045 25.9308 10.3032 26.2066C10.6162 26.5533 11.0284 26.8083 11.368 27.1259C11.7679 27.3927 12.1346 27.7267 12.523 28.0107C12.9318 28.3102 13.3503 28.597 13.7743 28.8756C14.1952 29.1514 14.6242 29.4164 15.0601 29.6687C15.2366 29.7712 15.4717 29.8602 15.6149 30.0045C15.7036 30.0943 16.0284 30.3475 16.0362 30.4709C15.8635 30.4428 15.6587 30.2858 15.508 30.1996C15.2901 30.0743 15.0694 29.9537 14.8534 29.8248C14.4243 29.5689 14.0039 29.303 13.5838 29.0335C12.7417 28.4926 11.9732 27.8646 11.1714 27.2702C11.0048 27.1441 10.8492 27.0034 10.6901 26.8691C10.5313 26.7357 10.3249 26.5969 10.1983 26.4317C9.81548 26.1468 9.43606 25.762 9.12243 25.4035C8.83744 25.0777 8.53002 24.7737 8.24817 24.4443C8.12388 24.2991 7.9183 24.1249 7.89623 23.9288C7.87416 23.7328 7.83699 23.4914 7.7793 23.3118" fill="url(#paint10_linear_25_633)"/>
<path d="M9.84216 24.0097C11.5392 23.9888 13.1413 24.3736 14.7461 24.8926C16.342 25.4108 17.8838 25.9254 19.5765 25.9698C21.2483 26.0125 22.9062 25.5905 24.5715 25.5025C25.4085 25.4589 26.2398 25.5007 27.076 25.5197C27.2569 25.5243 27.3881 25.5379 27.5089 25.6822C27.6054 25.7965 27.6951 25.9127 27.7947 26.0252C28.0738 26.3401 28.3688 26.6423 28.6731 26.9336C29.2396 27.4563 29.8323 27.9191 30.5363 28.2413C31.2664 28.5743 32.0265 28.8457 32.7834 29.1106C33.596 29.3947 34.4145 29.6624 35.2353 29.9219C35.6322 30.0481 36.0298 30.1715 36.4267 30.2967C36.58 30.3457 36.7391 30.3693 36.8576 30.4855C36.9839 30.6089 37.1008 30.7496 37.2181 30.8811C37.759 31.4892 38.2739 32.1217 38.7525 32.7796C38.9821 33.0954 39.205 33.4166 39.4141 33.747C39.4997 33.8822 40.0197 34.5329 39.8118 34.6291C39.607 34.7234 39.3382 34.0827 39.248 33.9403C39.02 33.5782 38.7776 33.2261 38.5251 32.8812C38.035 32.2115 37.5096 31.5663 36.9556 30.9483C36.8495 30.8303 36.755 30.6906 36.6125 30.6134C36.4731 30.5381 36.3071 30.51 36.1568 30.4637C35.7468 30.3366 35.3364 30.2123 34.9302 30.0744C34.1118 29.8294 33.3022 29.5489 32.4969 29.264C31.7125 28.9872 30.9083 28.7104 30.1661 28.332C29.4881 27.9854 28.8916 27.489 28.3533 26.9544C28.0846 26.6886 27.8183 26.419 27.5673 26.1359C27.466 26.0216 27.3703 25.8265 27.2178 25.7765C27.0548 25.723 26.8406 25.7502 26.6699 25.7411C25.8301 25.7003 24.9861 25.7012 24.1479 25.772C22.4598 25.9136 20.776 26.282 19.0744 26.1876C17.4579 26.0969 15.9375 25.5306 14.4116 25.0333C13.6396 24.7828 12.8622 24.5451 12.0661 24.3826C11.6689 24.301 11.2682 24.2447 10.8647 24.2021C10.6773 24.183 10.4884 24.1775 10.3003 24.1757C10.1004 24.173 10.0121 24.0995 9.8418 24.0224" fill="url(#paint11_linear_25_633)"/>
<path d="M13.288 10.6415C13.6933 10.3901 14.1269 10.1805 14.5598 9.98174C14.3956 9.80568 14.2357 9.88282 14.0499 9.97629C13.801 10.1015 13.5586 10.2395 13.3213 10.3856C12.9077 10.6388 12.5066 10.9156 12.1279 11.2196C12.1884 11.3393 12.5387 11.0644 12.632 11.0117C12.8497 10.8865 13.0676 10.7622 13.288 10.6415Z" fill="#F7F8E8"/>
<path d="M12.1674 11.2622C12.4729 11.1007 12.764 10.911 13.0688 10.7504C13.3641 10.5943 13.7017 10.5172 14.0223 10.4309C14.7166 10.244 15.422 10.0915 16.136 10.0053C16.8615 9.9173 17.6164 9.87738 18.3351 10.0371C18.8566 10.1514 19.6879 10.5408 19.5655 11.2168C19.5117 11.1588 19.4362 11.1624 19.3684 11.1342C19.2798 11.097 19.2933 10.9192 19.2461 10.8384C19.104 10.5979 18.8496 10.4482 18.5953 10.3493C17.9347 10.0943 17.1615 10.1297 16.4697 10.1932C14.9771 10.3302 13.5713 10.7949 12.167 11.2876" fill="url(#paint12_linear_25_633)"/>
<path d="M13.8845 8.87823C14.2457 9.03886 14.598 9.26936 14.8226 9.6015C14.8481 9.63961 14.9283 9.81657 14.9674 9.80477C15.137 9.75305 15.3062 9.70041 15.4769 9.65232C16.0809 9.48262 16.6845 9.39913 17.3086 9.35103C17.2056 9.07334 16.9362 9.15411 16.7015 9.17952C16.4502 9.20765 16.2001 9.24757 15.9531 9.30111C15.6488 9.36826 15.3487 9.45449 15.0506 9.54524C14.9302 9.34559 14.7668 9.17407 14.5833 9.02978C14.138 8.68039 13.5817 8.4862 13.0295 8.3891C12.932 8.37185 12.7798 8.29743 12.755 8.41359C12.747 8.45171 13.0668 8.56969 13.1159 8.59691C13.3816 8.67314 13.6351 8.75663 13.8845 8.87823Z" fill="#F7F8E8"/>
<path d="M14.4219 10.0359C14.4639 10.0097 14.5144 9.9889 14.5633 9.97174C14.5633 9.97987 14.5633 9.98889 14.5633 9.99792C14.5008 10.0015 14.4766 10.034 14.4219 10.0485" fill="url(#paint13_linear_25_633)"/>
<path d="M13.8881 8.87914C13.6387 8.75663 13.3851 8.67406 13.1191 8.59692C13.3851 8.73668 13.6344 8.91635 13.8443 9.13142C13.9771 9.26755 14.0944 9.41819 14.1823 9.58698C14.228 9.6741 14.2655 9.76576 14.2934 9.85923C14.3995 9.87193 14.487 9.90278 14.5606 9.98173C14.432 9.54433 14.2345 9.18315 13.8881 8.87733" fill="url(#paint14_linear_25_633)"/>
<path d="M16.4683 7.19215C17.2453 7.68219 17.8265 8.38639 18.0797 9.27391C18.1188 9.41094 18.861 9.35831 19.026 9.38191C19.3458 9.4291 19.6393 9.54798 19.9359 9.67139C19.9045 9.34107 19.6516 9.29933 19.3643 9.22401C19.0667 9.14596 18.7596 9.126 18.4533 9.11601C18.3511 9.11238 18.2775 9.15231 18.2443 9.04341C18.2237 8.97717 18.2013 8.91183 18.1762 8.84649C18.1258 8.71582 18.067 8.58786 18.0004 8.46535C17.8633 8.21216 17.6933 7.97621 17.5001 7.76204C17.101 7.3201 16.6042 6.96981 16.0664 6.71571C15.9162 6.64493 15.7625 6.58141 15.6064 6.52515C15.5 6.58958 15.6653 6.66853 15.7079 6.70301C15.9487 6.89268 16.2128 7.02063 16.4683 7.19215Z" fill="#F7F8E8"/>
<path d="M17.0759 9.14504C17.1897 9.13869 17.2749 9.25757 17.3098 9.35195C17.2826 8.86281 17.1963 8.40726 16.9748 7.96441C16.8579 7.73118 16.7151 7.51066 16.5552 7.30466C16.3926 7.09503 16.1184 6.98251 15.8857 6.86182C16.4987 7.43444 17.0291 8.29473 17.0759 9.14504Z" fill="url(#paint15_linear_25_633)"/>
<path d="M21.0836 9.18045C21.0836 9.32746 20.9902 9.69953 21.1354 9.77667C21.3363 9.88193 21.3042 9.35741 21.3054 9.27302C21.312 8.88643 21.2806 8.49803 21.2005 8.11961C21.029 7.30922 20.6166 6.57234 19.9828 6.0342C19.821 5.89626 19.6475 5.77285 19.4664 5.66123C19.3212 5.5723 18.9959 5.3908 19.2247 5.67484C19.5144 6.03239 19.9391 6.25926 20.243 6.62043C20.8455 7.33463 21.0836 8.26026 21.0836 9.18045Z" fill="#F7F8E8"/>
<path d="M19.7766 6.16119C19.6477 6.04957 19.5032 5.95338 19.3623 5.85809C19.6949 6.37082 19.9458 6.94889 20.0461 7.55419C20.1054 7.91083 20.1076 8.27473 20.0457 8.63137C20.0128 8.82103 19.9617 9.00888 19.8955 9.19038C19.8645 9.27477 19.796 9.34375 19.8579 9.40999C19.9199 9.47533 19.9284 9.58695 19.9365 9.67134C20.1676 9.1332 20.3295 8.59235 20.3124 7.99976C20.2938 7.35363 20.091 6.72293 19.7766 6.16119Z" fill="url(#paint16_linear_25_633)"/>
<path d="M20.4424 12.1325C20.4424 12.1007 21.6213 11.9038 21.6414 11.9002C22.1215 11.8112 22.602 11.7268 23.0844 11.6497C23.319 11.6116 23.5672 11.6043 23.7782 11.4918C23.9181 11.4183 24.0563 11.3412 24.1933 11.2622C23.3841 11.3629 22.5791 11.5018 21.7769 11.6479C21.3874 11.7196 20.6499 11.7169 20.4424 12.1325Z" fill="#F7F8E8"/>
<path d="M20.4385 12.1143C20.6526 11.6151 20.8175 11.0952 20.9263 10.5634C20.9778 10.3138 21.0165 10.0606 21.0424 9.80653C21.0126 9.75026 21.0719 9.64408 21.1203 9.73755C21.1744 9.84555 21.2492 9.71125 21.2899 9.67041C21.3015 10.1178 21.1741 10.6051 21.0618 11.0353C20.9964 11.2857 20.9185 11.5335 20.828 11.7758C20.718 11.9182 20.5159 11.9682 20.4388 12.1388" fill="url(#paint17_linear_25_633)"/>
<path d="M19.5543 11.0172C19.5494 10.9963 19.5528 11.01 19.5543 11.0172V11.0172Z" fill="#F7F8E8"/>
<path d="M19.5763 11.2214C19.4876 11.0989 19.356 11.1016 19.356 11.2568C19.356 11.4047 19.3246 11.5526 19.2781 11.6924C19.2305 11.8358 19.167 11.9737 19.095 12.1071C19.0206 12.2441 18.8464 12.2396 18.6993 12.2732C18.1181 12.4084 17.5401 12.559 16.9652 12.7178C15.6464 13.0826 14.3378 13.4928 13.0566 13.9738C13.1248 14.0074 13.1937 14.0418 13.2618 14.0754C13.378 14.1317 13.474 14.0591 13.5925 14.0164C13.9436 13.8903 14.2967 13.7687 14.651 13.6525C15.3782 13.413 16.1114 13.1897 16.849 12.9828C17.4859 12.804 18.1259 12.6362 18.7705 12.4864C18.8863 12.4592 19.002 12.4329 19.1178 12.4084C19.2205 12.3848 19.2374 12.3104 19.2874 12.2178C19.4473 11.9238 19.6022 11.5644 19.5763 11.2214Z" fill="#F7F8E8"/>
<path d="M19.5723 11.1061C19.5747 11.1282 19.5766 11.1494 19.579 11.1714C19.5766 11.1503 19.5747 11.1282 19.5723 11.1061Z" fill="#F7F8E8"/>
<path d="M30.8611 20.8426C29.786 20.4542 28.5903 20.328 27.4605 20.2291C26.1263 20.1102 24.7844 20.0857 23.4455 20.1139C22.262 20.1393 20.6359 20.348 19.8248 19.2545C19.4604 18.7626 19.4093 18.1464 19.4344 17.5548C19.4611 16.9204 19.5549 16.2906 19.6748 15.6681C19.8453 14.7869 20.0675 13.9112 20.3412 13.0564C20.3815 13.0291 20.5894 13.0872 20.6359 13.0927C20.8352 13.1172 21.0346 13.1417 21.234 13.1653C21.3916 13.1852 21.5496 13.2043 21.7072 13.2233C21.9015 13.2469 22.1915 12.9828 22.3522 12.8803C23.0363 12.442 23.7077 11.9202 24.1944 11.2614C24.0123 11.3657 23.753 11.451 23.6078 11.598C23.4223 11.7868 23.2237 11.9628 23.0177 12.128C22.7626 12.3331 22.495 12.5228 22.219 12.6988C21.9995 12.8386 21.8144 13.011 21.5519 12.9792C21.1543 12.9302 20.757 12.8821 20.3594 12.8331C20.2332 12.8177 20.1972 12.7759 20.1573 12.9003C20.1171 13.0273 20.0768 13.1544 20.0385 13.2814C19.7047 14.3885 19.4317 15.5238 19.2881 16.6718C19.1282 17.9504 19.1232 19.416 20.4713 20.0422C21.6378 20.5831 23.0692 20.329 24.3086 20.3253C25.5042 20.3226 26.7025 20.3662 27.8918 20.4914C28.9496 20.603 30.0082 20.77 31.011 21.1348C30.9857 21.0241 30.9386 20.9279 30.8611 20.8426Z" fill="url(#paint18_linear_25_633)"/>
<path d="M8.02421 23.3771C9.63295 22.8445 11.2711 22.5904 12.9541 22.4325C13.3188 22.3989 13.6847 22.359 14.0482 22.3227C14.3332 22.2954 14.5199 22.3699 14.5605 22.0232C14.6596 21.1792 14.8098 20.3416 15.0165 19.5167C15.2187 18.7109 15.4734 17.9186 15.7855 17.1491C15.9295 16.7761 16.1007 16.4158 16.2702 16.0546C16.3995 15.7779 16.619 15.3768 16.2299 15.1907C16.0743 15.1154 15.8648 15.1045 15.696 15.07C15.4939 15.0283 15.2919 14.9875 15.0898 14.9466C14.6514 14.8577 14.2136 14.7697 13.7761 14.6771C13.5999 14.6399 13.4942 14.6208 13.421 14.4439C13.3711 14.3232 13.3029 14.1344 13.4377 14.07C13.8036 13.8976 14.2151 13.7878 14.5988 13.6607C15.7285 13.2841 16.8742 12.9511 18.0287 12.6597C18.3242 12.5853 18.62 12.5137 18.9165 12.4456C19.1802 12.3857 19.2774 12.2777 19.373 12.0272C19.5333 11.6053 19.6785 11.1706 19.4435 10.7404C18.9545 9.84565 17.4658 9.90371 16.616 9.96996C16.0167 10.0162 15.4231 10.1143 14.8369 10.2449C14.5473 10.3103 14.2592 10.3829 13.9731 10.4618C13.9039 10.4809 13.2785 10.6279 13.2754 10.6497C13.2843 10.5789 13.5503 10.4891 13.608 10.4509C13.8794 10.3003 14.1857 10.1923 14.4502 10.0435C14.7927 9.85199 14.0088 9.00621 13.8883 8.87916C14.1145 8.96991 14.3367 9.10604 14.5237 9.26303C14.6251 9.34834 14.723 9.4409 14.799 9.54979C14.8624 9.64145 14.8926 9.77304 15.0266 9.77485C15.2396 9.77848 15.5242 9.62875 15.7313 9.57612C16.0461 9.49626 16.3667 9.43545 16.6899 9.39915C16.8603 9.37919 17.3032 9.44997 17.3121 9.19588C17.3183 9.02618 17.254 8.80384 17.2157 8.63868C17.1464 8.34284 17.026 8.06061 16.875 7.79744C16.8459 7.74662 16.4917 7.2212 16.5049 7.21394C16.5424 7.19306 16.8103 7.42356 16.8486 7.45351C17.0016 7.57239 17.1452 7.70216 17.2784 7.84192C17.5251 8.10327 17.7345 8.40001 17.8905 8.72308C17.9641 8.87644 18.0032 9.2585 18.1787 9.32746C18.2936 9.37193 18.4841 9.33018 18.6088 9.33653C18.821 9.34833 19.0335 9.37103 19.2414 9.4164C19.4156 9.45452 19.5794 9.50624 19.7343 9.59154C19.8632 9.66323 19.9999 9.60969 20.0293 9.46177C20.106 9.07699 20.2647 8.72762 20.2941 8.3247C20.3228 7.92268 20.2732 7.52338 20.1675 7.13498C20.1172 6.95076 20.0549 6.77018 19.9801 6.59412C19.9673 6.56509 19.7718 6.18756 19.8106 6.18212C19.867 6.17304 20.0824 6.43259 20.1249 6.47796C20.2562 6.61681 20.3747 6.76836 20.4792 6.92808C20.689 7.24842 20.8439 7.60415 20.9422 7.97441C21.1703 8.8347 21.1153 9.76941 20.928 10.6315C20.8409 11.0308 20.7351 11.4474 20.5713 11.824C20.5416 11.8929 20.463 12.0127 20.4877 12.0908C20.509 12.1579 20.8648 12.0399 20.9164 12.03C21.3925 11.9347 21.8707 11.8475 22.3493 11.7641C22.5885 11.7232 22.8278 11.6833 23.0675 11.6434C23.1596 11.6279 23.5521 11.5018 23.6269 11.5771C23.7187 11.6706 22.0229 12.8285 21.861 12.9229C21.5749 13.0899 21.0929 12.9265 20.7789 12.8902C20.5942 12.8694 20.4099 12.8476 20.2264 12.8195C20.1133 12.9719 20.0816 13.1625 20.0327 13.3404C19.8144 14.1335 19.5941 14.9212 19.4431 15.7307C19.3002 16.4966 19.1635 17.3151 19.2197 18.0965C19.272 18.817 19.574 19.4786 20.1943 19.8779C20.8261 20.2863 21.6206 20.3616 22.3539 20.3589C24.0474 20.3534 25.7242 20.2917 27.4154 20.4396C28.0755 20.4968 28.7345 20.5748 29.3861 20.6964C29.7122 20.7563 30.0358 20.8271 30.356 20.9115C30.531 20.9578 30.7431 21.0812 30.9224 21.0821C31.1253 21.0839 31.1222 20.6529 31.1385 20.5195C31.1768 20.2082 31.1745 19.8933 31.1408 19.5821C31.0703 18.9323 30.8675 18.2998 30.5783 17.7153C30.5356 17.6291 30.143 17.0184 30.181 16.9712C30.2096 16.9358 30.5 17.1845 30.5352 17.2126C31.0595 17.6328 31.5515 18.0892 31.967 18.6192C32.3646 19.1265 32.6942 19.6928 32.8749 20.3153C32.9149 20.4523 33.0198 20.6456 32.8753 20.7164C32.7333 20.7863 32.5857 20.8435 32.4386 20.9006C32.0963 21.034 31.7564 21.1738 31.4196 21.3217C32.4595 22.368 33.0611 23.6494 33.4716 25.0515C33.6694 25.7284 33.8123 26.4272 34.074 27.0833C34.1944 27.3846 34.3462 27.6922 34.5716 27.93C34.8131 28.1841 35.1279 28.3729 35.426 28.5516C36.0881 28.9509 36.763 29.3284 37.4475 29.6878C37.715 29.8276 37.8025 30.0472 37.9736 30.2795C38.2087 30.598 38.4135 30.9419 38.6233 31.2768C39.0379 31.9393 39.4383 32.6108 39.834 33.2842C39.8967 33.3913 39.944 33.511 40.0164 33.6118C40.0825 33.7025 40.1778 33.7924 40.203 33.9067C40.2351 34.0519 40.0144 34.4621 39.8882 34.5401C39.6675 34.2488 39.501 33.9103 39.3013 33.6036C39.0755 33.2579 38.8374 32.9185 38.5904 32.5872C38.1146 31.9493 37.6046 31.3376 37.0749 30.7441C36.8481 30.49 36.6673 30.3721 36.3374 30.2822C35.9413 30.1733 35.5507 30.0381 35.1592 29.9147C34.3458 29.6561 33.5347 29.3893 32.7294 29.107C31.9608 28.8375 31.1815 28.5671 30.4454 28.2168C29.7458 27.8837 29.1399 27.4064 28.5842 26.871C28.3175 26.6132 28.0601 26.3464 27.8126 26.0706C27.681 25.9245 27.5517 25.7756 27.4309 25.6196C27.2873 25.507 27.0922 25.5343 26.9225 25.5315C26.0874 25.5161 25.258 25.4671 24.4218 25.5215C22.748 25.6295 21.0809 26.0388 19.3974 25.9771C17.7229 25.9145 16.1831 25.3709 14.6031 24.8627C13.8136 24.6086 13.0176 24.3699 12.2014 24.2175C11.8065 24.144 11.4077 24.0895 11.0073 24.056C10.8657 24.0451 9.94803 23.9262 9.90429 24.0668C9.8679 24.1848 10.1195 24.526 10.1757 24.6268C10.3708 24.977 10.5807 25.3201 10.8072 25.6513C11.2389 26.2829 11.7314 26.8819 12.2959 27.3991C12.8484 27.9055 13.4965 28.3456 14.2186 28.5662C14.4966 28.6506 14.9039 28.6959 15.0556 28.9754C15.2241 29.2858 15.4123 29.6061 15.5443 29.9337C15.4119 29.9256 15.2884 29.8212 15.1803 29.755C14.9999 29.6452 14.8125 29.5444 14.6313 29.4346C14.2639 29.2132 13.9015 28.9827 13.5441 28.7449C12.8077 28.254 12.0868 27.734 11.4016 27.1732C10.7186 26.616 10.0619 26.0297 9.43821 25.4054C9.14001 25.1068 8.85199 24.7983 8.57438 24.4807C8.42687 24.3119 8.28284 24.1394 8.14423 23.9625C8.05518 23.7973 8.09003 23.6004 8.02344 23.428" fill="url(#paint19_linear_25_633)"/>
<path d="M7.92383 24.0377C9.79546 26.987 12.8901 29.1215 16.0289 30.5426C16.0827 30.4373 15.8288 30.3611 15.7513 30.3202C15.5263 30.1995 15.3037 30.0752 15.0827 29.9482C14.3877 29.548 13.7094 29.1178 13.0484 28.6623C11.1521 27.3564 9.36876 25.8373 7.92383 24.0377Z" fill="url(#paint20_linear_25_633)"/>
<path d="M31.7783 21.3906C32.0714 21.3035 32.3602 21.161 32.6417 21.0422C32.7951 20.9786 32.9483 20.9178 33.1017 20.8552C33.2543 20.7917 33.243 20.8951 33.2601 21.0267C33.2821 21.1946 32.646 21.3571 32.5155 21.416C32.3699 21.4705 32.2274 21.5358 32.085 21.5975C31.9483 21.6565 31.8545 21.4977 31.7783 21.4033" fill="url(#paint21_linear_25_633)"/>
<path d="M21.7649 13.2314C21.327 13.1779 20.8887 13.1244 20.4508 13.0708C20.2879 13.0509 20.3103 13.1498 20.2646 13.3013C20.1763 13.5926 20.0938 13.8858 20.0161 14.1807C19.7981 15.0083 19.615 15.8477 19.5081 16.6971C19.4016 17.5429 19.2882 18.5502 19.8399 19.2726C19.5355 18.7 19.5584 18.0311 19.615 17.4041C19.6749 16.7416 19.7981 16.0855 19.9491 15.4384C20.068 14.9293 20.2057 14.423 20.3583 13.9229C20.4047 13.7705 20.4524 13.6189 20.5016 13.4674C20.5426 13.3403 20.5321 13.3431 20.6642 13.3594C21.0154 13.403 21.3665 13.4474 21.7177 13.4919C21.9167 13.5164 22.1986 13.2514 22.3607 13.1443C22.6441 12.9583 22.9183 12.7559 23.1754 12.5336C23.4743 12.275 23.7557 11.9873 23.9761 11.657C24.0582 11.5345 24.1069 11.3793 24.1933 11.2622C23.5738 12.1007 22.6651 12.7296 21.7649 13.2314Z" fill="url(#paint22_linear_25_633)"/>
<path d="M16.064 15.3659C15.1511 15.1771 14.237 14.9911 13.3232 14.806C13.3957 14.8994 13.5149 15.1472 13.6311 15.1762C13.8858 15.237 14.1406 15.2978 14.3957 15.3586C14.8007 15.4548 15.2065 15.5501 15.6126 15.6436C15.7822 15.6817 15.9514 15.7198 16.1214 15.757C16.2778 15.7906 16.2905 15.4013 16.064 15.3659Z" fill="url(#paint23_linear_25_633)"/>
<path d="M15.0533 9.54615C15.1114 9.528 15.17 9.51076 15.2284 9.49352C14.8881 8.82561 13.9964 8.52796 13.3037 8.44629C13.9704 8.60601 14.6875 8.93541 15.0533 9.54615Z" fill="url(#paint24_linear_25_633)"/>
<path d="M18.261 9.11141C18.3343 9.11231 18.4074 9.11504 18.4802 9.11776C18.1109 8.01063 17.2084 7.16848 16.1328 6.75104C17.1038 7.22837 17.9599 8.04692 18.261 9.11141Z" fill="url(#paint25_linear_25_633)"/>
<path d="M21.3046 9.18036C21.3046 10.0806 21.1191 10.9962 20.7942 11.8348C20.881 11.8184 20.9673 11.8012 21.0537 11.7839C21.0784 11.7095 21.102 11.6342 21.1249 11.5589C21.1814 11.3719 21.231 11.1832 21.2739 10.9926C21.3901 10.4781 21.459 9.95173 21.459 9.42357C21.459 8.47797 21.2221 7.52058 20.6348 6.76373C21.114 7.47429 21.3046 8.33277 21.3046 9.18036Z" fill="url(#paint26_linear_25_633)"/>
<path d="M15.3127 25.6331C16.9188 26.1468 18.4863 26.5778 20.1888 26.5016C21.8087 26.4281 23.3969 26.0551 25.0157 25.9707C25.3703 25.9525 25.7257 25.9462 26.0808 25.9516C26.2647 25.9553 26.4486 25.9607 26.6321 25.9689C26.7378 25.9743 27.0673 25.9408 27.1335 26.0188C27.3778 26.3065 27.6485 26.576 27.9191 26.8392C28.7174 27.6132 29.5758 28.3002 30.601 28.7449C32.3584 29.5072 34.213 30.0635 36.042 30.6261C36.2212 30.6806 36.402 30.7332 36.581 30.7913C36.6274 30.8067 36.6828 30.8902 36.7161 30.9238C36.8342 31.0454 36.9503 31.1697 37.0645 31.294C37.9128 32.2242 38.6872 33.2351 39.3156 34.3268C39.3609 34.4058 39.405 34.4847 39.4484 34.5637C39.5358 34.7234 39.5203 34.7298 39.6865 34.6535C39.0271 33.4611 38.1943 32.3621 37.3065 31.3312C37.1005 31.0916 36.8922 30.853 36.6719 30.6261C36.5875 30.539 36.3567 30.5154 36.2448 30.4809C34.4407 29.9237 32.6217 29.3656 30.8763 28.6396C29.8492 28.2122 29.0016 27.5969 28.2153 26.8092C27.906 26.4989 27.6086 26.1749 27.3279 25.8382C27.1866 25.6685 26.7828 25.7339 26.571 25.7257C26.1389 25.7075 25.706 25.7012 25.2735 25.7075C23.6114 25.7338 21.9849 26.0832 20.3285 26.1758C19.4957 26.2221 18.6626 26.1939 17.8421 26.0351C17.0295 25.879 16.2389 25.6277 15.4544 25.369C13.7106 24.7946 11.9424 24.1548 10.082 24.1575C10.1525 24.3 10.223 24.5305 10.3867 24.5332C10.6488 24.5378 10.9106 24.555 11.1711 24.5822C11.6574 24.6349 12.139 24.7229 12.6149 24.8345C13.5294 25.0487 14.4195 25.3482 15.3127 25.6331Z" fill="url(#paint27_linear_25_633)"/>
<path d="M19.3441 11.4129C19.5307 10.1805 17.7528 10.1206 16.9563 10.1515C15.3194 10.215 13.6894 10.6869 12.1709 11.2758C12.3212 11.3366 12.471 11.3974 12.6212 11.4591C12.7114 11.4954 13.1017 11.284 13.2039 11.2486C13.4234 11.1715 13.6449 11.0989 13.8675 11.0308C14.6942 10.7794 15.5447 10.5852 16.4062 10.5063C17.3091 10.4237 18.9232 10.3665 19.3441 11.4129Z" fill="url(#paint28_linear_25_633)"/>
<path d="M16.2334 15.4875C16.2543 15.5456 16.2396 15.6091 16.216 15.6636C16.2643 15.5764 16.3871 15.5619 16.4564 15.6327C16.533 15.2579 16.1823 15.1626 15.9008 15.1055C15.533 15.0301 15.1655 14.9548 14.7977 14.8795C14.426 14.8033 14.054 14.727 13.6819 14.6517C13.4806 14.6109 13.4883 14.6018 13.4198 14.384C13.3814 14.2615 13.3803 14.1335 13.2618 14.0755C13.1933 14.041 13.1248 14.0074 13.0566 13.9738C13.1407 14.2406 13.2254 14.5065 13.3095 14.7724C13.3409 14.8722 13.7543 14.894 13.8465 14.9131C14.2847 15.002 14.7234 15.0909 15.1613 15.1808C15.3712 15.2234 15.5806 15.267 15.7904 15.3096C15.9167 15.335 16.1799 15.3405 16.2334 15.4875Z" fill="url(#paint29_linear_25_633)"/>
<path d="M14.333 21.9968C14.4399 21.6484 14.4403 21.2228 14.5007 20.8616C14.5545 20.5394 14.656 20.2 14.7071 19.8942C14.7582 19.5875 14.819 19.2998 14.9134 19.0157C14.9517 18.9014 14.9924 18.7589 15.0296 18.6419C15.0617 18.542 15.133 18.4068 15.133 18.307C15.133 18.1083 15.2932 17.8523 15.3525 17.6745C15.4186 17.4748 15.4922 17.2942 15.5588 17.0937C15.6657 16.7733 15.8407 16.4176 15.9975 16.1263C16.0784 15.9757 16.1101 15.8023 16.2039 15.6617C16.2522 15.5891 16.4439 15.5237 16.4621 15.6744C16.4702 15.7443 16.3739 15.8659 16.346 15.9203C16.2654 16.0728 16.2217 16.2316 16.1396 16.384C16.104 16.4503 16.0529 16.5347 16.0235 16.6037C15.994 16.6726 15.9205 16.8024 15.9205 16.8677C15.9205 16.9385 15.8477 17.0619 15.8171 17.1327C15.7826 17.2135 15.73 17.3033 15.701 17.3904C15.6328 17.5946 15.5596 17.777 15.4946 17.9839C15.3513 18.4404 15.1693 18.915 15.0559 19.4032C15.0055 19.6201 14.9521 19.818 14.9138 20.0485C14.8778 20.2644 14.7717 20.495 14.7717 20.7382C14.7717 20.9596 14.6784 21.23 14.6428 21.4542C14.5964 21.7464 14.594 22.0204 14.5394 22.3063C14.4581 22.2573 14.4148 22.1611 14.333 22.1121" fill="url(#paint30_linear_25_633)"/>
<defs>
<radialGradient id="paint0_radial_25_633" cx="0" cy="0" r="1" gradientUnits="userSpaceOnUse" gradientTransform="translate(22.4814 20.3852) rotate(180) scale(22.4802 25.5464)">
<stop stop-color="#41A849"/>
<stop offset="1" stop-color="#19512A"/>
</radialGradient>
<linearGradient id="paint1_linear_25_633" x1="24.0537" y1="2.61198" x2="24.0537" y2="-2.31385" gradientUnits="userSpaceOnUse">
<stop stop-color="#0B3D1B"/>
<stop offset="1" stop-color="#2B6B36"/>
</linearGradient>
<linearGradient id="paint2_linear_25_633" x1="22.4508" y1="20.1892" x2="22.4231" y2="4.49419" gradientUnits="userSpaceOnUse">
<stop stop-color="#CFAA34"/>
<stop offset="1" stop-color="#F6F7E8"/>
</linearGradient>
<linearGradient id="paint3_linear_25_633" x1="22.4973" y1="22.7664" x2="22.8006" y2="39.0249" gradientUnits="userSpaceOnUse">
<stop stop-color="#F6F7E8"/>
<stop offset="1" stop-color="#FCE24C"/>
</linearGradient>
<linearGradient id="paint4_linear_25_633" x1="22.5425" y1="20.456" x2="26.1762" y2="22.9624" gradientUnits="userSpaceOnUse">
<stop stop-color="#0B3D1B"/>
<stop offset="1" stop-color="#2B6B36"/>
</linearGradient>
<linearGradient id="paint5_linear_25_633" x1="31.4356" y1="21.1746" x2="32.7924" y2="20.9977" gradientUnits="userSpaceOnUse">
<stop stop-color="#FBDD2A"/>
<stop offset="1" stop-color="#A37F30"/>
</linearGradient>
<linearGradient id="paint6_linear_25_633" x1="30.5004" y1="20.2753" x2="36.7933" y2="29.6524" gradientUnits="userSpaceOnUse">
<stop stop-color="#FBDD2A"/>
<stop offset="1" stop-color="#F6F2D8"/>
</linearGradient>
<linearGradient id="paint7_linear_25_633" x1="29.9239" y1="16.5365" x2="31.2575" y2="20.8634" gradientUnits="userSpaceOnUse">
<stop stop-color="#FBDD2A"/>
<stop offset="1" stop-color="#A37F30"/>
</linearGradient>
<linearGradient id="paint8_linear_25_633" x1="10.1159" y1="22.8426" x2="16.8917" y2="21.9297" gradientUnits="userSpaceOnUse">
<stop stop-color="#F6F7E8"/>
<stop offset="1" stop-color="#FCE24C"/>
</linearGradient>
<linearGradient id="paint9_linear_25_633" x1="10.8308" y1="25.3818" x2="15.662" y2="29.8248" gradientUnits="userSpaceOnUse">
<stop stop-color="#CFAA34"/>
<stop offset="1" stop-color="#F5F2CA"/>
</linearGradient>
<linearGradient id="paint10_linear_25_633" x1="8.13274" y1="24.1466" x2="15.3792" y2="29.9772" gradientUnits="userSpaceOnUse">
<stop stop-color="#E8CB24"/>
<stop offset="1" stop-color="#CFAA34"/>
</linearGradient>
<linearGradient id="paint11_linear_25_633" x1="39.8867" y1="31.8258" x2="10.8891" y2="23.9833" gradientUnits="userSpaceOnUse">
<stop stop-color="#BA8F2B"/>
<stop offset="1" stop-color="#CD9C33"/>
</linearGradient>
<linearGradient id="paint12_linear_25_633" x1="13.2305" y1="10.6197" x2="19.2378" y2="10.5589" gradientUnits="userSpaceOnUse">
<stop stop-color="#FBDD2A"/>
<stop offset="1" stop-color="#A37F30"/>
</linearGradient>
<linearGradient id="paint13_linear_25_633" x1="-15.8938" y1="10.0124" x2="-16.0856" y2="10.0124" gradientUnits="userSpaceOnUse">
<stop stop-color="#FBDD2A"/>
<stop offset="1" stop-color="#A37F30"/>
</linearGradient>
<linearGradient id="paint14_linear_25_633" x1="13.3746" y1="8.69312" x2="14.3919" y2="9.64507" gradientUnits="userSpaceOnUse">
<stop stop-color="#FBDD2A"/>
<stop offset="1" stop-color="#A37F30"/>
</linearGradient>
<linearGradient id="paint15_linear_25_633" x1="16.3687" y1="7.28107" x2="17.1841" y2="8.99985" gradientUnits="userSpaceOnUse">
<stop stop-color="#FBDD2A"/>
<stop offset="1" stop-color="#A37F30"/>
</linearGradient>
<linearGradient id="paint16_linear_25_633" x1="19.7826" y1="6.25557" x2="20.0385" y2="9.26933" gradientUnits="userSpaceOnUse">
<stop stop-color="#FBDD2A"/>
<stop offset="1" stop-color="#A37F30"/>
</linearGradient>
<linearGradient id="paint17_linear_25_633" x1="21.1483" y1="9.79201" x2="20.7397" y2="11.6723" gradientUnits="userSpaceOnUse">
<stop stop-color="#FBDD2A"/>
<stop offset="1" stop-color="#A37F30"/>
</linearGradient>
<linearGradient id="paint18_linear_25_633" x1="25.1621" y1="20.1093" x2="24.5119" y2="13.903" gradientUnits="userSpaceOnUse">
<stop stop-color="#F6F7E8"/>
<stop offset="1" stop-color="#CD9C33"/>
</linearGradient>
<linearGradient id="paint19_linear_25_633" x1="35.9949" y1="29.5145" x2="24.6838" y2="22.5178" gradientUnits="userSpaceOnUse">
<stop stop-color="#E3AA31"/>
<stop offset="1" stop-color="#FCE24C"/>
</linearGradient>
<linearGradient id="paint20_linear_25_633" x1="11.9895" y1="-1.27658" x2="11.9895" y2="-4.81759" gradientUnits="userSpaceOnUse">
<stop stop-color="#0B3D1B"/>
<stop offset="1" stop-color="#2B6B36"/>
</linearGradient>
<linearGradient id="paint21_linear_25_633" x1="32.5166" y1="-0.648417" x2="32.5166" y2="-4.09321" gradientUnits="userSpaceOnUse">
<stop stop-color="#0B3D1B"/>
<stop offset="1" stop-color="#2B6B36"/>
</linearGradient>
<linearGradient id="paint22_linear_25_633" x1="21.8044" y1="-1.26835" x2="21.8044" y2="-4.81026" gradientUnits="userSpaceOnUse">
<stop stop-color="#0B3D1B"/>
<stop offset="1" stop-color="#2B6B36"/>
</linearGradient>
<linearGradient id="paint23_linear_25_633" x1="14.765" y1="-1.04877" x2="14.765" y2="-4.53988" gradientUnits="userSpaceOnUse">
<stop stop-color="#0B3D1B"/>
<stop offset="1" stop-color="#2B6B36"/>
</linearGradient>
<linearGradient id="paint24_linear_25_633" x1="14.2633" y1="-1.31455" x2="14.2633" y2="-4.87277" gradientUnits="userSpaceOnUse">
<stop stop-color="#0B3D1B"/>
<stop offset="1" stop-color="#2B6B36"/>
</linearGradient>
<linearGradient id="paint25_linear_25_633" x1="17.3049" y1="-1.26842" x2="17.3049" y2="-4.80852" gradientUnits="userSpaceOnUse">
<stop stop-color="#0B3D1B"/>
<stop offset="1" stop-color="#2B6B36"/>
</linearGradient>
<linearGradient id="paint26_linear_25_633" x1="21.0554" y1="-1.26116" x2="21.0554" y2="-4.79944" gradientUnits="userSpaceOnUse">
<stop stop-color="#0B3D1B"/>
<stop offset="1" stop-color="#2B6B36"/>
</linearGradient>
<linearGradient id="paint27_linear_25_633" x1="24.8836" y1="-1.22757" x2="24.8836" y2="-4.76132" gradientUnits="userSpaceOnUse">
<stop stop-color="#0B3D1B"/>
<stop offset="1" stop-color="#2B6B36"/>
</linearGradient>
<linearGradient id="paint28_linear_25_633" x1="15.7708" y1="-1.35087" x2="15.7708" y2="-4.98897" gradientUnits="userSpaceOnUse">
<stop stop-color="#0B3D1B"/>
<stop offset="1" stop-color="#2B6B36"/>
</linearGradient>
<linearGradient id="paint29_linear_25_633" x1="-16.0213" y1="14.825" x2="-16.4306" y2="14.825" gradientUnits="userSpaceOnUse">
<stop stop-color="#FBDD2A"/>
<stop offset="1" stop-color="#A37F30"/>
</linearGradient>
<linearGradient id="paint30_linear_25_633" x1="7.80875" y1="-7.19153" x2="8.05729" y2="-6.3385" gradientUnits="userSpaceOnUse">
<stop stop-color="#FBDD2A"/>
<stop offset="1" stop-color="#D1BA34"/>
</linearGradient>
</defs>
</svg>
