<svg width="65" height="87" viewBox="0 0 65 87" fill="none" xmlns="http://www.w3.org/2000/svg">
<path d="M55.163 80.3344C55.207 80.4427 55.228 80.5618 55.224 80.681C55.232 80.7783 55.218 80.8761 55.185 80.9677C55.151 81.0594 55.098 81.1426 55.029 81.2117C54.871 81.3416 54.669 81.4039 54.466 81.3851H53.198V80.0159H54.47C54.566 80.0157 54.662 80.0244 54.756 80.0419C54.843 80.057 54.929 80.0895 55.003 80.1394C55.078 80.1917 55.138 80.2636 55.176 80.3474L55.163 80.3365V80.3344ZM64.884 86.8379H0L6.8025 76.3525H58.064L64.882 86.8379H64.884ZM8.3472 73.9911H56.528L51.922 66.8918H12.9486L8.3472 73.9911ZM50.622 64.8705L47.329 59.8011H17.5414L14.2485 64.8705H50.622Z" fill="#2D7050"/>
<path d="M50.008 36.8244C50.008 46.5299 42.144 54.394 32.439 54.394C22.733 54.394 14.8691 46.5299 14.8691 36.8244C14.8691 27.1189 22.733 19.2549 32.439 19.2549C42.144 19.2549 50.008 27.1189 50.008 36.8244Z" fill="#FF6B00"/>
<path d="M54.7535 0.823023C55.1695 0.96384 55.6315 0.844687 55.9235 0.519726L56.0885 0.333414H57.4255V4.67923H55.8225C55.7145 4.36376 55.5555 4.06861 55.3495 3.80617C54.2885 2.51282 52.6375 1.99288 50.8765 1.99288C49.2255 1.99288 47.7785 2.50632 47.7785 3.70434C47.8105 4.15929 48.1075 4.55791 48.5365 4.71822C49.1125 4.93486 49.7175 5.07568 50.3305 5.12984C51.7385 5.32482 53.1035 5.47646 54.4855 5.70394C55.8005 5.91624 56.6215 6.16971 57.2975 7.05794C58.0595 8.06965 58.2725 9.39333 57.8605 10.5935C57.5615 11.6182 56.8855 12.4891 55.9675 13.0351C55.2185 13.4508 54.4025 13.7323 53.5555 13.867C52.1975 14.0533 50.8175 14.0079 49.4745 13.7326L47.2215 13.2409C47.0865 13.2184 46.9485 13.2255 46.8165 13.2618C46.6855 13.2981 46.5635 13.3627 46.4585 13.451C46.3505 13.5649 46.2725 13.7042 46.2315 13.8561H44.7015V9.28067H46.1425C47.1235 11.1871 49.2835 12.032 51.4455 12.0927C52.6675 12.1295 53.9285 12.0537 54.5825 11.0658C54.6935 10.8469 54.7425 10.6023 54.7265 10.3576C54.7105 10.113 54.6285 9.8772 54.4895 9.67496C53.9265 8.98171 52.9995 9.01854 52.1395 8.93188C50.5575 8.77157 49.4785 8.60692 49.4785 8.60692C48.2175 8.39028 46.9185 8.17364 45.8825 7.41106C45.4395 7.04314 45.0935 6.5724 44.8745 6.03993C44.6555 5.50747 44.5705 4.92948 44.6265 4.35643C44.6885 3.77464 44.8665 3.21101 45.1475 2.69794C45.4295 2.18488 45.8095 1.7325 46.2655 1.36679C46.8075 0.944341 47.4185 0.608548 48.0685 0.374576C49.1385 -0.0218767 50.4865 -0.0435401 51.6755 0.0387833C52.7295 0.152915 53.7635 0.413969 54.7455 0.814356L54.7535 0.823023ZM40.6675 2.92227C40.7135 2.79636 40.7275 2.66139 40.7105 2.52869C40.6925 2.396 40.6435 2.26946 40.5675 2.15971C40.4905 2.04997 40.3885 1.96022 40.2705 1.89801C40.1515 1.83581 40.0195 1.80296 39.8855 1.80224H39.0625V0.337748H44.8595V1.80441H44.6495C44.3645 1.79429 44.0805 1.85021 43.8195 1.96782C43.5595 2.08543 43.3295 2.26156 43.1485 2.48249C42.7105 3.05442 42.5575 3.70434 42.2715 4.29577L38.5015 13.8496H36.4605L33.2025 4.72255L29.5415 13.8496H27.7105L23.8005 2.79012C23.5835 2.23985 23.3025 1.80224 22.6865 1.80224H22.2315V0.333414H29.1425V1.80007C28.7095 1.80007 28.2265 1.73941 27.9205 2.03838C27.4225 2.56698 27.7045 3.26023 27.9205 3.85166L29.6105 8.58959L32.8035 0.337748H35.4625C35.4625 0.402741 37.8175 7.04927 38.3975 8.71307L40.6675 2.92227ZM16.4649 2.70563C16.5505 2.63981 16.6132 2.54879 16.6443 2.44541C16.6754 2.34202 16.6733 2.23147 16.6382 2.12937C16.602 2.02694 16.5343 1.93862 16.4448 1.87712C16.3553 1.81561 16.2485 1.78408 16.1399 1.78707H15.7413V0.335581H21.5905V1.80224H21.1635C20.3555 1.80224 19.6192 2.68613 19.0278 3.19524L16.662 5.33131C17.3055 6.24121 21.6985 11.2521 21.6985 11.2521C22.2405 11.8154 22.5805 12.3678 24.1035 12.3678H24.3745V13.8345H16.1378V12.3678C16.7292 12.3678 17.4549 12.422 17.6023 11.8002C17.6265 11.6397 17.6116 11.4757 17.5588 11.3221C17.506 11.1686 17.4168 11.0301 17.299 10.9185L14.3895 7.38724L12.2729 9.30451V11.4167C12.2723 11.5412 12.2965 11.6646 12.3441 11.7796C12.3916 11.8946 12.4616 11.999 12.5499 12.0867C12.6382 12.1744 12.7431 12.2437 12.8585 12.2905C12.9738 12.3372 13.0973 12.3606 13.2218 12.3591H13.9519V13.828H6.80273V12.3591C7.74293 12.3591 8.24993 11.9475 8.53593 11.2456C8.65283 10.8773 8.70923 10.4874 8.70483 10.0974V3.59169C8.70483 2.9851 8.70484 1.78274 7.60004 1.78274H6.80714V0.331249H13.9562V1.79791H13.3669C12.3552 1.79791 12.2729 3.01759 12.2729 3.43354V6.56183L16.4649 2.6948V2.70563Z" fill="#1D1D1B"/>
</svg>
