<svg width="200" height="37" viewBox="0 0 200 37" fill="none" xmlns="http://www.w3.org/2000/svg">
<path d="M0 36.357H35.8423V0.551025H0V36.357Z" fill="white"/>
<path d="M0 0.515015H35.8434V1.05801L0 18.592" fill="#AE2A43"/>
<path d="M35.8427 12.554V36.358H12.8535" fill="#AE2A43"/>
<path d="M35.8434 6.83203V11.447L2.21593 36.358H0" fill="#AE2A43"/>
<path d="M35.8434 1.66797V5.90697L0 27.594V25.028" fill="#AE2A43"/>
<path d="M39.585 23.529H59.2922V17.637H47.674V0.546997H39.585" fill="#373535"/>
<path d="M61.3467 23.529H69.4357V0.546997H61.3467V23.529Z" fill="#373535"/>
<path d="M71.6699 23.529H79.3175V10.975H79.3904L87.443 23.529H95.3113V0.546997H87.6637V12.841H87.5909L79.9421 0.546997H71.6699" fill="#373535"/>
<path fill-rule="evenodd" clip-rule="evenodd" d="M105.679 6.436H108.253C114.1 6.436 114.614 10.459 114.614 11.907C114.614 14.065 113.878 17.637 108.839 17.637H105.679V6.436ZM97.5908 23.529H109.283C118.437 23.529 122.701 19.054 122.701 12.004C122.701 6.212 119.613 0.546997 110.863 0.546997H97.5908" fill="#373535"/>
<path d="M122.76 15.803C122.833 23.143 131.327 24.076 134.303 24.076C140.151 24.076 146.439 22.144 146.439 16.157C146.439 11.94 142.761 10.427 139.048 9.52699C135.333 8.62499 131.583 8.272 131.436 6.629C131.436 5.342 133.24 5.08501 134.342 5.08501C135.151 5.08501 136.069 5.24499 136.731 5.66499C137.393 6.05099 137.834 6.62899 137.688 7.49899H145.336C145.114 1.89799 140.077 0 134.378 0C128.972 0 123.791 2.28399 123.791 7.59599C123.791 12.23 128.532 13.227 132.687 14.258C137.209 15.385 138.348 15.706 138.348 16.896C138.348 18.604 136.326 18.99 135.002 18.99C133.494 18.99 131.732 18.701 131.143 17.316C130.96 16.896 130.85 16.383 130.85 15.803" fill="#373535"/>
<path fill-rule="evenodd" clip-rule="evenodd" d="M144.81 23.529H152.934L154.111 20.246H162.459L163.562 23.529H171.943L162.383 0.546997H154.477L144.81 23.529ZM155.875 15.321L158.412 8.239H158.486L160.839 15.321" fill="#373535"/>
<path d="M173.971 23.529H182.058V15.063L191.47 0.546997H182.612L178.051 9.01199L173.676 0.546997H164.742L173.971 15.063" fill="#373535"/>
<path fill-rule="evenodd" clip-rule="evenodd" d="M197.15 0.583984H196.178V4.03899H196.805V1.33798H196.822L197.855 4.03899H198.325L199.355 1.33798H199.372V4.03899H200.001V0.583984H199.036L198.098 3.03299L197.15 0.583984ZM195.471 0.583984H192.688V1.12898H193.743V4.03899H194.415V1.12898H195.471" fill="#373535"/>
<path d="M39.5801 27.46H182.073V26.161H39.5801V27.46Z" fill="#373535"/>
<path d="M44.9701 36.606C41.473 36.606 39.5693 35.263 39.5693 33.398C39.5693 31.529 41.5325 30.182 44.9701 30.182C46.7534 30.182 47.9762 30.582 49.104 31.228L47.985 32.608C47.3472 32.131 46.4687 31.818 44.9701 31.818C42.6791 31.818 41.7919 32.496 41.7919 33.398C41.7919 34.277 42.6791 34.963 44.9701 34.963C46.546 34.963 47.4851 34.609 48.0876 34.105L49.2166 35.474C48.1141 36.173 46.8483 36.606 44.9701 36.606Z" fill="#373535"/>
<path d="M55.1044 33.398C55.1044 34.293 56.1472 35.022 58.2219 35.022C60.2988 35.022 61.3406 34.293 61.3406 33.398C61.3406 32.487 60.2988 31.747 58.2219 31.747C56.1472 31.747 55.1044 32.487 55.1044 33.398ZM63.5631 33.398C63.5631 35.229 61.4531 36.606 58.2219 36.606C55.0007 36.606 52.8818 35.229 52.8818 33.398C52.8818 31.562 55.0007 30.182 58.2219 30.182C61.4531 30.182 63.5631 31.562 63.5631 33.398Z" fill="#373535"/>
<path d="M69.5845 31.807V33.186H73.6753C74.5714 33.186 75.0106 32.886 75.0106 32.495C75.0106 32.112 74.5803 31.807 73.693 31.807H69.5845ZM77.689 36.409H74.6752L71.7463 34.529H69.5845V36.409H67.5859V30.437H74.098C75.7081 30.437 77.2597 31.185 77.2597 32.513C77.2597 33.502 76.4144 34.427 74.2702 34.427" fill="#373535"/>
<path d="M84.021 31.807V33.264H88.0688C88.7927 33.264 89.3865 32.939 89.3865 32.539C89.3865 32.122 88.9649 31.807 88.0688 31.807H84.021ZM84.021 34.615V36.409H82.0225V30.437H88.3193C90.628 30.437 91.6443 31.441 91.6443 32.521C91.6443 33.585 90.6357 34.615 88.3193 34.615" fill="#373535"/>
<path d="M97.4911 33.398C97.4911 34.293 98.534 35.022 100.61 35.022C102.684 35.022 103.727 34.293 103.727 33.398C103.727 32.487 102.684 31.747 100.61 31.747C98.534 31.747 97.4911 32.487 97.4911 33.398ZM105.949 33.398C105.949 35.229 103.84 36.606 100.61 36.606C97.3874 36.606 95.2686 35.229 95.2686 33.398C95.2686 31.562 97.3874 30.182 100.61 30.182C103.84 30.182 105.949 31.562 105.949 33.398Z" fill="#373535"/>
<path d="M112.423 31.807V33.186H116.515C117.41 33.186 117.85 32.886 117.85 32.495C117.85 32.112 117.417 31.807 116.53 31.807H112.423ZM120.528 36.409H117.513L114.584 34.529H112.423V36.409H110.422V30.437H116.934C118.546 30.437 120.098 31.185 120.098 32.513C120.098 33.502 119.254 34.427 117.106 34.427" fill="#373535"/>
<path d="M129.182 31.8589L127.779 33.8489H131.052L129.674 31.8589H129.182ZM126.986 35.0489L125.995 36.4089H123.609L127.985 30.4189H130.958L135.331 36.4089H132.833L131.842 35.0489" fill="#373535"/>
<path d="M136.833 32.028V30.437H146.842V32.028H142.834V36.409H140.83V32.028" fill="#373535"/>
<path d="M150.826 36.411H152.823V30.438H150.826V36.411Z" fill="#373535"/>
<path d="M159.343 33.398C159.343 34.293 160.386 35.022 162.463 35.022C164.538 35.022 165.582 34.293 165.582 33.398C165.582 32.487 164.538 31.747 162.463 31.747C160.386 31.747 159.343 32.487 159.343 33.398ZM167.804 33.398C167.804 35.229 165.694 36.606 162.463 36.606C159.242 36.606 157.124 35.229 157.124 33.398C157.124 31.562 159.242 30.182 162.463 30.182C165.694 30.182 167.804 31.562 167.804 33.398Z" fill="#373535"/>
<path d="M179.719 36.409L174.104 32.111V36.409H172.104V30.437H174.776L180.064 34.495V30.437H182.07V36.409" fill="#373535"/>
</svg>
