<svg width="200" height="37" viewBox="0 0 200 37" fill="none" xmlns="http://www.w3.org/2000/svg">
<path d="M8.4882 24.8713V18.0281C8.4882 13.2576 9.77133 11.6784 12.831 11.6784C15.134 11.6784 16.0223 13.3892 16.0223 16.12V24.8384H24.5105V17.9624C24.5105 14.1788 24.8724 11.6784 28.4914 11.6784C30.6957 11.6784 32.0446 13.159 32.0446 15.6922V24.8713H40.5328V15.4619C40.5328 11.0205 39.6445 5.39453 31.3866 5.39453C27.8992 5.39453 25.333 6.71053 23.2932 9.17806C21.9114 6.34863 19.0162 5.39453 15.7591 5.39453C12.6007 5.39453 9.87 6.90793 8.3237 9.24384H8.225V6.05253H0V24.8384H8.4882V24.8713Z" fill="#00205B"/>
<path d="M81.9232 20.2001C83.4366 20.5291 86.0687 20.8581 86.0687 22.6676C86.0687 23.852 85.0816 24.5429 83.9302 24.8719H93.8987C94.3262 23.9836 94.5564 22.9308 94.5564 21.7792C94.5564 19.8382 93.208 16.4494 87.9769 15.4954C84.0946 14.7387 78.4029 14.3439 78.4029 12.1395C78.4029 10.5275 80.6401 10.3959 82.0549 10.3959C83.1077 10.3959 84.0617 10.5603 84.7527 10.9881C85.4435 11.3828 85.8384 12.008 85.8384 12.995H93.6684C93.3724 6.94138 87.4176 5.46088 81.7258 5.46088C76.6263 5.46088 69.8818 6.97428 69.8818 12.6002C69.8818 18.8511 76.5934 18.9828 81.9232 20.2001Z" fill="#00205B"/>
<path d="M80.1796 24.8715C79.719 24.74 79.2912 24.5755 78.9294 24.3123C78.074 23.7201 77.5476 22.8647 77.5476 21.7131H69.4541C69.4871 22.9305 69.7502 23.9504 70.1779 24.8715H80.1796Z" fill="#00205B"/>
<path d="M51.8506 24.8729C50.9293 24.1162 50.37 23.0634 50.4359 21.879C50.4359 21.6158 50.5017 21.3526 50.5675 21.1223V21.0894C50.6332 20.8591 50.732 20.6288 50.8307 20.3985C50.8307 20.3985 50.8307 20.3656 50.8636 20.3656C52.6731 17.0427 59.615 16.2202 59.615 16.2202C59.615 16.2202 60.5361 23.2937 58.1015 24.8729H51.8506Z" fill="#FF9E1B"/>
<path d="M67.808 23.4247V13.2257C67.808 6.61275 61.8531 5.39545 55.7337 5.39545C52.7727 5.39545 49.7788 5.85605 47.5087 7.00755C45.2057 8.22485 43.6265 10.1988 43.462 13.2586H51.3909C51.7857 11.2845 53.2991 10.3305 55.635 10.3305C57.2471 10.3305 59.4185 10.9227 59.6817 12.4032C59.8791 13.4559 59.1882 13.8508 57.3458 14.2455C55.4376 14.6733 42.1131 14.739 42.4092 22.964C42.4092 23.6221 42.475 24.2472 42.6395 24.8065H51.8515C50.9303 24.0497 50.371 22.9969 50.4368 21.8126C50.4368 21.5494 50.5026 21.2862 50.5684 21.0559V21.023C50.6342 20.7927 50.7329 20.5623 50.8316 20.332C50.8316 20.332 50.8316 20.2991 50.8645 20.2991C52.674 16.9763 59.6159 16.1538 59.6159 16.1538C59.6159 16.1538 60.5371 23.2272 58.1025 24.8065H67.8409C67.808 24.3787 67.808 23.8852 67.808 23.4247Z" fill="#00205B"/>
<path d="M53.498 24.8728H55.3076C55.3076 24.8728 54.7154 20.9907 58.5318 17.6349C58.466 17.602 54.0574 19.9708 53.498 24.8728Z" fill="white"/>
<path d="M100.77 15.3652C101.296 15.7928 101.955 16.1548 102.645 16.418C103.369 16.7141 104.125 16.9443 104.981 17.1746L108.238 17.8984C108.797 18.0301 109.356 18.1945 109.883 18.359C110.41 18.5565 110.903 18.7538 111.298 19.017C111.692 19.2802 112.021 19.6092 112.252 20.004C112.482 20.3659 112.614 20.8594 112.614 21.4187C112.614 22.0767 112.449 22.6689 112.12 23.0966C111.758 23.5572 111.331 23.952 110.804 24.2481C110.344 24.5113 109.85 24.7088 109.291 24.8403H114.292C114.456 24.6429 114.62 24.4126 114.785 24.1824C115.312 23.3598 115.575 22.3728 115.575 21.2213C115.575 20.3001 115.378 19.4776 115.015 18.7867C114.653 18.0958 114.193 17.5365 113.601 17.043C113.042 16.5824 112.383 16.2205 111.66 15.9244C110.936 15.6284 110.212 15.4309 109.488 15.3322L106.1 14.5756C105.672 14.4768 105.212 14.3452 104.718 14.1478C104.224 13.9833 103.764 13.7531 103.336 13.5227C102.941 13.2595 102.58 12.9635 102.316 12.6015C102.053 12.2396 101.921 11.8119 101.921 11.3184C101.921 10.6933 102.053 10.1669 102.349 9.73917C102.612 9.31153 103.007 8.98255 103.468 8.71931C103.928 8.45612 104.454 8.25871 105.014 8.16002C105.573 8.02842 106.132 7.99551 106.692 7.99551C107.383 7.99551 108.074 8.09421 108.699 8.25871C109.324 8.42322 109.883 8.68641 110.344 9.04833C110.804 9.41019 111.199 9.83793 111.462 10.3972C111.758 10.9236 111.89 11.5816 111.923 12.3054V12.5028H114.851V12.3054C114.785 11.1539 114.555 10.1669 114.16 9.34441C113.732 8.48902 113.173 7.79811 112.482 7.20592C111.791 6.64662 110.969 6.21892 110.048 5.95571C109.126 5.69251 108.14 5.56091 107.053 5.56091C106.132 5.56091 105.179 5.65962 104.257 5.88991C103.303 6.12021 102.448 6.44921 101.691 6.90982C100.901 7.37041 100.276 7.99552 99.783 8.75222C99.2897 9.50895 99.0586 10.463 99.0586 11.5158C99.0586 12.4041 99.223 13.1937 99.5199 13.8188C99.783 14.411 100.211 14.9374 100.77 15.3652Z" fill="#FF9E1B"/>
<path d="M99.9449 24.8728H105.077C104.321 24.6755 103.597 24.3464 103.005 23.8859C101.919 23.0633 101.294 21.8132 101.196 20.2011V20.0366H98.2676L98.3005 20.234C98.4649 22.1751 99.024 23.7214 99.9449 24.8728Z" fill="#FF9E1B"/>
<path d="M136.729 19.905H133.8L133.767 20.0366C133.372 21.5829 132.649 22.8331 131.662 23.7543C131.102 24.2807 130.379 24.6426 129.523 24.8729H134.393C135.445 23.6556 136.235 22.0764 136.663 20.1353L136.729 19.905Z" fill="#FF9E1B"/>
<path d="M120.082 24.3139C120.247 24.5113 120.378 24.7088 120.543 24.8732H125.478C125.083 24.7416 124.721 24.61 124.392 24.4126C123.569 23.9192 122.846 23.294 122.319 22.5703C121.76 21.8135 121.366 20.9582 121.135 20.0369C120.904 19.1486 120.773 18.2933 120.773 17.4707H136.795V17.2733C136.861 15.8257 136.696 14.3781 136.4 12.9963C136.071 11.5816 135.512 10.3314 134.789 9.24575C134.031 8.16002 133.045 7.27171 131.827 6.58081C130.61 5.88991 129.162 5.56091 127.452 5.56091C125.774 5.56091 124.327 5.88992 123.109 6.51502C121.892 7.14011 120.871 7.99551 120.115 9.04833C119.359 10.0682 118.767 11.2855 118.404 12.6015C118.042 13.9175 117.845 15.2664 117.845 16.6153C117.845 18.0958 118.042 19.5105 118.404 20.8265C118.734 22.1096 119.293 23.294 120.082 24.3139ZM121.399 12.5028C121.727 11.6474 122.155 10.8578 122.714 10.1998C123.273 9.54184 123.932 9.01544 124.721 8.62062C125.511 8.22581 126.399 8.02842 127.419 8.02842C128.406 8.02842 129.295 8.22581 130.084 8.62062C130.873 9.01544 131.531 9.54184 132.091 10.1998C132.65 10.8578 133.078 11.6145 133.374 12.4699C133.637 13.2595 133.801 14.082 133.867 14.9703H120.806C120.871 14.1149 121.102 13.2924 121.399 12.5028Z" fill="#FF9E1B"/>
<path d="M157.685 19.905H154.757L154.724 20.0366C154.329 21.5829 153.605 22.8331 152.618 23.7543C152.059 24.2807 151.335 24.6426 150.479 24.8729H155.349C156.401 23.6556 157.192 22.0764 157.619 20.1353L157.685 19.905Z" fill="#FF9E1B"/>
<path d="M141.005 24.313C141.169 24.5105 141.301 24.7079 141.465 24.8723H146.401C146.006 24.7408 145.644 24.6091 145.315 24.4118C144.492 23.9183 143.768 23.2932 143.242 22.5694C142.683 21.8127 142.288 20.9573 142.058 20.036C141.827 19.1478 141.696 18.2924 141.696 17.4699H157.718V17.2725C157.784 15.8248 157.619 14.3773 157.323 12.9955C156.994 11.5808 156.435 10.3306 155.712 9.24488C154.954 8.15916 153.968 7.27087 152.751 6.57997C151.533 5.88906 150.086 5.56006 148.375 5.56006C146.697 5.56006 145.249 5.88906 144.032 6.51416C142.815 7.13927 141.794 7.99467 141.038 9.04745C140.281 10.0674 139.689 11.2847 139.328 12.6006C138.965 13.9166 138.768 15.2655 138.768 16.6144C138.768 18.095 138.965 19.5096 139.328 20.8256C139.689 22.1088 140.248 23.2932 141.005 24.313ZM142.354 12.502C142.683 11.6466 143.111 10.857 143.67 10.1989C144.229 9.54097 144.888 9.01456 145.677 8.61976C146.466 8.22496 147.355 8.02756 148.375 8.02756C149.361 8.02756 150.25 8.22496 151.04 8.61976C151.829 9.01456 152.487 9.54097 153.047 10.1989C153.606 10.857 154.033 11.6137 154.329 12.4691C154.593 13.2587 154.757 14.0812 154.823 14.9694H141.761C141.827 14.1141 142.025 13.2916 142.354 12.502Z" fill="#FF9E1B"/>
<path d="M162.193 24.3131C162.358 24.5105 162.522 24.7079 162.687 24.8724H167.523C167.129 24.7408 166.733 24.5763 166.404 24.3789C165.582 23.8854 164.891 23.2274 164.332 22.4378C163.805 21.6482 163.41 20.727 163.147 19.7071C162.884 18.6872 162.785 17.6344 162.785 16.5816C162.785 15.5288 162.917 14.5089 163.147 13.4561C163.41 12.4362 163.805 11.515 164.332 10.7254C164.858 9.93578 165.549 9.27782 166.404 8.7843C167.227 8.2908 168.247 8.0276 169.398 8.0276C170.714 8.0276 171.833 8.2908 172.721 8.7843C173.609 9.27782 174.366 9.93578 174.926 10.7254C175.485 11.515 175.913 12.4362 176.143 13.4561C176.406 14.476 176.505 15.5288 176.505 16.5816C176.505 17.6344 176.373 18.6543 176.143 19.7071C175.88 20.727 175.485 21.6482 174.926 22.4378C174.366 23.2274 173.642 23.8854 172.721 24.3789C172.36 24.5763 171.931 24.7408 171.504 24.8724H175.814C176.176 24.4776 176.472 24.0499 176.735 23.6222V24.8724H179.466V0H176.538V9.47525C176.307 8.98173 176.011 8.55401 175.649 8.1592C175.123 7.5999 174.53 7.1064 173.873 6.71161C173.215 6.3168 172.491 6.0207 171.734 5.8233C170.977 5.6259 170.188 5.5272 169.398 5.5272C167.786 5.5272 166.371 5.8233 165.187 6.4155C164.002 7.0077 162.983 7.83021 162.193 8.8172C161.403 9.83711 160.811 11.0215 160.417 12.3375C160.022 13.6535 159.857 15.0682 159.857 16.5487C159.857 18.0292 160.055 19.4439 160.417 20.7599C160.811 22.1088 161.403 23.2932 162.193 24.3131Z" fill="#FF9E1B"/>
<path d="M185.228 15.3658C185.755 15.7936 186.412 16.1554 187.103 16.4186C187.828 16.7147 188.584 16.945 189.439 17.1754L192.696 17.8992C193.256 18.0307 193.815 18.1953 194.341 18.3597C194.868 18.5571 195.361 18.7546 195.756 19.0178C196.151 19.281 196.48 19.6099 196.71 20.0047C196.94 20.3667 197.072 20.8602 197.072 21.4195C197.072 22.0774 196.908 22.6696 196.579 23.0973C196.217 23.558 195.789 23.9527 195.262 24.2488C194.802 24.512 194.308 24.7094 193.749 24.8411H198.717C198.882 24.6437 199.046 24.4133 199.211 24.183C199.737 23.3605 200 22.3735 200 21.222C200 20.3009 199.803 19.4784 199.441 18.7875C199.079 18.0965 198.619 17.5372 198.026 17.0437C197.467 16.5832 196.809 16.2212 196.085 15.9251C195.361 15.629 194.637 15.4316 193.914 15.3329L190.525 14.5762C190.097 14.4776 189.636 14.3459 189.143 14.1486C188.65 13.984 188.189 13.7537 187.762 13.5234C187.366 13.2602 187.004 12.9641 186.741 12.6023C186.478 12.2403 186.347 11.8127 186.347 11.3191C186.347 10.6941 186.478 10.1677 186.774 9.73994C187.037 9.31221 187.432 8.98323 187.893 8.72004C188.354 8.45684 188.88 8.25944 189.439 8.16074C189.998 8.02914 190.558 7.99624 191.117 7.99624C191.808 7.99624 192.499 8.09495 193.124 8.25944C193.749 8.42394 194.308 8.68714 194.769 9.049C195.229 9.41096 195.624 9.83861 195.888 10.3979C196.184 10.9243 196.316 11.5823 196.348 12.3062V12.5035H199.276V12.3062C199.211 11.1546 198.98 10.1677 198.586 9.34518C198.157 8.48974 197.598 7.79884 196.908 7.20664C196.217 6.64734 195.394 6.21964 194.473 5.95645C193.552 5.69325 192.564 5.56165 191.479 5.56165C190.558 5.56165 189.604 5.66034 188.683 5.89064C187.729 6.12095 186.873 6.44994 186.116 6.91054C185.327 7.37114 184.701 7.99624 184.208 8.75294C183.715 9.50963 183.484 10.4638 183.484 11.5166C183.484 12.4048 183.649 13.1944 183.945 13.8195C184.241 14.4118 184.668 14.9382 185.228 15.3658Z" fill="#FF9E1B"/>
<path d="M184.405 24.8736H189.537C188.781 24.6762 188.056 24.3472 187.464 23.8866C186.379 23.0641 185.754 21.8138 185.655 20.2017V20.0373H182.727L182.759 20.2346C182.924 22.1758 183.484 23.7221 184.405 24.8736Z" fill="#FF9E1B"/>
<path d="M69.4481 34.2161C69.4481 35.6308 68.6256 36.3875 67.2109 36.3875C65.7633 36.3875 64.875 35.7294 64.875 34.2161V30.597H65.6317V34.2161C65.6317 35.203 66.191 35.7623 67.2109 35.7623C68.165 35.7623 68.6914 35.203 68.6914 34.2161V30.597H69.4481V34.2161Z" fill="#00205B"/>
<path d="M70.8604 30.597H71.65L74.6438 35.203V30.597H75.3677V36.2887H74.5452L71.5841 31.7485V36.2887H70.8604V30.597Z" fill="#00205B"/>
<path d="M76.8193 30.597H77.5761V36.2887H76.8193V30.597Z" fill="#00205B"/>
<path d="M80.3379 31.2544H78.4297V30.6293H82.9699V31.2544H81.0946V36.2881H80.3379V31.2544Z" fill="#00205B"/>
<path d="M83.79 30.597H87.7051V31.2221H84.5467V33.0316H87.4749V33.6568H84.5467V35.6308H87.7381V36.2558H83.79V30.597Z" fill="#00205B"/>
<path d="M88.8262 30.597H90.7669C92.5109 30.597 93.4976 31.4853 93.4976 33.2948C93.4976 35.203 92.6753 36.2558 90.7669 36.2558H88.8262V30.597ZM89.5829 35.6308H90.8327C91.3598 35.6308 92.7411 35.4991 92.7411 33.3936C92.7411 32.0447 92.2478 31.2221 90.8656 31.2221H89.5829V35.6308Z" fill="#00205B"/>
<path d="M98.3005 31.2544H96.4258V30.6293H100.965V31.2544H99.0907V36.2881H98.3333V31.2544H98.3005Z" fill="#00205B"/>
<path d="M104.159 30.4647C105.968 30.4647 106.857 31.8793 106.857 33.4257C106.857 34.972 105.935 36.3866 104.159 36.3866C102.349 36.3866 101.461 34.972 101.461 33.4257C101.461 31.8793 102.349 30.4647 104.159 30.4647ZM104.159 35.7616C105.54 35.7616 106.132 34.5771 106.132 33.4257C106.132 32.2742 105.54 31.0897 104.159 31.0897C102.777 31.0897 102.184 32.2742 102.184 33.4257C102.217 34.5771 102.777 35.7616 104.159 35.7616Z" fill="#00205B"/>
<path d="M114.621 35.5642C114.192 36.1563 113.469 36.4195 112.811 36.4195C111.133 36.4195 110.113 35.0378 110.113 33.5572C110.113 31.9122 111.001 30.4647 112.811 30.4647C114.061 30.4647 115.016 31.024 115.246 32.34H114.489C114.325 31.4846 113.633 31.0897 112.811 31.0897C111.429 31.0897 110.87 32.2742 110.87 33.4914C110.87 34.6759 111.561 35.7616 112.811 35.7616C113.962 35.7616 114.687 34.9391 114.621 33.9192H112.811V33.294H115.279V36.288H114.818L114.621 35.5642Z" fill="#00205B"/>
<path d="M116.624 30.597H119.289C120.341 30.597 121 31.1892 121 32.0776C121 32.7684 120.704 33.3277 120.012 33.5251C120.671 33.6568 120.802 34.1502 120.868 34.6766C120.901 35.236 120.868 35.8611 121.197 36.2229H120.341C120.111 35.9926 120.242 35.3676 120.144 34.8412C120.078 34.2819 119.913 33.8212 119.19 33.8212H117.347V36.2558H116.591V30.597H116.624ZM118.927 33.2291C119.618 33.2291 120.242 33.0316 120.242 32.2091C120.242 31.6498 119.946 31.2551 119.223 31.2551H117.347V33.2291H118.927Z" fill="#00205B"/>
<path d="M124.622 30.4647C126.431 30.4647 127.319 31.8793 127.319 33.4257C127.319 34.972 126.399 36.3866 124.622 36.3866C122.812 36.3866 121.924 34.972 121.924 33.4257C121.924 31.8793 122.845 30.4647 124.622 30.4647ZM124.622 35.7616C126.004 35.7616 126.596 34.5771 126.596 33.4257C126.596 32.2742 126.004 31.0897 124.622 31.0897C123.24 31.0897 122.647 32.2742 122.647 33.4257C122.68 34.5771 123.273 35.7616 124.622 35.7616Z" fill="#00205B"/>
<path d="M133.568 36.2881H132.778L131.495 31.5176L130.179 36.2881H129.39L127.942 30.6293H128.699L129.817 35.334L131.101 30.6293H131.923L133.174 35.334L134.325 30.6293H135.081L133.568 36.2881Z" fill="#00205B"/>
</svg>
