<svg width="183" height="40" viewBox="0 0 183 40" fill="none" xmlns="http://www.w3.org/2000/svg">
<path d="M37.1268 39.506H29.8331V18.765L21.7797 39.506H15.499L7.2937 18.765V39.506H0V8.444H7.9521C8.4586 8.444 8.9651 8.494 9.421 8.642C9.8768 8.79 10.3327 8.988 10.7379 9.185C11.1431 9.432 11.4976 9.72801 11.7509 10.074C12.0548 10.42 12.2574 10.765 12.4094 11.21L17.9809 26.765C18.0316 27.012 18.1329 27.259 18.1835 27.556C18.2342 27.852 18.3355 28.099 18.3861 28.395C18.4368 28.691 18.4874 29.037 18.5381 29.333C18.5381 29.037 18.5887 28.691 18.6394 28.395C18.69 28.148 18.7407 27.852 18.7913 27.556C18.842 27.259 18.9433 27.012 19.0446 26.765L24.5655 11.21C24.7174 10.765 24.92 10.37 25.2746 10.025C25.6291 9.67899 25.933 9.383 26.3382 9.136C26.7434 8.889 27.1993 8.741 27.6551 8.593C28.111 8.494 28.6175 8.395 29.0734 8.395H36.9748V39.506H37.1268ZM68.2768 32.889H54.3479V27.16H65.6936V20.543H54.3479V15.111H68.2768V8.494H47.0543V39.556H68.2768V32.889ZM84.2823 15.062V39.506H91.576V15.062H100.44V8.444H75.3678V15.062H84.2823ZM105.353 23.951C105.353 25.432 105.556 26.815 105.961 28.148C106.366 29.481 106.923 30.765 107.632 31.951C108.341 33.136 109.202 34.173 110.165 35.16C111.178 36.099 112.241 36.938 113.457 37.63C114.673 38.321 115.989 38.864 117.357 39.21C118.725 39.605 120.193 39.753 121.713 39.753C123.233 39.753 124.651 39.556 126.069 39.21C127.487 38.815 128.753 38.321 129.969 37.63C131.185 36.938 132.299 36.099 133.261 35.16C134.274 34.222 135.085 33.136 135.794 31.951C136.503 30.765 137.06 29.531 137.465 28.148C137.87 26.815 138.073 25.383 138.073 23.951C138.073 22.469 137.87 21.086 137.465 19.753C137.06 18.42 136.503 17.136 135.794 15.951C135.085 14.765 134.224 13.728 133.261 12.741C132.248 11.802 131.185 10.963 129.969 10.272C128.753 9.58 127.436 9.03699 126.069 8.69099C124.651 8.29599 123.233 8.14799 121.713 8.14799C120.193 8.14799 118.775 8.34599 117.357 8.69099C115.939 9.08599 114.673 9.58 113.457 10.272C112.241 10.963 111.127 11.802 110.165 12.741C109.152 13.679 108.341 14.765 107.632 15.951C106.923 17.136 106.366 18.37 105.961 19.753C105.556 21.086 105.353 22.519 105.353 23.951ZM112.647 23.951C112.647 22.765 112.9 21.63 113.356 20.543C113.862 19.457 114.521 18.568 115.331 17.778C116.141 16.988 117.104 16.346 118.218 15.901C119.332 15.457 120.497 15.21 121.713 15.21C122.929 15.21 124.094 15.457 125.208 15.901C126.322 16.346 127.285 16.988 128.095 17.778C128.905 18.568 129.564 19.506 130.07 20.543C130.577 21.63 130.83 22.716 130.83 23.951C130.83 25.136 130.577 26.272 130.07 27.358C129.564 28.444 128.905 29.333 128.095 30.123C127.285 30.914 126.322 31.556 125.208 32C124.094 32.444 122.929 32.691 121.713 32.691C120.497 32.691 119.332 32.444 118.218 32C117.104 31.556 116.141 30.914 115.331 30.123C114.521 29.333 113.862 28.395 113.356 27.358C112.9 26.272 112.647 25.136 112.647 23.951ZM155.446 15.259C155.801 15.259 156.155 15.309 156.459 15.457C156.763 15.556 157.067 15.704 157.371 15.852C157.675 16 158.029 16.099 158.384 16.247C158.738 16.346 159.144 16.444 159.65 16.444C160.258 16.444 160.764 16.346 161.271 16.198C161.777 16.049 162.233 15.753 162.639 15.407L164.867 13.58C164.31 12.938 163.652 12.247 162.993 11.605C162.284 10.963 161.524 10.42 160.764 9.92599C159.954 9.43199 159.093 9.03699 158.232 8.69099C157.32 8.39499 156.409 8.24699 155.446 8.24699C154.129 8.24699 152.863 8.444 151.647 8.84C150.432 9.235 149.317 9.82699 148.355 10.568C147.393 11.309 146.633 12.247 146.025 13.333C145.417 14.42 145.164 15.654 145.164 17.086C145.164 18.568 145.417 19.802 145.975 20.84C146.481 21.827 147.19 22.716 148.051 23.407C148.912 24.099 149.875 24.691 150.938 25.185C152.002 25.679 153.066 26.123 154.18 26.519C154.838 26.765 155.497 27.012 156.105 27.21C156.712 27.407 157.27 27.605 157.725 27.802C158.181 28.049 158.586 28.296 158.84 28.593C159.093 28.889 159.245 29.284 159.245 29.778C159.245 30.272 159.093 30.716 158.789 31.111C158.485 31.506 158.131 31.802 157.675 32.099C157.219 32.346 156.712 32.543 156.206 32.691C155.699 32.84 155.193 32.889 154.737 32.889C154.079 32.889 153.471 32.741 152.964 32.494C152.458 32.247 151.951 31.951 151.445 31.654C150.938 31.358 150.432 31.062 149.925 30.815C149.419 30.568 148.862 30.42 148.203 30.42C147.798 30.42 147.342 30.469 146.937 30.617C146.532 30.716 146.126 30.914 145.772 31.111L143.442 32.395C143.847 33.481 144.455 34.519 145.164 35.457C145.924 36.395 146.785 37.185 147.747 37.877C148.71 38.568 149.824 39.062 150.989 39.457C152.154 39.852 153.42 40 154.737 40C156.257 40 157.725 39.753 159.144 39.259C160.562 38.765 161.828 38.074 162.892 37.185C164.006 36.296 164.867 35.21 165.526 33.975C166.184 32.741 166.488 31.358 166.488 29.827C166.488 28.593 166.285 27.506 165.88 26.519C165.475 25.531 164.918 24.642 164.209 23.852C163.5 23.062 162.639 22.37 161.626 21.778C160.613 21.185 159.498 20.691 158.232 20.296C157.27 20 156.409 19.704 155.699 19.506C154.99 19.309 154.383 19.111 153.876 18.914C153.37 18.716 153.015 18.469 152.812 18.222C152.559 17.975 152.458 17.58 152.458 17.136C152.458 16.84 152.559 16.593 152.711 16.346C152.863 16.148 153.116 15.951 153.369 15.802C153.673 15.654 154.005 15.521 154.322 15.444C154.718 15.29 155.041 15.259 155.446 15.259ZM168.919 6.815C168.919 7.457 169.02 8.049 169.172 8.642C169.324 9.235 169.578 9.778 169.882 10.272C170.185 10.765 170.54 11.21 170.996 11.654C171.401 12.049 171.908 12.395 172.414 12.691C172.921 12.988 173.478 13.235 174.086 13.383C174.693 13.531 175.301 13.63 175.96 13.63C176.618 13.63 177.226 13.531 177.834 13.383C178.441 13.235 178.999 12.988 179.505 12.691C180.012 12.395 180.518 12.049 180.923 11.654C181.329 11.259 181.734 10.765 182.038 10.272C182.342 9.778 182.595 9.235 182.747 8.642C182.899 8.049 183 7.457 183 6.815C183 6.173 182.899 5.58001 182.747 4.98801C182.595 4.39501 182.342 3.852 182.038 3.358C181.734 2.864 181.379 2.42001 180.923 1.97501C180.518 1.58001 180.012 1.235 179.505 0.938004C178.999 0.642004 178.441 0.394994 177.834 0.246994C177.226 0.098994 176.618 0 175.96 0C175.301 0 174.693 0.098994 174.086 0.246994C173.478 0.394994 172.921 0.642004 172.414 0.938004C171.908 1.235 171.401 1.58001 170.996 1.97501C170.591 2.37001 170.185 2.864 169.882 3.358C169.578 3.852 169.324 4.39501 169.172 4.98801C169.02 5.58001 168.919 6.173 168.919 6.815ZM175.25 7.75301H175.656L178.239 11.111C177.884 11.309 177.53 11.407 177.125 11.506C176.719 11.605 176.314 11.654 175.909 11.654C175.25 11.654 174.592 11.506 173.984 11.259C173.376 11.012 172.819 10.667 172.363 10.222C171.908 9.778 171.553 9.28399 171.249 8.69099C170.996 8.09899 170.844 7.457 170.844 6.815C170.844 6.123 170.996 5.531 171.249 4.938C171.502 4.346 171.857 3.852 172.363 3.407C172.819 2.963 173.376 2.617 173.984 2.37C174.592 2.123 175.25 1.97501 175.909 1.97501C176.618 1.97501 177.226 2.123 177.834 2.37C178.441 2.617 178.999 2.963 179.454 3.407C179.91 3.852 180.265 4.346 180.518 4.938C180.771 5.531 180.923 6.173 180.923 6.815C180.923 7.457 180.822 8.049 180.569 8.593C180.316 9.136 180.012 9.63 179.606 10.074L177.58 7.407C177.935 7.21 178.188 6.91399 178.441 6.56799C178.644 6.22199 178.745 5.82701 178.745 5.43201C178.745 5.08601 178.695 4.79 178.543 4.494C178.391 4.198 178.239 3.95101 178.036 3.75301C177.834 3.55601 177.58 3.358 177.277 3.259C176.973 3.16 176.669 3.062 176.314 3.062H173.427V10.469H175.149V7.75301H175.25ZM176.466 4.78999C176.618 4.78999 176.77 4.84001 176.922 4.98801C177.023 5.13601 177.125 5.28401 177.125 5.43201C177.125 5.58001 177.074 5.728 176.922 5.877C176.821 5.975 176.669 6.07401 176.466 6.07401H175.25V4.78999H176.466Z" fill="#007858"/>
</svg>
