<svg width="210" height="35" viewBox="0 0 210 35" fill="none" xmlns="http://www.w3.org/2000/svg">
<path d="M210 10.8697H183.214C181.939 7.66397 179.732 4.91446 176.878 2.97622C174.023 1.03891 170.653 0.0018736 167.203 0H42.7905C39.3416 0.0028104 35.973 1.04079 33.12 2.97809C30.2669 4.91634 28.0607 7.66491 26.7862 10.8697H7.12723L0 23.5774H26.7862C28.0604 26.7832 30.2664 29.5327 33.1193 31.4718C35.9722 33.4101 39.341 34.449 42.7905 34.4537H167.203C170.652 34.449 174.021 33.4101 176.874 31.4718C179.727 29.5327 181.933 26.7832 183.207 23.5774H202.866L210 10.8697Z" fill="black"/>
<path d="M167.204 1.43237H42.7909C40.7171 1.43237 38.6635 1.84081 36.7476 2.63428C34.8317 3.42869 33.0909 4.5922 31.6247 6.05923C30.1586 7.52533 28.9958 9.26683 28.2028 11.1826C27.4098 13.0993 27.0021 15.1528 27.0029 17.2268C27.0029 21.4144 28.6663 25.4304 31.6272 28.3907C34.5879 31.3519 38.6037 33.0148 42.7909 33.0148H167.204C171.391 33.0148 175.406 31.3519 178.367 28.3907C181.328 25.4304 182.991 21.4144 182.991 17.2268C182.991 13.0393 181.329 9.02233 178.367 6.0611C175.407 3.09894 171.391 1.43425 167.204 1.43237ZM167.204 31.5824H42.7909C38.9836 31.5824 35.3321 30.0704 32.6399 27.378C29.9477 24.6857 28.4351 21.034 28.4351 17.2268C28.4351 13.4197 29.9477 9.76802 32.6399 7.07565C35.3321 4.38329 38.9836 2.8713 42.7909 2.8713H167.204C171.011 2.8713 174.662 4.38329 177.355 7.07565C180.047 9.76802 181.559 13.4197 181.559 17.2268C181.559 21.034 180.047 24.6857 177.355 27.378C174.662 30.0704 171.011 31.5824 167.204 31.5824Z" fill="#F1CA00"/>
<path d="M26.2862 22.1386H0.810547L1.61448 20.7062H25.9349C26.0273 21.1896 26.1446 21.6673 26.2862 22.1386Z" fill="#F1CA00"/>
<path d="M25.9217 13.7476H5.51953L6.32344 12.3087H26.2865C26.1403 12.7818 26.0185 13.2624 25.9217 13.7476Z" fill="#F1CA00"/>
<path d="M209.19 12.3087L208.413 13.7476H184.092C183.991 13.2549 183.87 12.7818 183.728 12.3087H209.19Z" fill="#F1CA00"/>
<path d="M184.092 20.7062H204.495L203.684 22.1386H183.714C183.856 21.672 183.978 21.1924 184.092 20.7062Z" fill="#F1CA00"/>
<path d="M56.9173 8.12678C57.3022 8.12678 57.6783 8.01248 57.9982 7.79889C58.3182 7.5853 58.5676 7.28178 58.7149 6.9258C58.8621 6.57075 58.9006 6.17916 58.8256 5.80162C58.7505 5.42409 58.5652 5.07749 58.2931 4.80582C58.021 4.53321 57.6743 4.34866 57.2969 4.27278C56.9195 4.19783 56.5283 4.23623 56.1728 4.38424C55.8172 4.53132 55.5133 4.78052 55.2996 5.10091C55.0858 5.42036 54.9717 5.79695 54.9717 6.18104C54.9735 6.69722 55.179 7.19091 55.5435 7.55533C55.908 7.91974 56.4019 8.1249 56.9173 8.12678Z" fill="#F1CA00"/>
<path d="M118.859 12.8895C118.867 12.5747 118.939 12.2646 119.071 11.978C119.202 11.6913 119.39 11.4346 119.624 11.2239C119.858 11.0121 120.132 10.8501 120.43 10.747C120.728 10.6449 121.044 10.6037 121.358 10.6271C124.588 10.6271 123.763 13.7879 125.493 13.7879H126.27V9.70156H125.128C125.053 9.94419 124.912 10.377 124.615 10.377C124.165 10.2608 123.739 10.0707 123.351 9.81584C122.608 9.46267 121.796 9.28 120.973 9.28187C118.176 9.28187 115.332 11.3091 115.332 14.2881C115.332 20.4832 124.114 19.0508 124.114 23.0707C124.129 23.4519 124.063 23.8332 123.92 24.1873C123.776 24.5414 123.56 24.8609 123.284 25.1251C123.008 25.3892 122.679 25.5925 122.32 25.7199C121.96 25.8483 121.577 25.8979 121.196 25.8679C116.825 25.8679 117.21 22.2669 116.068 22.2669H115.123V26.7926H116.629C116.629 26.4956 116.798 26.2792 117.116 26.2792C117.724 26.2792 118.885 27.2254 121.075 27.2254C124.378 27.2254 127.641 24.8 127.641 21.301C127.634 14.9505 118.859 16.6058 118.859 12.8895Z" fill="#F1CA00"/>
<path d="M113.34 24.8946L110.638 20.4494C109.739 18.9355 109.226 18.3079 107.328 18.1861V18.1393H108.003C110.24 18.1393 113.084 17.2606 113.084 13.8628C113.084 10.7751 110.267 9.70056 108.517 9.70056H98.9033V10.1399C98.9033 11.6463 100.254 10.3629 100.254 12.2281V24.2594C100.254 26.1377 98.9033 24.8468 98.9033 26.3541V26.7925H105.66V26.3541C105.66 24.8468 104.308 26.1377 104.308 24.2594V18.855H104.524C105.308 18.855 105.875 20.0438 106.253 20.7061L109.632 26.786H114.935V26.3466C114.874 25.0903 114.07 26.0637 113.34 24.8946ZM105.416 17.4629H104.274V11.0458H106.362C107.145 11.0458 108.821 11.7953 108.821 14.1054C108.821 17.017 106.903 17.4835 105.416 17.4835V17.4629Z" fill="#F1CA00"/>
<path d="M74.8397 9.70151H66.7733V10.1399C66.7733 11.6463 68.1245 10.3629 68.1245 12.2281V24.2594C68.1245 25.2056 67.7799 25.347 67.4489 25.4482C67.0841 25.3742 66.6315 25.273 66.2599 24.3137L60.6392 10.0931C60.4973 9.70151 60.3757 9.1947 60.0852 9.1947C59.8765 9.22562 59.6765 9.29868 59.4975 9.41016L57.437 10.3835C57.2411 10.4847 56.8492 10.5999 56.8492 10.8969C56.9323 11.2079 57.0478 11.5086 57.1938 11.7953L57.41 12.3564L53.0796 23.361C51.7622 26.7391 50.8164 24.5498 50.8164 26.4009V26.7663H55.8967V26.4009C55.8967 24.7728 54.2686 26.0834 54.2686 24.7728C54.3009 24.3222 54.4251 23.8837 54.6334 23.4828L55.3089 21.8546H60.9702L61.9228 24.0908C62.0539 24.3297 62.1279 24.5957 62.139 24.8674C62.139 25.9147 60.7878 24.7456 60.7878 26.4009V26.7663H74.2384C78.4201 26.7663 82.8924 23.9896 82.8924 18.0849C82.933 12.836 79.1429 9.70151 74.8397 9.70151ZM55.8022 20.5103L58.1599 14.4305L60.5852 20.5103H55.8022ZM73.4277 25.422H72.1441V11.0655H73.9141C74.5221 11.0655 78.562 11.1404 78.562 18.2133C78.562 22.6856 77.4406 25.4285 73.4277 25.4285V25.422Z" fill="#F1CA00"/>
<path d="M54.7416 10.0659V9.70056H50.3302V10.0659C50.3302 11.4168 51.6476 10.7751 51.6476 11.5723C51.6054 11.9077 51.5144 12.2356 51.3773 12.5447L48.0468 21.76L44.3987 12.451C44.2567 12.1437 44.1348 11.828 44.0339 11.5049C44.0339 10.7207 45.3513 11.4308 45.3513 10.1877V9.70056H38.5078V10.0659C38.5078 11.4168 39.4536 10.5053 40.0143 11.9639L45.7702 26.7925H47.628L53.1676 11.8693C53.7081 10.3357 54.7416 11.5255 54.7416 10.0659Z" fill="#F1CA00"/>
<path d="M62.0238 8.12678C62.4086 8.12678 62.7848 8.01248 63.1047 7.79889C63.4247 7.5853 63.674 7.28178 63.8213 6.9258C63.9686 6.57075 64.0072 6.17916 63.932 5.80162C63.857 5.42409 63.6717 5.07749 63.3996 4.80582C63.1275 4.53321 62.7808 4.34866 62.4034 4.27278C62.0259 4.19783 61.6348 4.23623 61.2793 4.38424C60.9238 4.53132 60.6199 4.78052 60.4061 5.10091C60.1923 5.42036 60.0781 5.79695 60.0781 6.18104C60.0799 6.69722 60.2855 7.19091 60.65 7.55533C61.0145 7.91974 61.5083 8.1249 62.0238 8.12678Z" fill="#F1CA00"/>
<path d="M170.095 9.84954H170.311L170.642 10.3966H170.858L170.5 9.84298C170.544 9.84205 170.587 9.83268 170.628 9.81488C170.668 9.79708 170.704 9.77084 170.734 9.73899C170.764 9.70714 170.789 9.66873 170.804 9.62751C170.819 9.58629 170.826 9.54227 170.824 9.49824C170.824 9.24812 170.683 9.14038 170.385 9.14038H169.905V10.3966H170.095V9.84954ZM170.095 9.30244H170.358C170.486 9.30244 170.628 9.30244 170.628 9.48512C170.628 9.6678 170.486 9.68747 170.324 9.68747H170.095V9.30244Z" fill="#F1CA00"/>
<path d="M170.323 10.8154C170.538 10.8135 170.747 10.747 170.924 10.6262C171.101 10.5044 171.239 10.3339 171.319 10.1353C171.399 9.93575 171.419 9.71747 171.376 9.50763C171.331 9.29779 171.227 9.1048 171.075 8.95398C170.922 8.80315 170.728 8.70104 170.517 8.66076C170.307 8.61954 170.089 8.64203 169.891 8.72447C169.693 8.8069 169.523 8.94648 169.404 9.12541C169.286 9.3034 169.223 9.51325 169.223 9.72778C169.221 9.87298 169.248 10.0163 169.303 10.1493C169.358 10.2833 169.439 10.4041 169.542 10.5063C169.644 10.6074 169.767 10.6871 169.901 10.7405C170.036 10.7939 170.179 10.8191 170.323 10.8154ZM170.323 8.82939C170.564 8.82939 170.794 8.92493 170.964 9.09449C171.134 9.26405 171.229 9.49451 171.229 9.73527C171.229 9.97509 171.134 10.2055 170.964 10.3751C170.794 10.5447 170.564 10.6402 170.323 10.6402C170.084 10.6402 169.853 10.5447 169.684 10.3751C169.514 10.2055 169.419 9.97509 169.419 9.73527C169.419 9.49451 169.514 9.26405 169.684 9.09449C169.853 8.92493 170.084 8.82939 170.323 8.82939Z" fill="#F1CA00"/>
<path d="M163.399 9.70151H155.333V10.1399C155.333 11.6463 156.684 10.3629 156.684 12.2281V24.2594C156.684 25.2796 156.286 25.3611 155.914 25.4688C155.536 25.3948 155.022 25.3742 154.61 24.3137L148.997 10.0931C148.848 9.70151 148.733 9.1947 148.436 9.1947C148.23 9.22562 148.031 9.29868 147.855 9.41016L145.787 10.3835C145.598 10.4847 145.206 10.5999 145.206 10.8969C145.291 11.206 145.403 11.5077 145.545 11.7953L145.768 12.3564L141.443 23.361C140.133 26.7391 139.188 24.5498 139.188 26.4009V26.7663H144.268V26.4009C144.268 24.7728 142.632 26.0834 142.632 24.7728C142.664 24.3212 142.79 23.8819 143.004 23.4828L143.679 21.8546H149.341L150.287 24.0908C150.42 24.3287 150.496 24.5948 150.51 24.8674C150.51 25.9147 149.159 24.7456 149.159 26.4009V26.7663H162.799C166.98 26.7663 171.452 23.9896 171.452 18.0849C171.493 12.836 167.703 9.70151 163.399 9.70151ZM144.166 20.5103L146.524 14.4305L148.956 20.5103H144.166ZM161.987 25.422H160.704V11.0655H162.474C163.082 11.0655 167.122 11.1404 167.122 18.2133C167.122 22.6856 166.001 25.4285 161.987 25.4285V25.422Z" fill="#F1CA00"/>
<path d="M93.3703 25.4286H89.3169V18.6321H90.945C92.7218 18.6321 91.7962 20.4289 93.2082 20.4289H93.8835V15.5716H93.4446C91.7692 15.5716 93.0798 17.2747 90.9653 17.2747H89.3101V11.0656H92.4718C95.2615 11.0656 94.4381 13.7683 95.8499 13.7683H96.5796V9.71472H83.9395V10.1541C83.9395 11.6605 85.2905 10.377 85.2905 12.2413V24.2736C85.2905 26.1518 83.9395 24.8609 83.9395 26.3673V26.8067H97.552V22.3072H96.944C95.0929 22.2941 96.8429 25.4286 93.3703 25.4286Z" fill="#F1CA00"/>
<path d="M127.182 9.70056V13.7878H127.857C129.506 13.7878 127.371 10.9643 131.498 10.9643H132.397V24.2594C132.397 26.1845 130.844 24.7999 130.844 26.4281V26.7925H137.964V26.4281C137.964 24.7999 136.41 26.1845 136.41 24.2594V10.9643H137.308C141.444 10.9643 139.301 13.7878 140.956 13.7878H141.632V9.70056H127.182Z" fill="#F1CA00"/>
</svg>
