<svg width="75" height="76" viewBox="0 0 75 76" fill="none" xmlns="http://www.w3.org/2000/svg">
<path d="M73.2352 70.1593C73.2341 71.0492 72.8807 71.9025 72.2523 72.5327C71.6239 73.1631 70.7716 73.5191 69.8818 73.5232H5.11784C4.22955 73.5167 3.37966 73.1597 2.75341 72.5297C2.12716 71.8997 1.77511 71.0477 1.77397 70.1593V5.13777C1.77454 4.24905 2.12625 3.39656 2.75262 2.76606C3.37898 2.13557 4.22909 1.77816 5.11784 1.77173H69.8795C70.7705 1.77641 71.6216 2.13297 72.25 2.76359C72.8784 3.39422 73.2318 4.2477 73.233 5.13777L73.2352 70.1593ZM69.8795 0H5.11784C3.7583 0.00411037 2.45591 0.547366 1.49648 1.51057C0.53705 2.47377 -0.00113457 3.77825 1.7959e-06 5.13777V70.1593C-0.00113457 71.5189 0.53705 72.8234 1.49648 73.7866C2.45591 74.7498 3.7583 75.2931 5.11784 75.2972H69.8795C71.2398 75.2936 72.5432 74.7506 73.5023 73.7874C74.4625 72.8241 75.0011 71.5193 75 70.1593V5.13777C75.0011 3.77786 74.4625 2.47306 73.5023 1.50978C72.5432 0.546522 71.2398 0.0035241 69.8795 0Z" fill="white"/>
<path d="M73.2348 70.1593C73.2337 71.0495 72.8814 71.9034 72.253 72.5341C71.6246 73.1649 70.7723 73.5212 69.8814 73.5253H5.11731C4.22867 73.519 3.37856 73.1615 2.75219 72.531C2.12583 71.9006 1.77401 71.0481 1.77344 70.1593V5.13772C1.77401 4.249 2.12583 3.39651 2.75219 2.76601C3.37856 2.13551 4.22867 1.77811 5.11731 1.77167H69.8791C70.77 1.77635 71.6212 2.13292 72.2496 2.76354C72.878 3.39417 73.2314 4.24764 73.2325 5.13772L73.2348 70.1593Z" fill="#003E7E"/>
<path d="M43.7504 60.0367H40.8913V56.3823H43.7504C44.872 56.3823 45.5595 56.9102 45.5595 58.1873C45.5595 59.4247 44.9254 60.0345 43.7504 60.0345V60.0367ZM46.1231 61.7818C47.7345 61.1631 48.5481 59.9946 48.5481 58.1386C48.5481 58.0344 48.5481 57.9368 48.5356 57.8348C48.3867 55.3956 46.4822 54.2115 44.1867 54.2115H37.9561V66.5959H40.8833V62.1367H42.9811L45.2447 66.5959H48.5617L46.1231 61.7818Z" fill="white"/>
<path d="M22.3854 54.2071H19.0592L17.0115 59.6264L14.7081 55.5974C14.4467 55.1938 14.0933 54.8577 13.6786 54.6161C13.2626 54.3745 12.7956 54.2344 12.316 54.2071H10.6436L15.6945 63.1166L14.3751 66.5958H16.107C16.5717 66.5722 17.0195 66.4194 17.4024 66.1545C17.7842 65.8896 18.0842 65.5233 18.2695 65.0969L22.3854 54.2071Z" fill="white"/>
<path d="M31.9835 63.2852L33.2346 66.598H36.3653L32.2562 55.7105C32.071 55.284 31.771 54.9177 31.3892 54.6528C31.0074 54.388 30.5585 54.2352 30.0949 54.2115H26.5108L21.8369 66.6003H23.404C23.8642 66.5739 24.3074 66.4196 24.6846 66.1548C25.0619 65.89 25.3574 65.5251 25.538 65.1013L26.2233 63.2875H31.988L31.9835 63.2852ZM31.2005 61.2053H27.0096L28.7642 56.5487C28.9506 56.0542 29.2562 56.0542 29.4426 56.5487L31.196 61.2053" fill="white"/>
<path d="M53.9075 63.2853H59.6723L60.3575 65.0991C60.5382 65.5229 60.8337 65.8878 61.2109 66.1526C61.5882 66.4175 62.0314 66.5718 62.4905 66.5981H64.0587L59.3825 54.2094H55.7939C55.3303 54.233 54.8814 54.3858 54.4996 54.6507C54.1178 54.9156 53.8178 55.2818 53.6325 55.7083L49.5234 66.5959H52.6587L53.9075 63.2853ZM56.4484 56.5532C56.6348 56.0587 56.9405 56.0587 57.1269 56.5532L58.8837 61.2098H54.695L56.4484 56.5532Z" fill="white"/>
<path fill-rule="evenodd" clip-rule="evenodd" d="M41.563 36.011C40.9312 36.0088 40.3141 36.194 39.788 36.5431C39.2618 36.892 38.8516 37.3893 38.6084 37.9717C38.3652 38.5542 38.3005 39.1957 38.4232 39.8149C38.5448 40.4342 38.8471 41.0034 39.2925 41.4504C39.738 41.8975 40.3062 42.2023 40.9255 42.3262C41.5437 42.4502 42.1857 42.3877 42.7687 42.1467C43.3527 41.9057 43.8516 41.4969 44.2016 40.9724C44.5527 40.4477 44.7402 39.8308 44.7402 39.1996C44.7414 38.7816 44.6596 38.3675 44.5005 37.981C44.3414 37.5944 44.1073 37.2431 43.8118 36.9469C43.5175 36.6508 43.1664 36.4158 42.78 36.2551C42.3948 36.0945 41.9811 36.0116 41.563 36.011ZM33.4959 36.011C32.8641 36.0088 32.2471 36.194 31.7209 36.5431C31.1948 36.892 30.7846 37.3893 30.5414 37.9717C30.2982 38.5542 30.2334 39.1957 30.3561 39.8149C30.4777 40.4342 30.78 41.0034 31.2255 41.4504C31.6709 41.8975 32.2391 42.2023 32.8584 42.3262C33.4766 42.4502 34.1187 42.3877 34.7016 42.1467C35.2857 41.9057 35.7846 41.4969 36.1346 40.9724C36.4857 40.4477 36.6732 39.8308 36.6732 39.1996C36.6743 38.3556 36.3402 37.5455 35.7448 36.9476C35.1482 36.3496 34.3402 36.0128 33.4959 36.011ZM49.6323 36.011C49.0005 36.0088 48.3834 36.194 47.8573 36.5431C47.3312 36.892 46.9209 37.3893 46.6777 37.9717C46.4346 38.5542 46.3698 39.1957 46.4914 39.8149C46.6141 40.4342 46.9164 41.0034 47.3618 41.4504C47.8073 41.8975 48.3755 42.2023 48.9948 42.3262C49.613 42.4502 50.255 42.3877 50.838 42.1467C51.4221 41.9057 51.9198 41.4969 52.2709 40.9724C52.6221 40.4477 52.8096 39.8308 52.8096 39.1996C52.8107 38.3556 52.4766 37.5455 51.8812 36.9476C51.2846 36.3496 50.4755 36.0128 49.6323 36.011ZM25.4289 36.011C24.7971 36.0084 24.18 36.193 23.6539 36.5418C23.1277 36.8904 22.7164 37.3874 22.4732 37.9696C22.23 38.5519 22.1652 39.1934 22.2857 39.8127C22.4073 40.4321 22.7096 41.0015 23.155 41.4488C23.6005 41.8962 24.1687 42.2015 24.7868 42.3258C25.4062 42.4501 26.0471 42.3881 26.6311 42.1475C27.2141 41.9069 27.713 41.4985 28.0641 40.9742C28.4152 40.4499 28.6039 39.833 28.6039 39.2019C28.605 38.7836 28.5243 38.3693 28.3652 37.9825C28.205 37.5957 27.9721 37.2441 27.6766 36.9477C27.3812 36.6513 27.0312 36.4161 26.6448 36.2553C26.2584 36.0946 25.8448 36.0116 25.4266 36.011H25.4289ZM62.8698 40.9382C62.0402 39.2396 60.5948 36.3503 60.3312 35.3724C60.3312 35.3724 59.4618 33.155 61.7993 32.7891C62.2516 32.741 62.6721 32.5316 62.9846 32.199C63.2959 31.8663 63.4766 31.4327 63.4948 30.9775L63.4846 29.8887C63.48 29.8129 63.4493 29.741 63.3971 29.6862C63.3448 29.6316 63.2732 29.5979 63.1982 29.5916H59.3391C59.2732 29.5916 56.63 29.8887 56.5971 33.1217C56.5164 38.6409 56.6346 39.3793 55.1573 39.6254C55.0925 39.6194 55.0323 39.5894 54.9891 39.5415C54.9448 39.4935 54.9209 39.431 54.9198 39.366C54.9198 39.3106 54.9198 39.2551 54.9198 39.1996C54.9277 38.1429 54.6175 37.1083 54.0312 36.2293C53.4448 35.3503 52.6084 34.6674 51.6289 34.2685C50.6505 33.8696 49.5755 33.7733 48.5414 33.9918C47.5073 34.2103 46.563 34.7337 45.8289 35.4943C45.805 35.5378 45.7709 35.5742 45.7277 35.5995C45.6857 35.6249 45.6368 35.6383 45.5868 35.6383C45.538 35.6383 45.4891 35.6249 45.4471 35.5995C45.4039 35.5742 45.3687 35.5378 45.3459 35.4943C44.8539 34.9848 44.2652 34.5793 43.6141 34.3025C42.963 34.0255 42.263 33.8828 41.555 33.8828C40.8471 33.8828 40.1471 34.0255 39.4948 34.3025C38.8437 34.5793 38.255 34.9848 37.7641 35.4943C37.7402 35.5373 37.705 35.573 37.663 35.5978C37.6198 35.6227 37.5721 35.6359 37.5221 35.6359C37.4732 35.6359 37.4243 35.6227 37.3823 35.5978C37.3402 35.573 37.305 35.5373 37.2812 35.4943C36.7891 34.9848 36.2005 34.5793 35.5493 34.3025C34.8982 34.0255 34.1982 33.8828 33.4902 33.8828C32.7823 33.8828 32.0823 34.0255 31.43 34.3025C30.7789 34.5793 30.1902 34.9848 29.6993 35.4943C29.6755 35.5373 29.6402 35.573 29.5982 35.5978C29.555 35.6227 29.5073 35.6359 29.4573 35.6359C29.4084 35.6359 29.3596 35.6227 29.3175 35.5978C29.2755 35.573 29.2402 35.5373 29.2164 35.4943C28.4823 34.7337 27.538 34.2103 26.5039 33.9918C25.4698 33.7733 24.3937 33.8696 23.4152 34.2685C22.4368 34.6674 21.6005 35.3503 21.0141 36.2293C20.4266 37.1083 20.1175 38.1429 20.1243 39.1996C20.1243 39.2551 20.1243 39.3083 20.1243 39.3637C20.1221 39.4345 20.0914 39.5015 20.0402 39.5502C19.9891 39.5991 19.9209 39.626 19.8493 39.6254C18.3527 39.3837 18.4721 38.6609 18.3925 33.1195C18.3596 29.8865 15.7164 29.5893 15.6493 29.5893H11.805C11.7289 29.5958 11.6584 29.6294 11.6061 29.6841C11.5527 29.7387 11.5221 29.8107 11.5187 29.8865V30.9752C11.5368 31.4307 11.7175 31.8645 12.0289 32.1973C12.3402 32.5299 12.7618 32.7393 13.2152 32.7869C15.5516 33.1527 14.6834 35.3702 14.6834 35.3702C14.4164 36.348 12.9732 39.2374 12.1436 40.9359C11.6141 42.0446 10.5341 44.7499 12.2255 47.3665C13.2062 48.8832 14.3675 50.2979 18.4834 50.2336H56.5437C60.6743 50.2979 61.8187 48.8832 62.7993 47.3665C64.4868 44.7521 63.4084 42.0446 62.8789 40.9359L62.8698 40.9382ZM36.3255 31.2746C36.4584 31.3744 36.8391 31.3588 37.1698 31.3588H42.5732C39.8357 28.9441 38.1118 22.895 38.1118 19.2295C38.1118 15.5642 39.8414 9.50169 42.5732 7.10244H37.163C36.83 7.10244 36.4516 7.08691 36.3187 7.1867C36.3187 7.1867 31.4732 11.9386 31.4732 19.2295C31.4732 26.5204 36.3187 31.2768 36.3187 31.2768L36.3255 31.2746ZM47.9868 31.2768C48.1175 31.3766 48.5005 31.3611 48.8334 31.3611H54.2596C51.505 28.9463 49.7959 22.8971 49.7959 19.2318C49.7959 15.5663 51.505 9.5039 54.2596 7.10465H48.838C48.505 7.10465 48.1243 7.08913 47.9914 7.18891C47.9914 7.18891 43.1437 11.8456 43.1437 19.2318C43.1437 26.618 47.9914 31.2791 47.9914 31.2791L47.9868 31.2768ZM19.7982 19.2295C19.7982 11.8521 24.6573 7.1867 24.6573 7.1867C24.7743 7.08691 25.1732 7.10244 25.4857 7.10244H30.9141C28.1755 9.50169 26.4664 15.5486 26.4664 19.2295C26.4664 22.9104 28.1755 28.9441 30.9141 31.3588H25.488C25.1755 31.3588 24.7766 31.3744 24.6596 31.2746C24.6596 31.2746 19.8005 26.6046 19.8005 19.2274" fill="white"/>
</svg>
