<svg width="40" height="40" viewBox="0 0 40 40" fill="none" xmlns="http://www.w3.org/2000/svg">
<path d="M35 15.0943C35 23.4307 20 40 20 40C20 40 5 23.4307 5 15.0943C5 6.75797 11.7157 0 20 0C28.2843 0 35 6.75797 35 15.0943Z" fill="#FF0000"/>
<path d="M13.284 22.4301C14.4504 20.4904 15.7921 18.4489 17.2484 16.4143C19.7228 12.9622 22.3117 9.82882 24.6041 7.47541C23.1612 6.5666 21.4555 6.0376 19.6283 6.0376C14.4504 6.0376 10.25 10.2629 10.25 15.4716C10.2433 18.2319 11.4164 20.7074 13.284 22.4301Z" fill="white"/>
<path d="M27.7194 10.7173C26.917 12.9418 25.7102 15.5936 24.1865 18.4354C24.9483 15.7361 24.9955 13.8642 24.146 13.3623C22.5616 12.4264 18.3545 16.55 14.0059 23.0269C15.57 24.207 17.5185 24.9055 19.622 24.9055C24.8 24.9055 29.0004 20.6803 29.0004 15.4716C29.0004 13.7421 28.5352 12.1144 27.7194 10.7173Z" fill="white"/>
</svg>
