<svg width="32" height="32" viewBox="0 0 32 32" fill="none" xmlns="http://www.w3.org/2000/svg">
<path d="M11.5 29.5C12.8807 29.5 14 28.3807 14 27C14 25.6193 12.8807 24.5 11.5 24.5C10.1193 24.5 9 25.6193 9 27C9 28.3807 10.1193 29.5 11.5 29.5Z" fill="black"/>
<path d="M24.5 29.5C25.8807 29.5 27 28.3807 27 27C27 25.6193 25.8807 24.5 24.5 24.5C23.1193 24.5 22 25.6193 22 27C22 28.3807 23.1193 29.5 24.5 29.5Z" fill="black"/>
<path d="M6.7875 9H18M3 4H4.6C4.81744 3.99977 5.02903 4.07042 5.20271 4.20125C5.3764 4.33207 5.5027 4.51594 5.5625 4.725L9.8 19.55C9.91959 19.9681 10.1722 20.3359 10.5196 20.5975C10.8669 20.8592 11.2901 21.0005 11.725 21H24.275C24.7099 21.0005 25.1331 20.8592 25.4804 20.5975C25.8278 20.3359 26.0804 19.9681 26.2 19.55L27 17.5" stroke="black" stroke-width="3" stroke-linecap="round" stroke-linejoin="round"/>
<path d="M30 9.5C30 11.7086 28.2061 13.5 26 13.5C23.7921 13.5 22 11.7088 22 9.5C22 7.29121 23.7921 5.5 26 5.5C28.2061 5.5 30 7.29136 30 9.5ZM29 9.5C29 8.94772 28.5523 8.5 28 8.5H27V7.5C27 6.94772 26.5523 6.5 26 6.5C25.4477 6.5 25 6.94772 25 7.5V8.5H24C23.4477 8.5 23 8.94771 23 9.5C23 10.0523 23.4477 10.5 24 10.5H25V11.5C25 12.0523 25.4477 12.5 26 12.5C26.5523 12.5 27 12.0523 27 11.5V10.5H28C28.5523 10.5 29 10.0523 29 9.5Z" fill="black" stroke="black"/>
</svg>
