<svg width="32" height="32" viewBox="0 0 32 32" fill="none" xmlns="http://www.w3.org/2000/svg">
<path d="M10 29.5C11.3807 29.5 12.5 28.3807 12.5 27C12.5 25.6193 11.3807 24.5 10 24.5C8.61929 24.5 7.5 25.6193 7.5 27C7.5 28.3807 8.61929 29.5 10 29.5Z" fill="black"/>
<path d="M23 29.5C24.3807 29.5 25.5 28.3807 25.5 27C25.5 25.6193 24.3807 24.5 23 24.5C21.6193 24.5 20.5 25.6193 20.5 27C20.5 28.3807 21.6193 29.5 23 29.5Z" fill="black"/>
<path d="M5.2875 9H27.7125L24.7 19.55C24.5804 19.9681 24.3278 20.3359 23.9804 20.5975C23.6331 20.8592 23.2099 21.0005 22.775 21H10.225C9.79012 21.0005 9.36694 20.8592 9.01957 20.5975C8.67221 20.3359 8.41959 19.9681 8.3 19.55L4.0625 4.725C4.0027 4.51594 3.8764 4.33207 3.70271 4.20125C3.52903 4.07042 3.31744 3.99977 3.1 4H1.5" stroke="black" stroke-width="3" stroke-linecap="round" stroke-linejoin="round"/>
</svg>
