<svg width="24" height="24" viewBox="0 0 24 24" fill="none" xmlns="http://www.w3.org/2000/svg">
<path d="M9.145 18.29C4.103 18.29 0 14.188 0 9.145C0 4.102 4.103 0 9.145 0C14.187 0 18.29 4.103 18.29 9.145C18.29 14.187 14.188 18.29 9.145 18.29ZM9.145 3.123C5.824 3.123 3.123 5.825 3.123 9.145C3.123 12.465 5.825 15.167 9.145 15.167C12.465 15.167 15.168 12.465 15.168 9.145C15.168 5.825 12.466 3.123 9.145 3.123ZM18.408 15.566C17.591 16.742 16.556 17.754 15.362 18.547L20.814 24L23.828 20.987L18.408 15.566Z" fill="white"/>
</svg>
