<svg width="21" height="28" viewBox="0 0 21 28" fill="none" xmlns="http://www.w3.org/2000/svg">
<path d="M19.6422 16.6499C19.4854 16.6549 16.2082 16.7818 13.5298 18.6823C13.6265 18.1717 13.6834 17.64 13.6824 17.0919C13.6767 13.1647 10.7887 10.058 10.6644 9.92729L10.1701 9.40234L9.67583 9.92927C9.55433 10.06 6.6765 13.1764 6.68205 17.1032C6.68284 17.6489 6.74131 18.1778 6.83823 18.6859C4.15938 16.7818 0.879206 16.6553 0.722432 16.6505L0 16.6275L0.0233874 17.3496C0.0285405 17.5287 0.191657 21.7654 2.9696 24.5429C5.11608 26.6878 8.13504 27.2724 9.47902 27.4299C9.87383 27.4758 10.4906 27.4758 10.885 27.4297C12.2282 27.272 15.2482 26.6874 17.3954 24.5429C20.1742 21.7654 20.3367 17.5287 20.342 17.3494L20.3644 16.6275L19.6422 16.6499ZM10.1743 11.4609C10.9401 12.4686 12.3218 14.6272 12.3255 17.0938C12.3297 19.55 10.9544 21.7187 10.1921 22.7315C9.4259 21.7213 8.04367 19.5565 8.03931 17.1014C8.03613 14.6438 9.41242 12.4741 10.1743 11.4609ZM3.93007 23.5833C2.19147 21.8459 1.63216 19.3366 1.45695 18.0829C2.71155 18.256 5.21419 18.8107 6.96012 20.5549C8.69712 22.2912 9.25525 24.7974 9.43105 26.0533C8.17448 25.8776 5.66588 25.3202 3.93007 23.5833ZM16.436 23.5833C14.6986 25.3198 12.1906 25.8772 10.9348 26.0529C11.1102 24.7974 11.6683 22.2912 13.4053 20.5541C15.1437 18.8168 17.6543 18.2596 18.9089 18.0837C18.7353 19.3366 18.1809 21.8387 16.436 23.5833Z" fill="white"/>
<path d="M13.4433 7.27432V4.20529C14.3014 3.91924 14.9204 3.10905 14.9204 2.15959C14.9204 0.972629 13.955 0.00376374 12.765 0H7.59701C6.41079 0.00515038 5.44498 0.97461 5.44498 2.15959C5.44498 3.10865 6.06573 3.91785 6.92175 4.20529V7.27471C3.36746 8.46406 0.70527 11.539 0.0615234 15.2467C0.530658 15.2493 0.98909 15.2693 1.43226 15.3028C2.07105 12.0172 4.54199 9.33249 7.78312 8.42879L8.2794 8.29072V2.96266L7.60395 2.95988C7.16216 2.9583 6.80243 2.59936 6.80243 2.1594C6.80243 1.71864 7.16216 1.35812 7.60097 1.35594H12.7636C13.2046 1.35693 13.5638 1.71745 13.5638 2.1594C13.5638 2.59975 13.2044 2.9583 12.7636 2.95988L12.0874 2.96226V8.29013L12.5829 8.4286C15.8341 9.33387 18.3128 12.0343 18.9415 15.3347C19.3753 15.2893 19.8314 15.2542 20.3033 15.2344C19.6556 11.5315 16.9942 8.46207 13.4433 7.27432Z" fill="white"/>
</svg>
