<svg width="21" height="28" viewBox="0 0 21 28" fill="none" xmlns="http://www.w3.org/2000/svg">
<path d="M20.0067 16.6499C19.8499 16.6549 16.5727 16.7818 13.8943 18.6823C13.991 18.1717 14.0479 17.64 14.0469 17.0919C14.0412 13.1647 11.1532 10.058 11.0289 9.92729L10.5346 9.40234L10.0403 9.92927C9.91883 10.06 7.041 13.1764 7.04655 17.1032C7.04734 17.6489 7.10581 18.1778 7.20273 18.6859C4.52388 16.7818 1.24371 16.6553 1.08693 16.6505L0.364502 16.6275L0.387889 17.3496C0.393042 17.5287 0.556159 21.7654 3.3341 24.5429C5.48059 26.6878 8.49954 27.2724 9.84352 27.4299C10.2383 27.4758 10.8551 27.4758 11.2495 27.4297C12.5927 27.272 15.6127 26.6874 17.7599 24.5429C20.5387 21.7654 20.7012 17.5287 20.7065 17.3494L20.7289 16.6275L20.0067 16.6499ZM10.5388 11.4609C11.3046 12.4686 12.6863 14.6272 12.69 17.0938C12.6942 19.55 11.3189 21.7187 10.5566 22.7315C9.7904 21.7213 8.40817 19.5565 8.40381 17.1014C8.40064 14.6438 9.77692 12.4741 10.5388 11.4609ZM4.29457 23.5833C2.55598 21.8459 1.99666 19.3366 1.82146 18.0829C3.07605 18.256 5.57869 18.8107 7.32462 20.5549C9.06163 22.2912 9.61975 24.7974 9.79555 26.0533C8.53898 25.8776 6.03039 25.3202 4.29457 23.5833ZM16.8005 23.5833C15.0631 25.3198 12.5551 25.8772 11.2993 26.0529C11.4747 24.7974 12.0328 22.2912 13.7698 20.5541C15.5082 18.8168 18.0188 18.2596 19.2734 18.0837C19.0998 19.3366 18.5454 21.8387 16.8005 23.5833Z" fill="#FF0000"/>
<path d="M13.8078 7.27432V4.20529C14.666 3.91924 15.2849 3.10905 15.2849 2.15959C15.2849 0.972629 14.3195 0.00376374 13.1295 0H7.96151C6.7753 0.00515038 5.80948 0.97461 5.80948 2.15959C5.80948 3.10865 6.43023 3.91785 7.28625 4.20529V7.27471C3.73197 8.46406 1.06977 11.539 0.426025 15.2467C0.89516 15.2493 1.35359 15.2693 1.79676 15.3028C2.43555 12.0172 4.90649 9.33249 8.14762 8.42879L8.64391 8.29072V2.96266L7.96845 2.95988C7.52666 2.9583 7.16693 2.59936 7.16693 2.1594C7.16693 1.71864 7.52666 1.35812 7.96548 1.35594H13.1281C13.5691 1.35693 13.9283 1.71745 13.9283 2.1594C13.9283 2.59975 13.5689 2.9583 13.1281 2.95988L12.4519 2.96226V8.29013L12.9474 8.4286C16.1986 9.33387 18.6773 12.0343 19.306 15.3347C19.7398 15.2893 20.1959 15.2542 20.6678 15.2344C20.0201 11.5315 17.3587 8.46207 13.8078 7.27432Z" fill="#FF0000"/>
</svg>
