<svg width="32" height="32" viewBox="0 0 32 32" fill="none" xmlns="http://www.w3.org/2000/svg">
<path d="M29.3329 22.56V26.56C29.3344 26.9313 29.2584 27.2989 29.1096 27.6391C28.9608 27.9794 28.7427 28.2848 28.469 28.5358C28.1954 28.7869 27.8724 28.978 27.5206 29.0969C27.1688 29.2159 26.7961 29.2601 26.4263 29.2267C22.3234 28.7809 18.3823 27.3789 14.9196 25.1333C11.698 23.0862 8.9667 20.3549 6.91959 17.1333C4.66622 13.6549 3.26391 9.69466 2.82625 5.57333C2.79293 5.20462 2.83675 4.83301 2.95492 4.48216C3.07309 4.13132 3.26301 3.80892 3.51261 3.53549C3.7622 3.26207 4.06599 3.04361 4.40464 2.89403C4.74329 2.74444 5.10937 2.66701 5.47959 2.66666H9.47959C10.1267 2.6603 10.754 2.88944 11.2446 3.31137C11.7352 3.73331 12.0557 4.31926 12.1463 4.96C12.3151 6.24009 12.6282 7.49697 13.0796 8.70666C13.259 9.1839 13.2978 9.70255 13.1915 10.2012C13.0851 10.6998 12.8381 11.1575 12.4796 11.52L10.7863 13.2133C12.6843 16.5514 15.4482 19.3153 18.7863 21.2133L20.4796 19.52C20.8421 19.1615 21.2998 18.9145 21.7984 18.8081C22.297 18.7018 22.8157 18.7406 23.2929 18.92C24.5026 19.3714 25.7595 19.6845 27.0396 19.8533C27.6873 19.9447 28.2788 20.2709 28.7016 20.77C29.1245 21.269 29.3491 21.9061 29.3329 22.56Z" stroke="black" stroke-width="3" stroke-linecap="round" stroke-linejoin="round"/>
</svg>
