<svg width="40" height="40" viewBox="0 0 40 40" fill="none" xmlns="http://www.w3.org/2000/svg">
<path d="M23.2058 19.666L18.7138 17.57C18.3218 17.3881 17.9998 17.592 17.9998 18.026V21.9741C17.9998 22.4081 18.3218 22.612 18.7138 22.43L23.2038 20.334C23.5978 20.15 23.5978 19.85 23.2058 19.666ZM19.9998 0.800049C9.39581 0.800049 0.799805 9.39605 0.799805 20C0.799805 30.604 9.39581 39.2001 19.9998 39.2001C30.6038 39.2001 39.1998 30.604 39.1998 20C39.1998 9.39605 30.6038 0.800049 19.9998 0.800049ZM19.9998 27.8C10.1718 27.8 9.9998 26.914 9.9998 20C9.9998 13.0861 10.1718 12.2 19.9998 12.2C29.8278 12.2 29.9998 13.0861 29.9998 20C29.9998 26.914 29.8278 27.8 19.9998 27.8Z" fill="#FAFAFA"/>
</svg>
