<svg width="40" height="40" viewBox="0 0 40 40" fill="none" xmlns="http://www.w3.org/2000/svg">
<path d="M13.167 39.4903C16.7979 39.4903 19.7448 36.5434 19.7448 32.9125V19.757C19.7448 23.3879 16.7979 26.3347 13.167 26.3347" fill="#FAFAFA"/>
<path d="M13.1666 26.3347H6.58887V39.4902H13.1666V26.3347Z" fill="#FAFAFA"/>
<path d="M0.0117188 13.1792C0.0117188 16.8101 2.95856 19.757 6.58949 19.757H19.745C16.1141 19.757 13.1673 16.8101 13.1673 13.1792" fill="#FAFAFA"/>
<path d="M13.1553 13.1674L13.1553 6.5896L-0.000258446 6.5896L-0.000258446 13.1674L13.1553 13.1674Z" fill="#FAFAFA"/>
<path d="M39.4784 26.3347C39.4784 22.7038 36.5316 19.757 32.9007 19.757H19.7451C23.376 19.757 26.3229 22.7038 26.3229 26.3347" fill="#FAFAFA"/>
<path d="M26.334 26.3232V32.901H39.4895V26.3232H26.334Z" fill="#FAFAFA"/>
<path d="M26.3229 0.0236816C22.692 0.0236816 19.7451 2.97052 19.7451 6.60145V19.757C19.7451 16.1261 22.692 13.1792 26.3229 13.1792" fill="black"/>
<path d="M26.3226 13.1555H32.9004V-1.43051e-05H26.3226V13.1555Z" fill="black"/>
</svg>
