<svg width="18" height="18" viewBox="0 0 52 52" fill="none" xmlns="http://www.w3.org/2000/svg">
<g clip-path="url(#clip0_413_3739)">
<path d="M8.27213 45.3016C11.4523 39.9411 15.1104 34.2995 19.081 28.6767C25.8273 19.1365 32.8861 10.4773 39.1361 3.97349C35.2023 1.46194 30.5515 0 25.5699 0C11.4523 0 7.88122e-05 11.6769 7.88122e-05 26.0714C-0.0183035 33.6998 3.18022 40.5409 8.27213 45.3016Z" fill="#FF0000"/>
<path d="M47.6289 12.9325C45.4414 19.0802 42.151 26.4087 37.9966 34.262C40.0738 26.8023 40.2025 21.6292 37.8863 20.2423C33.5665 17.6557 22.0959 29.0515 10.2393 46.9509C14.504 50.2122 19.8165 52.1426 25.5517 52.1426C39.6694 52.1426 51.1216 40.4659 51.1216 26.0713C51.1216 21.2919 49.8532 16.7935 47.6289 12.9325Z" fill="#FF0000"/>
</g>
<defs>
<clipPath id="clip0_413_3739">
<rect width="52" height="52" fill="white"/>
</clipPath>
</defs>
</svg>
