<svg width="250" height="52" viewBox="0 0 250 52" fill="none" xmlns="http://www.w3.org/2000/svg">
<g clip-path="url(#clip0_413_3739)">
<path d="M80.7357 29.1452L85.5886 17.7495L90.4416 29.1452H80.7357ZM89.4489 13.045H82.0225L70.46 39.1914H76.4158L78.7504 33.7559H92.4085L94.743 39.1914H101.011L89.4489 13.045Z" fill="#FF0000"/>
<path d="M102.537 19.0803V39.1915H108.07V23.8222H119.118V19.0803H102.537Z" fill="#FF0000"/>
<path d="M120.956 45.2264H126.489V36.9795C128.272 38.6663 130.754 39.6036 133.713 39.6036C140.313 39.6036 144.724 35.4239 144.724 29.145C144.724 22.8287 140.386 18.6864 133.75 18.6864C130.68 18.6864 128.107 19.7361 126.287 21.5354V19.0801H120.956V45.2264ZM139.081 29.145C139.081 32.8936 136.508 35.3864 132.647 35.3864C128.787 35.3864 126.213 32.8936 126.213 29.145C126.213 25.3964 128.787 22.9036 132.647 22.9036C136.508 22.9036 139.081 25.3964 139.081 29.145Z" fill="#FF0000"/>
<path d="M152.041 29.145C152.041 25.3964 154.614 22.9036 158.474 22.9036C162.335 22.9036 164.908 25.3964 164.908 29.145C164.908 32.8935 162.335 35.3864 158.474 35.3864C154.614 35.3864 152.041 32.8749 152.041 29.145ZM146.36 29.145C146.36 35.4613 151.14 39.6036 158.438 39.6036C165.699 39.6036 170.552 35.4239 170.552 29.145C170.552 22.8287 165.772 18.6864 158.474 18.6864C151.213 18.6864 146.36 22.8661 146.36 29.145Z" fill="#FF0000"/>
<path d="M172.206 29.145C172.206 35.4239 176.949 39.6036 184.008 39.6036C190.276 39.6036 194.614 36.4735 195.46 31.5628H189.651C189.136 33.9057 187.004 35.3864 184.008 35.3864C180.331 35.3864 177.886 32.8935 177.886 29.145C177.886 25.3964 180.331 22.9036 184.008 22.9036C186.894 22.9036 189.063 24.3843 189.614 26.7271H195.46C194.633 21.8165 190.294 18.6864 184.008 18.6864C176.93 18.6864 172.206 22.8661 172.206 29.145Z" fill="#FF0000"/>
<path d="M202.335 27.0458C203.015 24.478 204.982 22.9036 208.364 22.9036C211.599 22.9036 213.658 24.3468 214.32 27.0458H202.335ZM208.382 39.6036C214.062 39.6036 218.529 36.7546 219.504 32.6499H213.695C213.07 34.2618 211.011 35.3864 208.493 35.3864C204.945 35.3864 202.849 33.6246 202.261 30.7943H219.908C219.982 30.2696 220.018 29.7072 220.018 29.145C220.018 22.9036 215.331 18.6864 208.382 18.6864C201.36 18.6864 196.71 22.8661 196.71 29.145C196.691 35.4613 201.36 39.6036 208.382 39.6036Z" fill="#FF0000"/>
<path d="M230.386 19.08H221.82V39.1911H227.261V24.5904L232.904 39.1911H238.915L244.559 24.5904V39.1911H250V19.08H241.746L236.066 33.7744L230.386 19.08Z" fill="#FF0000"/>
<path d="M8.27213 45.3016C11.4523 39.9411 15.1104 34.2995 19.081 28.6767C25.8273 19.1365 32.8861 10.4773 39.1361 3.97349C35.2023 1.46194 30.5515 0 25.5699 0C11.4523 0 7.88122e-05 11.6769 7.88122e-05 26.0714C-0.0183035 33.6998 3.18022 40.5409 8.27213 45.3016Z" fill="#FF0000"/>
<path d="M47.6289 12.9325C45.4414 19.0802 42.151 26.4087 37.9966 34.262C40.0738 26.8023 40.2025 21.6292 37.8863 20.2423C33.5665 17.6557 22.0959 29.0515 10.2393 46.9509C14.504 50.2122 19.8165 52.1426 25.5517 52.1426C39.6694 52.1426 51.1216 40.4659 51.1216 26.0713C51.1216 21.2919 49.8532 16.7935 47.6289 12.9325Z" fill="#FF0000"/>
</g>
<defs>
<clipPath id="clip0_413_3739">
<rect width="250" height="52" fill="white"/>
</clipPath>
</defs>
</svg>
