<svg width="179" height="179" viewBox="0 0 179 179" fill="none" xmlns="http://www.w3.org/2000/svg">
<g style="mix-blend-mode:multiply">
<path d="M28.9645 155.515C40.0998 137.113 52.9084 117.746 66.8113 98.4438C90.4332 65.6935 115.149 35.9674 137.033 13.6406C123.259 5.01869 106.975 0 89.5319 0C40.0998 0 0.000275958 40.0853 0.000275958 89.5001C-0.0640889 115.688 11.1354 139.173 28.9645 155.515Z" fill="#FF0000"/>
<path d="M166.77 44.396C159.111 65.5005 147.59 90.6581 133.043 117.618C140.317 92.0096 140.767 74.251 132.657 69.4896C117.532 60.6103 77.3677 99.7307 35.8523 161.177C50.785 172.373 69.3865 179 89.468 179C138.901 179 179 138.915 179 89.4999C179 73.0927 174.559 57.6506 166.77 44.396Z" fill="#FF0000"/>
</g>
</svg>
