<svg width="250" height="52" viewBox="0 0 250 52" fill="none" xmlns="http://www.w3.org/2000/svg">
<g clip-path="url(#clip0_279_15226)">
<path d="M80.7357 29.1453L85.5886 17.7496L90.4416 29.1453H80.7357ZM89.4489 13.0452H82.0225L70.46 39.1915H76.4158L78.7504 33.7561H92.4085L94.743 39.1915H101.011L89.4489 13.0452Z" fill="white"/>
<path d="M102.537 19.0803V39.1915H108.07V23.8222H119.118V19.0803H102.537Z" fill="white"/>
<path d="M120.956 45.2265H126.489V36.9796C128.272 38.6665 130.754 39.6037 133.713 39.6037C140.313 39.6037 144.724 35.424 144.724 29.1452C144.724 22.8288 140.386 18.6865 133.75 18.6865C130.68 18.6865 128.107 19.7362 126.287 21.5355V19.0802H120.956V45.2265ZM139.081 29.1452C139.081 32.8937 136.508 35.3865 132.647 35.3865C128.787 35.3865 126.213 32.8937 126.213 29.1452C126.213 25.3966 128.787 22.9037 132.647 22.9037C136.508 22.9037 139.081 25.3966 139.081 29.1452Z" fill="white"/>
<path d="M152.041 29.1452C152.041 25.3966 154.614 22.9037 158.474 22.9037C162.335 22.9037 164.908 25.3966 164.908 29.1452C164.908 32.8936 162.335 35.3865 158.474 35.3865C154.614 35.3865 152.041 32.875 152.041 29.1452ZM146.36 29.1452C146.36 35.4614 151.14 39.6037 158.438 39.6037C165.699 39.6037 170.552 35.424 170.552 29.1452C170.552 22.8288 165.772 18.6865 158.474 18.6865C151.213 18.6865 146.36 22.8662 146.36 29.1452Z" fill="white"/>
<path d="M172.206 29.1452C172.206 35.424 176.949 39.6037 184.008 39.6037C190.276 39.6037 194.614 36.4736 195.46 31.5629H189.651C189.136 33.9058 187.004 35.3865 184.008 35.3865C180.331 35.3865 177.886 32.8936 177.886 29.1452C177.886 25.3966 180.331 22.9037 184.008 22.9037C186.894 22.9037 189.063 24.3844 189.614 26.7273H195.46C194.633 21.8166 190.294 18.6865 184.008 18.6865C176.93 18.6865 172.206 22.8662 172.206 29.1452Z" fill="white"/>
<path d="M202.335 27.0459C203.015 24.4781 204.982 22.9037 208.364 22.9037C211.599 22.9037 213.658 24.3469 214.32 27.0459H202.335ZM208.382 39.6037C214.062 39.6037 218.529 36.7547 219.504 32.6501H213.695C213.07 34.2619 211.011 35.3865 208.493 35.3865C204.945 35.3865 202.849 33.6247 202.261 30.7945H219.908C219.982 30.2697 220.018 29.7074 220.018 29.1452C220.018 22.9037 215.331 18.6865 208.382 18.6865C201.36 18.6865 196.71 22.8662 196.71 29.1452C196.691 35.4614 201.36 39.6037 208.382 39.6037Z" fill="white"/>
<path d="M230.386 19.0801H221.82V39.1912H227.261V24.5905L232.904 39.1912H238.915L244.559 24.5905V39.1912H250V19.0801H241.746L236.066 33.7746L230.386 19.0801Z" fill="white"/>
<path d="M8.27213 45.3016C11.4523 39.9411 15.1104 34.2995 19.081 28.6767C25.8273 19.1365 32.8861 10.4773 39.1361 3.97349C35.2023 1.46194 30.5515 0 25.5699 0C11.4523 0 7.88122e-05 11.6769 7.88122e-05 26.0714C-0.0183035 33.6998 3.18022 40.5409 8.27213 45.3016Z" fill="white"/>
<path d="M47.6289 12.9324C45.4414 19.0801 42.151 26.4085 37.9966 34.2619C40.0738 26.8022 40.2025 21.6291 37.8863 20.2421C33.5665 17.6556 22.0959 29.0514 10.2393 46.9508C14.504 50.2121 19.8165 52.1425 25.5517 52.1425C39.6694 52.1425 51.1216 40.4658 51.1216 26.0711C51.1216 21.2917 49.8532 16.7934 47.6289 12.9324Z" fill="white"/>
</g>
<defs>
<clipPath id="clip0_279_15226">
<rect width="250" height="52" fill="white"/>
</clipPath>
</defs>
</svg>
