<svg width="211" height="203" viewBox="0 0 211 203" fill="none" xmlns="http://www.w3.org/2000/svg">
<path fill-rule="evenodd" clip-rule="evenodd" d="M13.7513 106.241C24.065 106.241 35.6678 104.302 47.2707 104.517C45.122 108.181 42.7585 111.844 40.18 115.292C37.1719 116.585 33.9489 118.955 31.3705 121.326C29.8664 122.834 27.5029 125.42 27.288 127.36C27.0731 128.437 27.9326 129.73 27.9326 130.592C27.5029 132.963 23.4204 134.902 23.8501 137.273C25.569 135.333 27.288 133.394 29.0069 131.454C33.734 133.825 36.0976 128.222 37.8165 125.42C39.5354 122.619 40.8246 120.033 42.3287 117.662C43.6179 115.507 45.5517 112.706 47.2707 110.551C50.4937 106.241 52.6424 103.009 59.9479 103.871C58.2289 110.12 53.287 113.352 48.9896 117.231C47.0558 118.955 43.6179 122.188 43.8328 124.343C43.8328 125.851 45.7666 126.282 45.5517 127.575C44.0477 131.885 40.6098 134.04 37.1719 137.057C34.1637 139.859 25.7839 146.755 31.3705 150.418C30.2961 151.28 30.0813 153.651 28.7921 154.944C28.1475 155.59 26.8582 155.806 25.9988 156.237C23.2055 158.607 18.6933 162.917 17.4041 165.719C15.0405 169.813 17.1892 173.046 21.0568 171.106C25.1393 169.167 29.0069 162.271 28.5772 156.452C29.8664 154.297 30.9407 152.142 32.6597 150.418C38.676 149.125 41.0395 144.169 41.2544 137.057C43.8328 134.256 44.4774 130.377 47.0558 128.006C48.9896 126.067 51.568 125.205 53.0721 122.834C54.3613 120.464 54.791 118.093 55.6505 114.43C58.0141 111.413 59.5181 107.319 61.6668 104.086C67.2534 103.009 71.7656 105.164 76.9224 105.379C73.9143 111.198 61.2371 116.369 64.6749 124.989C60.3776 132.532 54.1464 139.643 51.1383 147.401C56.7248 140.505 61.0222 132.747 66.179 125.42C66.8236 125.636 67.6831 125.42 68.3277 125.205C73.2697 121.757 75.6332 115.507 76.7075 107.965C77.7819 107.319 77.7819 105.81 78.8562 105.164C85.732 105.595 93.2523 105.164 100.128 105.81C99.0538 107.319 98.4092 109.474 96.9051 110.982C93.4672 114.861 79.7157 121.326 85.9468 128.006C83.5833 131.023 81.6495 134.256 79.5008 137.488C74.7737 141.798 65.9642 144.815 68.1128 154.082C65.5344 157.53 63.1709 161.193 60.5925 164.641C55.6505 167.443 44.0477 174.339 49.6342 181.019C46.8409 184.683 44.6923 188.993 42.1138 192.872C46.4112 190.07 48.1301 184.898 51.568 181.235C58.2289 180.157 62.3114 173.908 61.2371 166.796C64.0303 163.133 66.6088 159.254 69.1872 155.375C70.0466 156.021 71.9805 155.159 72.8399 154.728C75.4183 153.435 82.2941 145.677 80.5752 141.798C80.5752 142.014 80.3603 142.014 80.5752 141.152C82.2941 136.195 84.6576 131.885 87.6658 128.006C88.7401 128.006 89.3847 128.006 90.2442 127.791C97.3348 123.481 97.5497 112.275 102.492 105.595C106.789 105.595 110.871 105.595 115.169 105.595C110.442 113.783 105.715 121.541 100.988 129.946C99.9132 131.885 99.0538 134.256 98.8389 136.626C99.4835 137.919 101.417 137.919 102.492 138.566C98.624 144.384 88.7401 146.97 90.6739 156.668C86.5915 162.271 82.7238 167.874 78.8562 173.692C74.1291 178.002 64.8898 181.235 67.4682 190.07C66.3939 191.794 65.1047 193.734 63.6006 195.027C65.9642 194.38 66.6088 191.794 68.3277 190.286C68.9723 190.717 69.6169 190.932 70.4764 190.501C74.9886 187.269 77.9967 182.528 78.8562 175.416C83.5833 169.598 87.6658 163.133 92.3929 157.099C98.8389 156.883 102.707 149.125 101.847 142.445C103.351 141.367 102.921 139.212 104.855 138.566C106.359 138.135 109.582 139.212 111.946 139.428C114.739 139.643 117.318 139.428 119.036 140.29C115.599 145.031 112.59 150.634 109.367 155.59C108.293 157.314 106.574 158.823 106.574 160.762C109.797 156.021 114.095 150.418 117.532 145.246C119.036 143.091 120.326 139.212 123.978 140.29C115.384 153.004 104.64 163.779 96.2605 176.925C94.7564 177.787 93.8969 179.295 92.3929 180.157C89.8145 180.157 87.2361 178.864 85.5171 179.511C84.013 180.157 83.5833 182.312 82.509 183.605C87.2361 186.622 81.8644 199.121 86.5914 202.569C92.6077 202.569 96.6902 198.044 100.343 194.811C104.425 191.363 108.293 187.7 111.946 184.036C112.805 184.036 113.665 184.036 113.665 183.174C111.731 181.666 107.648 182.312 104.855 181.881C116.243 167.443 128.92 153.004 140.308 138.35C141.168 137.057 144.176 132.316 145.465 133.394C146.969 134.471 144.391 136.842 143.531 138.135C142.242 140.29 141.383 142.014 140.523 143.307C134.077 153.651 126.342 163.995 121.4 174.123C131.284 161.84 139.234 147.832 148.258 134.687C149.118 134.471 149.763 134.256 150.837 134.04C155.349 130.808 158.142 124.343 158.572 117.662C159.861 115.507 161.365 113.568 163.084 110.982C164.159 109.043 165.663 104.948 167.811 104.302C169.96 103.655 172.968 104.302 175.332 104.302C178.77 104.086 181.778 103.655 185.001 104.302C181.993 106.888 178.985 109.258 175.976 112.706C173.183 115.723 170.605 119.602 173.183 123.05C168.241 130.377 163.299 137.704 158.572 145.246C153.415 149.556 145.25 153.435 146.754 162.486C141.168 169.382 137.085 177.571 131.499 184.467C138.16 178.649 142.672 170.891 148.044 163.995C155.994 164.21 158.357 156.883 159.861 149.772C159.217 149.341 159.432 151.065 159.002 149.987C160.291 144.384 163.944 140.505 166.737 136.195C169.53 131.885 172.324 127.575 175.332 123.265C183.282 120.679 184.356 111.629 187.794 104.302C194.67 104.302 201.975 104.733 206.702 102.578C207.132 101.069 205.413 101.716 205.413 100.854C215.512 97.6211 211.859 79.5192 201.76 78.6572C198.323 78.4417 193.596 79.5191 189.943 80.3811C192.521 75.2092 193.381 68.3132 191.017 63.1412C190.373 61.6327 188.868 60.1242 188.009 58.4003C183.712 51.7198 176.406 47.1943 165.448 49.5648C170.82 39.0053 164.588 24.1359 157.068 19.6104C147.614 13.5765 134.077 16.809 125.268 22.8429C123.549 18.102 121.185 13.361 117.532 9.48199C113.665 5.60301 107.863 0.646536 102.277 3.9503e-05C93.0375 -0.861956 85.732 2.15503 80.3603 6.89601C77.567 9.26649 75.6332 13.1455 73.2697 16.378C70.6912 19.6104 68.1128 23.4894 68.3277 28.2304C64.8898 29.5234 62.5263 31.8939 61.4519 35.7729C48.1301 29.5234 31.5853 34.9109 24.065 43.7463C22.5609 45.4703 20.6271 48.2718 20.1974 50.2113C19.9825 50.8578 20.1974 51.5043 20.1974 52.3663C19.5527 57.5383 16.9743 63.5722 18.4784 70.4682C12.4621 70.2527 8.37963 71.9767 5.58636 74.5627C-4.29755 82.9671 -0.429937 106.026 13.7513 106.241ZM129.78 124.558C128.276 124.558 125.053 124.558 122.904 124.774C126.987 117.878 131.499 111.844 136.226 105.595C138.804 105.379 140.738 104.733 143.316 104.733C138.804 111.197 134.507 118.093 129.78 124.558ZM158.357 115.938C153.415 118.955 150.622 124.343 146.11 127.791C142.457 125.636 137.3 125.205 131.929 124.774C136.226 117.878 140.738 110.982 145.465 104.517C152.126 104.517 158.357 104.948 165.018 104.733C163.084 108.612 160.291 111.844 158.357 115.938Z" fill="#262222"/>
<path fill-rule="evenodd" clip-rule="evenodd" d="M154.705 57.3228C151.482 56.2453 147.614 55.8143 144.821 54.3058C146.54 52.7973 149.118 52.1508 150.408 50.2113C145.466 50.4268 142.243 53.8748 139.02 54.9523C140.309 52.5818 143.102 51.2888 145.466 49.9958C147.829 48.7028 150.622 47.6253 152.341 45.4704C150.408 45.0394 148.044 46.3324 146.11 47.4098C144.176 48.4873 142.243 49.9958 140.524 51.0733C141.813 47.6253 146.54 47.4098 148.044 44.1774C145.466 43.9619 143.102 46.3324 140.953 47.1943C139.449 40.2984 134.507 36.8504 127.417 35.5574C128.706 32.9714 126.557 29.9544 127.202 27.5839C127.846 25.429 132.573 23.0585 135.582 21.981C142.672 19.6105 150.193 20.9035 155.135 23.705C156.854 24.567 159.647 25.6445 160.936 27.3684C163.085 29.9544 165.018 35.1264 165.448 38.7899C165.663 42.8844 164.374 47.1943 162.655 51.2888C159.217 52.3663 157.283 55.1678 154.705 57.3228ZM136.011 38.1434C138.16 38.1434 139.449 35.7729 140.738 34.4799C142.028 33.1869 144.606 32.3249 143.961 29.9544C140.094 31.6784 136.871 34.9109 136.011 38.1434ZM144.391 36.8504C146.755 37.0659 148.259 34.0489 147.614 33.1869C146.755 34.4799 143.747 34.6954 144.391 36.8504Z" fill="#2D9CDB"/>
<path fill-rule="evenodd" clip-rule="evenodd" d="M68.7576 39.0054C69.1873 39.2209 69.4022 39.6519 69.4022 40.2984C69.1873 40.5139 68.5427 40.5139 68.5427 40.9449C67.4684 40.5139 68.7576 39.8674 68.7576 39.0054Z" fill="#2D9CDB"/>
<path fill-rule="evenodd" clip-rule="evenodd" d="M86.1618 84.9066C81.4347 87.7081 77.9968 91.8026 73.6995 95.2506C72.84 95.6816 71.5508 95.4661 70.4765 95.4661C74.559 90.7251 80.5753 87.4926 84.228 82.3206C80.3604 82.7516 77.782 86.1996 75.2036 88.7856C72.4103 91.3716 69.4021 93.7421 66.1791 95.4661C71.1211 90.0786 76.9225 85.3376 81.8645 79.9501C79.5009 78.4417 77.9968 81.4586 76.7076 82.7516C72.1954 86.8461 67.2535 91.5871 62.5264 95.4661C56.5101 95.4661 50.2789 95.2506 44.9072 95.6816C45.9816 90.5096 57.5844 87.7081 60.3777 93.5266C61.452 93.0956 62.0966 93.3111 62.3115 94.3886C62.5264 93.3111 63.171 93.9576 64.0304 93.5266C64.675 93.3111 64.4602 91.8026 63.8156 91.8026C67.2535 87.9236 74.9887 81.4586 79.286 77.5797C79.5009 77.3642 80.3604 77.5797 80.5753 77.5797C83.1537 77.7952 84.8726 82.1051 86.1618 84.9066Z" fill="#2D9CDB"/>
<path fill-rule="evenodd" clip-rule="evenodd" d="M85.0878 87.9236C86.377 88.1391 85.0878 89.6476 85.3027 90.5096C81.4351 90.9406 81.6499 95.6815 76.9229 95.466C79.7161 92.8801 82.5094 90.5096 85.0878 87.9236Z" fill="#2D9CDB"/>
<path fill-rule="evenodd" clip-rule="evenodd" d="M117.748 95.8971C116.458 96.7591 115.599 97.8366 113.88 98.0521C115.169 97.6211 115.599 95.8971 117.748 95.8971Z" fill="#2D9CDB"/>
<path fill-rule="evenodd" clip-rule="evenodd" d="M122.259 95.8971C121.4 96.3281 120.54 96.7591 119.466 96.9746C119.896 96.1126 120.97 95.6816 122.259 95.8971Z" fill="#2D9CDB"/>
<path fill-rule="evenodd" clip-rule="evenodd" d="M109.367 96.9746C110.227 97.8366 108.508 98.6986 107.434 98.2676C107.648 97.6211 108.938 97.8366 109.367 96.9746Z" fill="#2D9CDB"/>
<path fill-rule="evenodd" clip-rule="evenodd" d="M52.6425 97.4056C50.064 98.483 47.7005 99.5605 44.9072 100.423C47.4856 99.345 48.56 96.7591 52.6425 97.4056Z" fill="#2D9CDB"/>
<path fill-rule="evenodd" clip-rule="evenodd" d="M65.9643 97.4056C61.667 98.914 58.0142 100.854 52.8574 101.285C53.7169 99.5605 58.2291 99.1295 60.3778 97.6211C62.0967 98.2676 63.6008 96.7591 65.9643 97.4056Z" fill="#2D9CDB"/>
<path fill-rule="evenodd" clip-rule="evenodd" d="M70.0464 97.4056C69.6167 97.6211 68.5424 98.4831 68.1126 98.0521C67.8978 96.7591 69.4018 97.6211 70.0464 97.4056Z" fill="#2D9CDB"/>
<path fill-rule="evenodd" clip-rule="evenodd" d="M35.0236 97.6211C31.3709 99.1296 29.437 102.147 24.71 102.578C27.933 100.638 30.5114 98.2676 35.0236 97.6211Z" fill="#2D9CDB"/>
<path fill-rule="evenodd" clip-rule="evenodd" d="M38.4607 97.6211C38.8905 97.8366 38.6756 98.6986 39.1053 99.3451C36.7418 100.207 35.4526 102.362 31.585 101.931C33.7336 100.207 36.7418 99.3451 38.4607 97.6211Z" fill="#2D9CDB"/>
<path fill-rule="evenodd" clip-rule="evenodd" d="M156.853 98.6986C154.919 99.5606 152.556 99.9916 150.192 100.638C150.622 100.423 151.482 99.5606 150.407 99.3451C152.126 98.6986 154.705 98.6986 156.853 98.6986Z" fill="#2D9CDB"/>
<path fill-rule="evenodd" clip-rule="evenodd" d="M149.978 98.9141C146.54 99.9916 143.532 101.931 139.02 101.931C141.598 99.9916 145.466 99.1296 149.978 98.9141Z" fill="#2D9CDB"/>
<path fill-rule="evenodd" clip-rule="evenodd" d="M188.654 99.5605C186.935 102.147 182.208 100.638 178.985 100.854C170.82 101.5 160.076 101.931 151.052 101.931C159.861 96.3281 175.547 100.423 188.654 99.5605Z" fill="#2D9CDB"/>
<path fill-rule="evenodd" clip-rule="evenodd" d="M12.4619 99.5605C13.966 99.5605 15.0403 99.9915 16.3295 99.5605C15.4701 100.207 14.3957 100.638 13.3214 101.285C13.3214 100.423 12.4619 100.423 12.4619 99.5605Z" fill="#2D9CDB"/>
<path fill-rule="evenodd" clip-rule="evenodd" d="M203.05 99.5605C200.901 102.362 194.025 100.207 189.728 100.854C189.513 99.9915 190.587 100.423 190.372 99.5605C194.885 99.1295 199.182 100.423 203.05 99.5605Z" fill="#2D9CDB"/>
<path fill-rule="evenodd" clip-rule="evenodd" d="M119.896 99.776C117.532 102.146 112.376 101.715 107.434 101.715C108.938 100.854 109.797 100.638 111.946 99.9915C113.88 103.224 116.673 99.776 119.896 99.776Z" fill="#2D9CDB"/>
<path fill-rule="evenodd" clip-rule="evenodd" d="M128.491 99.776C126.128 100.638 124.194 101.931 120.756 101.716C122.69 100.638 124.838 99.5605 128.491 99.776Z" fill="#2D9CDB"/>
<path fill-rule="evenodd" clip-rule="evenodd" d="M105.5 100.207C105.07 100.638 103.996 100.638 104.425 101.931C103.351 101.5 101.847 102.147 100.343 101.931C101.632 100.854 102.921 99.9916 105.5 100.207Z" fill="#2D9CDB"/>
<path fill-rule="evenodd" clip-rule="evenodd" d="M99.4838 100.423C99.4838 100.854 98.4095 101.285 99.269 101.5C98.6244 102.147 96.6906 101.5 95.4014 101.716C96.4757 101.285 97.55 100.423 99.4838 100.423Z" fill="#2D9CDB"/>
<path fill-rule="evenodd" clip-rule="evenodd" d="M93.8968 101.5C93.2522 102.146 91.5333 101.5 90.6738 101.716C90.8887 101.069 93.2522 100.423 93.8968 101.5Z" fill="#2D9CDB"/>
<path fill-rule="evenodd" clip-rule="evenodd" d="M88.3107 101.5C88.5256 102.577 87.2364 101.931 86.5918 102.146C86.5918 101.285 88.0959 100.854 88.3107 101.5Z" fill="#2D9CDB"/>
<path fill-rule="evenodd" clip-rule="evenodd" d="M81.6494 101.5C82.294 101.5 82.9386 101.5 83.5832 101.5C83.5832 101.715 83.5832 101.931 83.5832 102.146C82.9386 102.146 82.294 102.146 81.6494 102.146C81.6494 101.931 81.6494 101.715 81.6494 101.5Z" fill="#2D9CDB"/>
<path fill-rule="evenodd" clip-rule="evenodd" d="M15.255 102.362C15.8996 102.147 15.6847 102.793 16.1145 103.009C16.1145 103.655 15.0401 103.44 14.1807 103.44C14.1807 102.793 15.255 103.009 15.255 102.362Z" fill="#2D9CDB"/>
<path fill-rule="evenodd" clip-rule="evenodd" d="M121.829 112.49C121.185 112.921 120.54 113.352 119.681 113.568C119.681 112.706 120.54 112.49 121.829 112.49Z" fill="#F2C94C"/>
<path fill-rule="evenodd" clip-rule="evenodd" d="M126.127 112.922C126.557 112.922 126.772 113.137 126.342 113.137C124.193 115.292 120.111 115.723 117.317 117.231C119.251 114.645 123.549 114.645 126.127 112.922Z" fill="#F2C94C"/>
<path fill-rule="evenodd" clip-rule="evenodd" d="M124.193 116.37C122.045 118.309 118.177 118.524 115.599 120.033C117.962 118.309 121.4 117.663 124.193 116.37Z" fill="#F2C94C"/>
<path fill-rule="evenodd" clip-rule="evenodd" d="M137.515 129.73C134.292 130.808 131.713 132.316 129.565 134.256C130.209 132.532 132.143 131.885 132.573 130.161C130.209 129.946 128.275 134.04 125.912 133.825C125.267 132.747 128.92 131.239 129.565 129.73C132.573 129.299 134.721 129.946 137.515 129.73Z" fill="#F2C94C"/>
<path fill-rule="evenodd" clip-rule="evenodd" d="M143.317 129.73C140.523 131.67 136.441 132.532 133.003 133.825C135.796 131.885 140.094 131.239 143.317 129.73Z" fill="#F2C94C"/>
<path fill-rule="evenodd" clip-rule="evenodd" d="M134.722 140.505C134.292 141.583 133.218 142.014 132.788 143.307C129.135 142.445 126.987 145.246 123.764 145.893C126.342 143.091 131.284 142.445 134.722 140.505Z" fill="#F2C94C"/>
<path fill-rule="evenodd" clip-rule="evenodd" d="M57.5846 168.305C56.94 170.891 54.1468 173.692 52.4278 176.063C51.9981 175.416 51.9981 174.554 51.5684 173.908C53.5022 171.968 55.6508 170.244 57.5846 168.305Z" fill="#F2C94C"/>
<path fill-rule="evenodd" clip-rule="evenodd" d="M101.847 4.95653C101.847 4.31004 104.425 5.81853 105.499 6.03403C104.425 6.68052 102.921 5.38753 101.847 4.95653Z" fill="#2D9CDB"/>
<path fill-rule="evenodd" clip-rule="evenodd" d="M93.8972 95.0351C89.8147 96.1126 82.5092 96.3281 82.2943 100.207C81.22 99.9916 80.7903 100.423 79.7159 100.423C78.4267 100.854 80.1457 101.285 79.5011 101.716C78.6416 101.716 77.5673 101.716 76.7078 101.716C77.7821 101.069 79.5011 100.854 79.9308 99.5606C76.2781 99.7761 74.3442 101.716 70.2618 101.5C73.4848 99.3451 77.7821 99.7761 80.1457 96.7591C81.4349 96.5436 82.2943 96.9746 83.3687 96.9746C83.5836 95.2506 81.8646 95.6816 80.3605 95.6816C81.6497 93.7421 83.7984 92.8801 84.8728 90.7251C85.7322 91.8026 84.8728 94.6041 86.5917 94.8196C88.0958 94.8196 87.4512 93.0956 88.7404 94.1731C88.7404 91.5871 88.0958 88.3546 88.7404 85.7686C89.8147 82.1051 94.9715 81.0277 95.6161 77.3642C93.4675 77.7952 89.8147 80.5967 87.8809 81.2432C85.7322 76.2867 80.5754 71.5457 74.5591 71.5457C73.055 71.5457 71.3361 70.8992 69.6172 70.8992C63.8157 71.1147 57.3697 79.5192 57.3697 87.0616C56.0805 86.6306 54.3616 86.6306 52.8575 86.1996C53.0723 85.1221 55.221 84.6911 54.5764 83.3981C52.6426 82.5361 50.4939 85.7686 48.1304 86.4151C49.8493 84.4756 52.4277 83.3981 53.2872 80.5967C48.3453 81.4587 44.4776 85.9841 41.4695 89.6476C41.0398 89.0011 40.8249 88.1391 40.3952 87.4926C43.1884 83.8291 47.9155 82.3206 50.0642 78.0107C44.9074 78.8727 42.5438 84.0446 39.106 85.5531C38.4614 83.3981 41.6844 82.1051 43.1884 80.8122C45.1222 79.3037 46.8412 77.5797 48.3453 76.0712C44.2628 75.6402 40.3952 81.0276 36.9573 83.1826C37.8167 80.1657 42.1141 78.0107 44.6925 76.0712C45.1222 74.9937 46.1966 74.5627 46.6263 73.4852C41.6844 74.1317 38.4614 78.8727 34.3789 81.4586C29.222 78.2262 21.4868 81.0277 19.1233 85.1221C20.8422 85.7686 23.6355 83.8291 26.6436 83.8291C29.6518 83.6136 32.4451 84.2601 34.164 85.7686C34.8086 86.4151 33.9491 86.6306 34.164 87.4926C36.9573 87.4926 37.6019 91.3716 39.7506 92.6646C39.5357 93.7421 38.8911 94.3886 38.6762 95.2506C28.5774 94.8196 19.9827 96.1126 11.8178 97.8366C8.59475 92.8801 9.66909 81.4586 14.3962 78.8727C10.3137 76.5022 7.95015 82.7516 7.52042 87.9236C7.30555 91.8026 7.52042 95.6816 8.80962 98.2676C10.3137 101.069 12.2475 101.5 12.8921 103.44C10.0988 102.147 5.15687 94.8196 4.51227 90.5096C3.86767 85.1221 5.58661 81.2432 8.37989 78.0107C10.5286 75.4247 14.3962 72.6232 19.1233 74.3472C19.553 76.9332 16.1151 79.0882 15.9003 82.3206C15.6854 84.6911 15.9003 87.0616 17.1895 89.0011C17.1895 89.8631 17.1895 90.7251 17.1895 91.5871C18.9084 85.9841 18.4787 76.9332 24.9247 76.9332C25.5693 74.3472 31.8005 74.9937 34.3789 73.2697C33.3045 70.6837 28.3626 71.3302 25.7842 72.1922C24.9247 68.0977 23.8504 62.7102 25.1396 57.9693C26.8585 51.9353 35.8829 44.8238 40.3952 43.3153C42.7587 42.4533 45.7669 42.6688 48.775 42.2378C48.5601 41.1604 47.0561 41.3759 45.9817 41.3759C45.9817 40.9449 46.8412 41.1603 46.8412 40.5139C46.1966 39.4364 44.4776 39.6519 43.6182 39.6519C39.9654 40.0829 34.8086 43.7463 31.3707 46.5478C26.8585 50.2113 23.4206 54.3058 22.5611 60.1243C22.776 61.6327 22.3463 64.6497 22.3463 61.4172C22.3463 54.5213 25.1396 49.7803 29.4369 45.2548C34.8086 39.8674 42.1141 37.0659 53.5021 38.3589C58.0143 38.7899 60.8076 40.9449 64.4603 43.0998C60.8076 46.5478 55.0062 53.0128 59.5184 59.4778C62.3117 53.2283 64.2455 46.1168 71.9807 44.8238C74.9888 42.2378 81.8646 42.0223 86.5917 42.0223C89.8147 36.6349 90.8891 30.1699 99.6986 31.0319C102.492 32.7559 103.781 35.7729 106.36 37.7124C106.36 35.3419 104.426 32.5404 102.492 31.0319C103.137 30.3854 104.426 31.4629 105.07 31.8939C99.9135 23.7049 84.443 30.3854 85.5174 40.2984C82.0795 39.2209 77.3524 38.3589 73.055 39.0054C73.055 36.8504 72.8402 34.6954 73.9145 33.8334C73.9145 33.1869 73.2699 33.1869 73.055 32.7559C73.2699 17.24 82.939 10.775 93.2526 5.60303C84.0133 11.206 76.4929 20.257 76.9227 34.6954C81.4349 20.9035 87.2363 4.31003 107.004 8.62001C107.649 8.83551 107.434 8.18901 107.649 7.75802C117.103 13.361 122.475 23.0584 125.053 35.5574C110.872 36.2039 102.922 44.3928 102.707 57.9693C104.641 57.9693 104.855 55.5988 105.285 54.3058C107.004 49.3493 108.938 43.0998 114.739 41.3759C119.681 39.8674 129.565 39.4364 133.218 42.2378C137.086 45.0393 139.019 51.5043 136.226 56.8918C131.499 56.0298 126.127 56.6763 125.483 60.7708C133.648 59.2623 142.887 60.7707 145.68 67.4512C140.309 70.4682 134.507 74.5627 135.796 83.1826C128.061 77.5797 115.169 81.8896 110.872 87.9236C108.938 85.5531 107.434 81.2431 103.781 81.4586C105.5 82.5361 106.789 84.0446 107.864 85.9841C107.864 86.4151 107.004 86.1996 106.789 86.6306C108.078 88.7856 108.938 90.9406 108.938 93.7421C99.9135 94.8196 92.608 96.3281 85.0876 100.207C88.0958 98.4831 91.3188 97.1901 93.8972 95.0351ZM110.227 27.1529C111.946 26.0754 113.235 23.0584 113.235 21.3344C111.946 22.8429 109.797 24.7824 110.227 27.1529ZM112.591 30.8164C113.88 28.4459 116.673 24.7824 116.243 22.1964C114.739 24.5669 112.161 27.1529 112.591 30.8164ZM119.252 23.0584C117.318 25.6444 113.88 28.2304 114.524 32.5404C117.318 30.6009 119.037 26.0754 120.111 23.4894C119.896 23.2739 119.681 22.8429 119.252 23.0584ZM94.1121 50.4268C95.4013 52.3663 95.6161 54.7368 97.3351 56.0298C99.4838 50.8578 94.3269 46.1168 90.4593 44.1773C90.4593 46.3323 92.608 48.0563 94.1121 50.4268ZM72.1956 62.0637C75.2037 60.7707 77.1375 57.7538 78.8565 55.3833C80.7903 52.7973 82.9389 49.9958 84.0133 46.9788C78.6416 50.4268 75.4186 56.2453 72.1956 62.0637ZM86.3768 48.0563C83.1538 49.7803 81.0051 53.2283 78.8565 56.0298C76.7078 59.0468 73.9145 62.0637 73.6996 65.7272C75.2037 66.3737 75.6335 64.4342 76.2781 64.8652C75.4186 65.9427 73.6996 67.6667 74.3442 69.3907C78.2119 67.2357 80.1457 62.9257 82.7241 59.4778C85.3025 55.8143 87.8809 52.1508 89.8147 48.0563C86.5917 49.5648 85.0876 53.0128 82.7241 55.1678C83.5836 52.7973 86.8066 50.8578 86.3768 48.0563ZM84.443 59.2623C82.2943 62.4947 79.7159 65.7272 78.8565 69.6062C82.0795 67.6667 84.0133 64.0032 85.9471 60.9862C88.0958 57.7538 90.4593 54.5213 91.7485 50.6423C91.9634 50.6423 91.9634 50.2113 91.5337 50.4268C88.9552 53.0128 86.5917 56.0298 84.443 59.2623ZM42.1141 58.8313C43.1884 57.5383 43.4033 55.1678 43.833 53.0128C41.0398 51.0733 39.3208 58.4003 42.1141 58.8313ZM85.0876 67.8822C89.385 64.0032 92.1783 58.6158 94.9715 53.2283C95.1864 53.2283 95.1864 52.7973 94.7567 53.0128C90.8891 57.1073 86.3768 62.0637 85.0876 67.8822ZM46.1966 60.3398C47.9155 59.2623 48.3453 56.8918 48.9899 54.7368C47.2709 52.3663 43.6182 59.2623 46.1966 60.3398ZM106.789 59.0468C98.8392 58.1848 91.1039 65.0807 95.1864 73.2697C94.9715 64.0032 101.847 60.5553 110.657 61.4172C110.442 59.2623 108.078 59.2623 106.789 59.0468ZM89.385 68.5287C92.3931 67.0202 94.7567 63.1412 95.1864 59.9088C92.3931 61.6327 89.5998 65.0807 89.385 68.5287ZM53.717 70.6837C55.8656 69.8217 56.2954 65.9427 55.8656 63.5722C53.0723 63.7877 52.4277 68.7442 53.717 70.6837ZM57.3697 70.6837C55.4359 72.1922 52.6426 73.0542 52.2129 76.2867C55.4359 77.3642 58.2292 73.2697 59.9481 71.1147C58.6589 70.2527 61.0224 67.8822 59.9481 66.3737C57.5846 65.0807 57.1548 69.1752 57.3697 70.6837ZM62.0968 72.4077C62.7414 71.3302 64.0306 70.8992 63.8157 69.1752C63.386 68.9597 63.386 68.3132 62.5265 68.5287C61.2373 69.1752 60.8076 71.5457 62.0968 72.4077ZM52.6426 80.1657C52.8575 80.1657 53.0723 80.3812 53.2872 80.8122C56.2954 80.1657 56.7251 76.9332 58.444 75.2092C55.8656 76.2867 53.2872 77.1487 52.6426 80.1657ZM36.5275 79.5192C38.4614 79.3037 38.6762 77.3642 39.5357 76.2867C38.0316 76.9332 36.5275 77.3642 36.5275 79.5192Z" fill="#2D9CDB"/>
<path fill-rule="evenodd" clip-rule="evenodd" d="M161.366 74.7781C162.01 73.9161 162.01 76.0711 163.3 75.6401C160.291 70.6836 155.564 67.4512 148.044 67.0202C147.185 62.9257 144.606 60.3397 141.168 59.0467C142.028 58.4002 142.887 57.7537 143.962 57.3227C148.689 58.4002 152.986 59.9087 156.639 62.0637C157.928 63.1412 157.713 65.9427 159.432 66.5892C162.87 64.6497 159.647 59.6932 157.713 58.8312C160.506 57.1072 164.589 53.6592 168.671 52.7972C175.332 51.2887 180.489 54.3057 183.927 57.9692C184.357 58.4002 183.927 58.6157 183.927 59.2622C191.447 63.3567 190.373 79.3036 184.142 84.0446C180.274 79.3036 165.233 77.7951 162.01 84.9066C163.3 86.1996 163.729 84.2601 165.019 83.8291C169.746 82.3206 178.77 84.2601 181.349 86.8461C181.349 87.4926 180.274 87.2771 180.059 87.9236C180.489 88.7856 181.134 87.2771 181.993 87.7081C183.282 89.6476 183.712 92.2336 185.216 93.742C187.15 92.6645 186.935 88.1391 185.861 86.1996C187.365 85.7686 187.795 84.9066 189.513 85.5531C191.447 84.6911 193.166 82.9671 195.1 82.7516C203.695 81.4586 211 92.88 203.695 99.1295C201.761 97.8365 198.323 98.052 195.1 97.8365C185.216 96.759 174.473 95.897 163.514 95.2505C159.002 95.035 153.845 95.6815 149.333 95.035C148.689 95.035 148.259 94.3885 147.614 94.173C143.962 93.0955 139.02 93.5265 135.152 93.311C127.417 93.0955 119.252 93.742 111.731 93.311C111.517 87.4926 120.326 83.3981 126.128 82.9671C133.433 82.5361 136.656 87.9236 139.664 92.0181C140.524 88.5701 136.441 85.9841 137.086 82.5361C137.301 81.2431 137.086 82.9671 137.945 82.5361C139.879 78.0106 140.739 72.6231 146.54 71.9767C147.829 72.1922 146.325 74.5626 147.399 74.5626C148.044 74.3471 147.399 72.8386 147.614 71.9767C154.49 70.8992 157.713 73.0541 161.796 76.5021C162.655 76.2866 161.581 75.2091 161.366 74.7781Z" fill="#2D9CDB"/>
<path fill-rule="evenodd" clip-rule="evenodd" d="M69.1871 75.4247C67.683 77.1487 65.5343 78.2262 64.2451 80.1657C64.6749 78.4417 66.6087 75.8557 69.1871 75.4247Z" fill="#2D9CDB"/>
<path fill-rule="evenodd" clip-rule="evenodd" d="M73.4842 75.4247C72.8396 76.0712 72.1949 76.5022 71.5503 77.1487C71.1206 76.7177 72.1949 75.4247 73.4842 75.4247Z" fill="#2D9CDB"/>
<path fill-rule="evenodd" clip-rule="evenodd" d="M76.0631 77.5797C76.0631 76.9332 75.2036 76.9332 74.3442 76.9332C74.7739 75.4247 76.9226 75.2092 78.2118 76.0712C71.9806 79.9502 67.2536 85.5531 61.667 89.8631C64.4603 85.5531 69.832 81.2432 73.9144 77.1487C74.7739 77.3642 75.8483 77.1487 76.0631 77.5797Z" fill="#2D9CDB"/>
<path fill-rule="evenodd" clip-rule="evenodd" d="M69.8319 78.4417C68.5427 79.9501 64.8899 83.8291 62.3115 85.9841C63.6007 84.4756 67.4683 80.5966 69.8319 78.4417Z" fill="#2D9CDB"/>
<path fill-rule="evenodd" clip-rule="evenodd" d="M106.789 96.3281C105.499 97.1901 103.995 97.8366 102.706 98.4831C103.136 97.8366 105.07 96.3281 106.789 96.3281Z" fill="#2D9CDB"/>
<path fill-rule="evenodd" clip-rule="evenodd" d="M42.9736 97.8366C43.6182 97.1901 45.3371 97.8366 46.1966 97.6211C44.6925 98.6986 42.9736 99.3451 41.2546 100.207C40.3952 100.423 44.6925 98.4831 42.9736 97.8366Z" fill="#2D9CDB"/>
<path fill-rule="evenodd" clip-rule="evenodd" d="M27.288 98.483C25.5691 99.9915 22.5609 100.423 21.7015 103.009C20.842 103.009 19.9825 103.009 19.123 103.009C21.4866 101.069 24.2799 99.5605 27.288 98.483Z" fill="#2D9CDB"/>
<path fill-rule="evenodd" clip-rule="evenodd" d="M51.5679 98.9141C51.1382 99.7761 48.9895 101.285 46.626 100.854C47.9152 99.9916 50.0639 99.7761 51.5679 98.9141Z" fill="#2D9CDB"/>
<path fill-rule="evenodd" clip-rule="evenodd" d="M68.9719 99.5605C69.4017 99.9915 67.6827 100.638 66.8232 100.638C67.0381 99.9915 68.5422 100.207 68.9719 99.5605Z" fill="#2D9CDB"/>
<path fill-rule="evenodd" clip-rule="evenodd" d="M137.944 99.5605C136.225 100.423 133.862 100.423 132.143 101.285C131.928 100.854 134.077 100.207 134.721 99.5605C135.581 99.5605 136.655 99.5605 137.944 99.5605Z" fill="#2D9CDB"/>
<path fill-rule="evenodd" clip-rule="evenodd" d="M122.689 118.74C121.829 120.895 119.681 124.343 117.962 126.498C119.896 128.868 123.333 129.299 127.631 129.299C125.912 130.161 125.267 132.532 123.119 132.963C118.177 134.256 111.516 129.946 106.789 131.023C106.574 131.67 106.574 132.316 106.789 132.963C108.078 135.549 120.325 134.687 125.052 135.549C126.127 135.549 124.837 136.411 125.912 136.626C127.846 136.842 127.846 134.902 129.135 134.687C128.92 135.764 127.846 136.411 127.416 137.488C132.788 137.273 137.515 134.256 142.027 132.532C138.374 135.333 133.217 136.626 128.705 138.566C123.333 136.411 115.383 136.195 108.508 135.764C106.144 135.549 104.855 134.902 102.491 135.549C102.276 132.532 104.64 130.377 106.144 128.006C110.441 120.895 114.309 113.137 118.821 106.026C119.681 106.026 120.54 106.026 121.4 106.026C118.821 109.689 116.672 113.783 114.309 117.662C111.945 121.326 108.722 124.774 107.648 129.084C110.441 128.222 112.805 124.774 114.309 121.972C117.532 121.11 120.11 120.033 122.689 118.74Z" fill="#F2C94C"/>
<path fill-rule="evenodd" clip-rule="evenodd" d="M131.714 106.457C128.706 108.181 124.623 108.827 121.83 110.551C122.26 109.474 124.623 108.612 126.342 107.965C128.061 107.534 130.21 106.888 131.714 106.457Z" fill="#2D9CDB"/>
<path fill-rule="evenodd" clip-rule="evenodd" d="M178.985 113.137C178.125 115.292 175.977 118.74 174.043 120.895C174.473 117.016 177.481 115.938 178.985 113.137Z" fill="#F2C94C"/>
<path fill-rule="evenodd" clip-rule="evenodd" d="M70.2612 115.723C69.8314 117.663 67.6828 120.033 66.6084 122.188C66.3935 119.387 69.1868 117.447 70.2612 115.723Z" fill="#F2C94C"/>
<path fill-rule="evenodd" clip-rule="evenodd" d="M91.7482 118.74C91.5333 121.326 87.8806 122.619 87.0211 125.636C84.8724 122.834 90.2441 120.679 91.7482 118.74Z" fill="#F2C94C"/>
<path fill-rule="evenodd" clip-rule="evenodd" d="M151.696 125.636C151.267 127.575 148.903 130.161 147.829 132.316C145.895 129.946 150.622 127.791 151.696 125.636Z" fill="#F2C94C"/>
<path fill-rule="evenodd" clip-rule="evenodd" d="M137.945 136.411C138.589 137.273 136.871 137.919 136.656 138.566C132.573 138.781 129.995 140.505 126.987 141.583C126.342 141.367 127.416 140.721 127.631 140.29C131.499 139.859 134.722 138.135 137.945 136.411Z" fill="#F2C94C"/>
<path fill-rule="evenodd" clip-rule="evenodd" d="M37.3866 139.212C36.742 142.445 32.6595 144.6 30.9405 147.832C30.0811 146.324 32.2297 144.6 33.5189 143.307C35.023 142.014 36.5271 140.505 37.3866 139.212Z" fill="#2D9CDB"/>
<path fill-rule="evenodd" clip-rule="evenodd" d="M75.848 142.229C74.7737 145.031 71.7655 148.479 70.0466 151.28C69.6169 147.186 73.9142 145.031 75.848 142.229Z" fill="#F2C94C"/>
<path fill-rule="evenodd" clip-rule="evenodd" d="M132.144 143.738C130.425 146.539 124.409 147.186 121.615 149.772C122.26 146.108 129.136 146.108 132.144 143.738Z" fill="#F2C94C"/>
<path fill-rule="evenodd" clip-rule="evenodd" d="M94.9717 149.772C95.1865 150.634 93.2527 151.927 93.0378 153.435C92.6081 152.142 94.3271 150.849 94.9717 149.772Z" fill="#F2C94C"/>
<path fill-rule="evenodd" clip-rule="evenodd" d="M153.845 151.496C152.771 154.082 150.407 157.53 148.044 159.9C149.118 156.021 151.912 154.082 153.845 151.496Z" fill="#F2C94C"/>
<path fill-rule="evenodd" clip-rule="evenodd" d="M25.3543 159.469C24.28 162.917 20.6273 166.15 18.6934 169.813C18.2637 164.857 22.9908 162.702 25.3543 159.469Z" fill="#2D9CDB"/>
<path fill-rule="evenodd" clip-rule="evenodd" d="M72.8395 181.45C72.6247 183.174 70.2611 185.329 69.1868 187.269C68.5422 184.467 71.3355 182.959 72.8395 181.45Z" fill="#2D9CDB"/>
<path fill-rule="evenodd" clip-rule="evenodd" d="M96.9052 186.407C94.3268 187.7 91.9632 189.208 89.3848 190.286C89.3848 188.131 88.9551 186.407 88.7402 184.467C90.2443 184.467 91.3186 183.821 92.6078 183.605C92.1781 184.467 92.6079 184.683 93.2525 185.329C102.922 174.123 111.731 162.271 120.541 150.418C124.193 149.987 126.342 148.048 129.35 147.186C119.896 157.745 111.731 169.382 102.062 179.942C100.773 181.45 98.4093 182.528 98.4093 184.898C99.9133 185.76 103.566 185.545 106.145 185.976C101.203 189.855 94.3268 193.303 89.17 196.32C89.8146 194.165 92.393 193.303 94.1119 192.225C96.0457 190.932 97.7647 189.639 99.2687 188.346C95.4011 189.208 91.9633 192.01 88.9551 193.087C89.17 191.363 91.1038 190.286 92.1781 189.424C94.1119 188.131 95.8309 187.7 96.9052 186.407Z" fill="#F2C94C"/>
</svg>
